<svg width="111" height="79" viewBox="0 0 111 79" fill="none" xmlns="http://www.w3.org/2000/svg">
<path d="M59.6531 54.667C59.6307 55.1422 59.5372 55.6062 59.3801 56.0423C59.3595 56.1001 59.3389 56.156 59.3165 56.2119C58.7591 57.5984 57.5565 58.6998 55.9872 59.0688C53.6493 59.6204 51.3113 58.3532 50.4603 56.1858C50.4398 56.1336 50.4192 56.0814 50.4005 56.0274C50.3444 55.8708 50.2957 55.7068 50.2565 55.541C50.2359 55.4553 50.2191 55.3695 50.2041 55.2838C50.1891 55.1999 50.176 55.1161 50.1648 55.0322C50.1573 54.9726 50.1517 54.9111 50.1461 54.8514C50.1405 54.7862 50.1368 54.7191 50.1349 54.6539C50.1311 54.6092 50.1293 54.5645 50.1293 54.5197C50.1218 54.16 50.1573 53.806 50.2321 53.4631C50.2378 53.4332 50.2452 53.4016 50.2527 53.3717C50.3631 52.8965 50.5482 52.4437 50.7951 52.03C50.812 52.0039 50.8269 51.9759 50.8456 51.9498C51.0682 51.592 51.3375 51.264 51.648 50.977L51.6536 50.9714C51.8855 50.7552 52.1399 50.5614 52.4167 50.3956C52.4279 50.3881 52.4392 50.3825 52.4504 50.3769C52.8245 50.1514 53.2359 49.9763 53.6792 49.8607C53.7054 49.8533 53.7316 49.8477 53.7578 49.8402C53.7709 49.8365 53.784 49.8346 53.7989 49.8309C54.1187 49.7564 54.4386 49.7154 54.7547 49.706C54.7958 49.7042 54.837 49.7042 54.8762 49.7042C55.3158 49.7023 55.7441 49.7619 56.1556 49.8756C56.6138 50.0005 57.0477 50.1943 57.4442 50.444C57.7229 50.6211 57.9829 50.8261 58.2204 51.0572C58.5309 51.3591 58.8021 51.7057 59.0228 52.0896C59.2379 52.4623 59.4044 52.8686 59.5129 53.3065C59.5166 53.3233 59.5222 53.3419 59.5259 53.3606C59.6307 53.7985 59.67 54.2383 59.6513 54.667H59.6531Z" fill="#FDCB0E"/>
<path d="M49.7436 54.7456C49.7436 54.7904 49.7455 54.8351 49.7492 54.8798L3.39806 45.8097C3.39806 45.8097 3.38123 45.8208 3.36814 45.8283C2.88746 45.0698 1.11062 41.9054 2.55453 38.3739C3.68236 35.6157 6.06145 34.3764 6.91994 34H6.92556L49.8465 53.689C49.7717 54.0319 49.7361 54.386 49.7436 54.7456Z" fill="#E00B7A"/>
<path d="M50.8456 51.9498C50.8269 51.9759 50.8119 52.0038 50.7951 52.0299C50.5482 52.4436 50.363 52.8965 50.2527 53.3717C50.2452 53.4015 50.2377 53.4332 50.2321 53.463L7.31119 33.7759C7.31119 33.7759 7.30932 33.7741 7.30932 33.7722C6.49758 31.1483 7.10171 28.3622 8.94214 26.4743C10.6816 24.6909 12.9054 24.3405 13.7751 24.2604C13.792 24.2585 13.8088 24.2567 13.8238 24.2567L50.8456 51.9498Z" fill="#1F93D8"/>
<path d="M51.6481 50.977C51.3376 51.264 51.0683 51.592 50.8457 51.9498L13.8239 24.2567C13.8089 24.2567 13.7921 24.2585 13.7752 24.2604C12.8868 21.7035 13.7752 18.8522 15.9486 17.2831C18.0415 15.7735 20.905 15.753 23.0578 17.2383L51.6481 50.977Z" fill="#FFF95C"/>
<path d="M52.4504 50.3769C52.4392 50.3825 52.428 50.3881 52.4168 50.3956C52.1399 50.5614 51.8856 50.7552 51.6537 50.9714L51.648 50.977L23.0578 17.2383L23.0241 17.1992C21.7859 14.3963 22.6856 11.1649 25.0347 9.53793C27.0061 8.17377 29.6994 8.14396 31.8428 9.4727L31.8503 9.48761L52.4504 50.3769Z" fill="#F9C202"/>
<path d="M53.7578 49.8402C53.7316 49.8477 53.7055 49.8532 53.6793 49.8607C53.236 49.9762 52.8245 50.1514 52.4504 50.3769L31.8503 9.4876V9.47642C31.9607 6.75929 33.717 4.37947 36.2663 3.55389C38.4583 2.84013 40.9478 3.37312 42.7844 4.89382L53.7578 49.8402Z" fill="#9FD108"/>
<path d="M54.8763 3.74771V49.7042C54.837 49.7042 54.7958 49.7042 54.7547 49.706C54.4386 49.7153 54.1188 49.7563 53.799 49.8309C53.784 49.8346 53.7709 49.8365 53.7578 49.8402L42.7844 4.89569C43.9141 2.86436 45.9435 1.44243 48.2926 1.17594C50.7166 0.901988 53.1799 1.8897 54.8669 3.73839C54.8707 3.74212 54.8725 3.74398 54.8763 3.74771Z" fill="#EDCFE0"/>
<path d="M50.4603 56.1858L4.05681 57.3375C1.95266 56.1429 0.630315 53.8973 0.60226 51.4597C0.561112 47.876 3.33485 45.8819 3.75381 45.6024C3.7669 45.5949 3.77625 45.5893 3.78373 45.5837L50.1349 54.6539C50.1368 54.7191 50.1405 54.7862 50.1461 54.8514C50.1517 54.9111 50.1573 54.9726 50.1648 55.0322C50.176 55.1161 50.1873 55.1999 50.2041 55.2838C50.2191 55.3695 50.2359 55.4552 50.2565 55.541C50.2957 55.7068 50.3444 55.8708 50.4005 56.0274C50.4192 56.0814 50.4398 56.1336 50.4603 56.1858Z" fill="#FDF600"/>
<path d="M67.2823 4.79879C67.2318 4.83606 67.1813 4.87706 67.1327 4.91806L56.1575 49.8756C55.746 49.7619 55.3177 49.7023 54.8781 49.7042V3.74771C54.8781 3.74771 54.8725 3.74212 54.8688 3.73839C56.5484 1.96611 58.9667 1.01381 61.4412 1.28589C63.7735 1.54307 65.8983 2.85877 67.2842 4.79879H67.2823Z" fill="#EF89B0"/>
<path d="M105.931 45.6117L59.6532 54.6669C59.6719 54.2383 59.6326 53.7985 59.5279 53.3605C59.5241 53.3419 59.5185 53.3233 59.5148 53.3065L102.612 33.7815C102.612 33.7815 102.615 33.7703 102.617 33.7647C103.726 34.3425 105.656 35.6377 106.65 38.0697C108.043 41.4763 106.554 44.555 105.931 45.6117Z" fill="#9B1F17"/>
<path d="M102.617 33.7647C102.617 33.7647 102.613 33.7759 102.612 33.7815L59.5148 53.3065C59.4063 52.8685 59.2399 52.4623 59.0248 52.0895L96.1195 24.3424L96.1888 24.2902C97.0884 24.3778 99.2655 24.7468 100.975 26.4985C102.808 28.3789 103.414 31.1501 102.617 33.7647Z" fill="#C78860"/>
<path d="M96.1401 24.2846C96.1345 24.3032 96.127 24.3237 96.1196 24.3424L59.0248 52.0896C58.8041 51.7057 58.5329 51.359 58.2224 51.0571L86.8594 17.2644C89.0103 15.7772 91.8739 15.7977 93.9668 17.3073C96.1401 18.8764 97.0304 21.7259 96.1401 24.2846Z" fill="#F5D9BD"/>
<path d="M86.893 17.2234L86.8594 17.2625L58.2224 51.0571C57.9848 50.826 57.7249 50.621 57.4462 50.444L78.0668 9.51181L78.0743 9.4969C80.2177 8.16816 82.9111 8.19797 84.8824 9.56213C87.2316 11.1891 88.1312 14.4205 86.893 17.2234Z" fill="#DE0C7C"/>
<path d="M78.0668 9.50063V9.51181L57.4461 50.444C57.0496 50.1943 56.6157 50.0005 56.1575 49.8756L67.1327 4.91989C67.1813 4.87703 67.2318 4.83603 67.2823 4.79876C69.1022 3.36937 71.5187 2.88297 73.6509 3.5781C76.2002 4.40367 77.9565 6.78349 78.0668 9.50063Z" fill="#E55C99"/>
<path d="M109.128 51.4839C109.1 53.9215 107.777 56.1671 105.673 57.3617L59.3165 56.2118C59.339 56.1559 59.3595 56.1 59.3801 56.0422C59.5372 55.6062 59.6307 55.1421 59.6532 54.6669L105.931 45.6117L105.946 45.6079C105.946 45.6079 105.963 45.6191 105.976 45.6266C106.395 45.9061 109.169 47.9002 109.128 51.4839Z" fill="#52100B"/>
</svg>
