<svg width="111" height="79" viewBox="0 0 111 79" fill="none" xmlns="http://www.w3.org/2000/svg">
<path d="M59.6531 54.6669C59.6307 55.1422 59.5372 55.6062 59.3801 56.0423C59.3595 56.1 59.3389 56.156 59.3165 56.2119C58.7591 57.5984 57.5565 58.6998 55.9872 59.0688C53.6493 59.6204 51.3113 58.3531 50.4603 56.1858C50.4398 56.1336 50.4192 56.0814 50.4005 56.0274C50.3444 55.8708 50.2957 55.7068 50.2565 55.541C50.2359 55.4552 50.2191 55.3695 50.2041 55.2838C50.1891 55.1999 50.176 55.1161 50.1648 55.0322C50.1573 54.9726 50.1517 54.9111 50.1461 54.8514C50.1405 54.7862 50.1368 54.7191 50.1349 54.6539C50.1311 54.6092 50.1293 54.5644 50.1293 54.5197C50.1218 54.16 50.1573 53.806 50.2321 53.463C50.2378 53.4332 50.2452 53.4016 50.2527 53.3717C50.3631 52.8965 50.5482 52.4437 50.7951 52.0299C50.812 52.0038 50.8269 51.9759 50.8456 51.9498C51.0682 51.592 51.3375 51.264 51.648 50.977L51.6536 50.9714C51.8855 50.7552 52.1399 50.5614 52.4167 50.3956C52.4279 50.3881 52.4392 50.3825 52.4504 50.3769C52.8245 50.1514 53.2359 49.9762 53.6792 49.8607C53.7054 49.8532 53.7316 49.8477 53.7578 49.8402C53.7709 49.8365 53.784 49.8346 53.7989 49.8309C54.1187 49.7563 54.4386 49.7153 54.7547 49.706C54.7958 49.7042 54.837 49.7042 54.8762 49.7042C55.3158 49.7023 55.7441 49.7619 56.1556 49.8756C56.6138 50.0005 57.0477 50.1943 57.4442 50.444C57.7229 50.6211 57.9829 50.8261 58.2204 51.0571C58.5309 51.359 58.8021 51.7057 59.0228 52.0896C59.2379 52.4623 59.4044 52.8686 59.5129 53.3065C59.5166 53.3233 59.5222 53.3419 59.5259 53.3605C59.6307 53.7985 59.67 54.2383 59.6513 54.6669H59.6531Z" fill="#323338" stroke="#2C2D32" stroke-miterlimit="10"/>
<path d="M50.1292 54.5197C50.1292 54.5644 50.1311 54.6092 50.1348 54.6539L3.78368 45.5837C3.78368 45.5837 3.76685 45.5949 3.75376 45.6024C3.27308 44.8439 1.49624 41.6795 2.94015 38.148C4.06798 35.3898 6.44707 34.1505 7.30556 33.7741H7.31118L50.2321 53.463C50.1573 53.8059 50.1217 54.16 50.1292 54.5197Z" fill="#323338" stroke="#2C2D32" stroke-miterlimit="10"/>
<path d="M7.30937 33.7722H7.3075" stroke="#2C2D32" stroke-miterlimit="10"/>
<path d="M50.8456 51.9498C50.8269 51.9759 50.8119 52.0038 50.7951 52.0299C50.5482 52.4436 50.363 52.8965 50.2527 53.3717C50.2452 53.4015 50.2377 53.4332 50.2321 53.463L7.31119 33.7759C7.31119 33.7759 7.30932 33.7741 7.30932 33.7722C6.49758 31.1483 7.10171 28.3622 8.94214 26.4743C10.6816 24.6909 12.9054 24.3405 13.7751 24.2604C13.792 24.2585 13.8088 24.2567 13.8238 24.2567L50.8456 51.9498Z" fill="#323338" stroke="#2C2D32" stroke-miterlimit="10"/>
<path d="M13.9866 24.2436C13.9417 24.2473 13.8874 24.2511 13.8239 24.2567" stroke="#2C2D32" stroke-miterlimit="10"/>
<path d="M51.6481 50.977C51.3376 51.264 51.0683 51.592 50.8457 51.9498L13.8239 24.2567C13.8089 24.2567 13.7921 24.2585 13.7752 24.2604C12.8868 21.7035 13.7752 18.8522 15.9486 17.2831C18.0415 15.7735 20.905 15.753 23.0578 17.2383L51.6481 50.977Z" fill="#323338" stroke="#2C2D32" stroke-miterlimit="10"/>
<path d="M23.1232 17.2831C23.1008 17.2681 23.0802 17.2532 23.0577 17.2383" stroke="#2C2D32" stroke-miterlimit="10"/>
<path d="M13.82 24.389C13.8032 24.3461 13.7882 24.3032 13.7751 24.2604" stroke="#2C2D32" stroke-miterlimit="10"/>
<path d="M52.4504 50.3769C52.4392 50.3825 52.428 50.3881 52.4168 50.3955C52.1399 50.5614 51.8856 50.7552 51.6536 50.9714L51.648 50.977L23.0578 17.2383L23.0241 17.1992C21.7859 14.3963 22.6856 11.1648 25.0347 9.53791C27.0061 8.17376 29.6994 8.14394 31.8428 9.47269L31.8503 9.4876L52.4504 50.3769Z" fill="#323338" stroke="#2C2D32" stroke-miterlimit="10"/>
<path d="M31.8428 9.47269C31.8428 9.47269 31.8484 9.47455 31.8503 9.47642C31.8839 9.49692 31.9157 9.51742 31.9494 9.53792" stroke="#2C2D32" stroke-miterlimit="10"/>
<path d="M51.7751 51.1279L51.6479 50.977" stroke="#2C2D32" stroke-miterlimit="10"/>
<path d="M53.7578 49.8402C53.7316 49.8477 53.7055 49.8532 53.6793 49.8607C53.236 49.9762 52.8245 50.1514 52.4504 50.3769L31.8503 9.4876V9.47642C31.9607 6.75929 33.717 4.37947 36.2663 3.55389C38.4583 2.84013 40.9478 3.37312 42.7844 4.89382L53.7578 49.8402Z" fill="#323338" stroke="#2C2D32" stroke-miterlimit="10"/>
<path d="M54.8763 3.7477V49.7042C54.837 49.7042 54.7958 49.7042 54.7547 49.706C54.4386 49.7153 54.1188 49.7563 53.799 49.8309C53.784 49.8346 53.7709 49.8365 53.7578 49.8402L42.7844 4.89568C43.9141 2.86435 45.9435 1.44243 48.2926 1.17593C50.7166 0.90198 53.1799 1.88969 54.8669 3.73838C54.8707 3.74211 54.8725 3.74398 54.8763 3.7477Z" fill="#323338" stroke="#2C2D32" stroke-miterlimit="10"/>
<path d="M50.4603 56.1858L4.05681 57.3375C1.95266 56.1429 0.630315 53.8973 0.60226 51.4597C0.561112 47.876 3.33485 45.8819 3.75381 45.6024C3.7669 45.5949 3.77625 45.5893 3.78374 45.5837L50.1349 54.6539C50.1368 54.7191 50.1405 54.7862 50.1461 54.8514C50.1517 54.9111 50.1573 54.9726 50.1648 55.0322C50.176 55.1161 50.1873 55.1999 50.2041 55.2838C50.2191 55.3695 50.2359 55.4552 50.2565 55.541C50.2957 55.7068 50.3444 55.8708 50.4005 56.0274C50.4192 56.0814 50.4398 56.1336 50.4603 56.1858Z" fill="#323338" stroke="#2C2D32" stroke-miterlimit="10"/>
<path d="M50.3743 53.5283L50.2322 53.463" stroke="#2C2D32" stroke-miterlimit="10"/>
<path d="M7.30557 33.7741L7.2345 33.7405" stroke="#2C2D32" stroke-miterlimit="10"/>
<path d="M52.5383 50.5521L52.4504 50.3769" stroke="#2C2D32" stroke-miterlimit="10"/>
<path d="M53.8008 50.0172L53.7578 49.8402" stroke="#2C2D32" stroke-miterlimit="10"/>
<path d="M54.8762 49.8626V49.7042" stroke="#2C2D32" stroke-miterlimit="10"/>
<path d="M67.2823 4.79878C67.2318 4.83605 67.1813 4.87705 67.1327 4.91805L56.1575 49.8756C55.746 49.7619 55.3177 49.7023 54.8781 49.7042V3.74771C54.8781 3.74771 54.8725 3.74211 54.8688 3.73839C56.5484 1.9661 58.9667 1.0138 61.4412 1.28589C63.7735 1.54306 65.8983 2.85877 67.2842 4.79878H67.2823Z" fill="#323338" stroke="#2C2D32" stroke-miterlimit="10"/>
<path d="M13.8238 24.2567L13.792 24.2324" stroke="#2C2D32" stroke-miterlimit="10"/>
<path d="M105.931 45.6117L59.6532 54.6669C59.6719 54.2383 59.6326 53.7985 59.5279 53.3605C59.5241 53.3419 59.5185 53.3233 59.5148 53.3065L102.612 33.7815C102.612 33.7815 102.615 33.7704 102.617 33.7648C103.726 34.3425 105.656 35.6377 106.65 38.0697C108.043 41.4764 106.554 44.555 105.931 45.6117Z" fill="#323338" stroke="#2C2D32" stroke-miterlimit="10"/>
<path d="M102.617 33.7648C102.617 33.7648 102.613 33.7759 102.612 33.7815L59.5148 53.3065C59.4063 52.8686 59.2399 52.4623 59.0248 52.0896L96.1195 24.3424L96.1888 24.2902C97.0884 24.3778 99.2655 24.7468 100.975 26.4986C102.808 28.3789 103.414 31.1501 102.617 33.7648Z" fill="#323338" stroke="#2C2D32" stroke-miterlimit="10"/>
<path d="M95.9307 24.2678C95.9756 24.2716 96.0298 24.2753 96.0934 24.2809C96.1083 24.2809 96.1233 24.2827 96.1401 24.2846H96.142C96.157 24.2846 96.1719 24.2883 96.1888 24.2902" stroke="#2C2D32" stroke-miterlimit="10"/>
<path d="M102.606 33.8002C102.606 33.8002 102.608 33.8002 102.608 33.7964C102.61 33.7909 102.612 33.7871 102.612 33.7815" stroke="#2C2D32" stroke-miterlimit="10"/>
<path d="M96.1401 24.2846C96.1345 24.3032 96.127 24.3237 96.1196 24.3424L59.0248 52.0896C58.8041 51.7057 58.5329 51.359 58.2224 51.0571L86.8594 17.2644C89.0103 15.7773 91.8739 15.7978 93.9668 17.3073C96.1401 18.8764 97.0304 21.7259 96.1401 24.2846Z" fill="#323338" stroke="#2C2D32" stroke-miterlimit="10"/>
<path d="M86.8594 17.2644C86.837 17.2775 86.8164 17.2924 86.7939 17.3073" stroke="#2C2D32" stroke-miterlimit="10"/>
<path d="M96.1195 24.3424C96.112 24.3666 96.1046 24.389 96.0952 24.4132" stroke="#2C2D32" stroke-miterlimit="10"/>
<path d="M86.893 17.2234L86.8594 17.2626L58.2224 51.0571C57.9848 50.826 57.7248 50.621 57.4462 50.444L78.0668 9.51183L78.0743 9.49692C80.2177 8.16817 82.9111 8.19799 84.8824 9.56215C87.2316 11.1891 88.1312 14.4206 86.893 17.2234Z" fill="#323338" stroke="#2C2D32" stroke-miterlimit="10"/>
<path d="M58.2224 51.0571L58.142 51.1522" stroke="#2C2D32" stroke-miterlimit="10"/>
<path d="M78.0743 9.49692C78.0743 9.49692 78.0687 9.49879 78.0668 9.50065C78.0331 9.52115 78.0013 9.54165 77.9677 9.56215" stroke="#2C2D32" stroke-miterlimit="10"/>
<path d="M78.0668 9.50065V9.51183L57.4461 50.444C57.0496 50.1943 56.6157 50.0005 56.1575 49.8756L67.1327 4.91991C67.1813 4.87705 67.2318 4.83605 67.2823 4.79878C69.1022 3.36939 71.5187 2.88299 73.6509 3.57812C76.2002 4.40369 77.9565 6.78352 78.0668 9.50065Z" fill="#323338" stroke="#2C2D32" stroke-miterlimit="10"/>
<path d="M109.128 51.4839C109.1 53.9215 107.777 56.1671 105.673 57.3617L59.3165 56.2119C59.339 56.156 59.3595 56.1 59.3801 56.0423C59.5372 55.6062 59.6307 55.1421 59.6532 54.6669L105.931 45.6117L105.946 45.608C105.946 45.608 105.963 45.6191 105.976 45.6266C106.395 45.9061 109.169 47.9002 109.128 51.4839Z" fill="#323338" stroke="#2C2D32" stroke-miterlimit="10"/>
<path d="M57.4461 50.444L57.3788 50.5763" stroke="#2C2D32" stroke-miterlimit="10"/>
<path d="M56.1575 49.8756L56.1163 50.0415" stroke="#2C2D32" stroke-miterlimit="10"/>
</svg>
