<svg width="123" height="88" viewBox="0 0 123 88" fill="none" xmlns="http://www.w3.org/2000/svg">
<g clip-path="url(#clip0_14_75)">
<path d="M65.6464 60.2256C65.6217 60.7491 65.5188 61.2604 65.3459 61.7409C65.3233 61.8045 65.3006 61.8661 65.2759 61.9277C64.6625 63.4554 63.3389 64.6688 61.6119 65.0754C59.0389 65.6832 56.4658 64.2869 55.5292 61.899C55.5066 61.8415 55.484 61.784 55.4634 61.7245C55.4016 61.552 55.3481 61.3713 55.3049 61.1885C55.2822 61.0941 55.2637 60.9996 55.2472 60.9052C55.2308 60.8128 55.2164 60.7204 55.204 60.628C55.1958 60.5623 55.1896 60.4945 55.1834 60.4288C55.1772 60.357 55.1731 60.2831 55.1711 60.2112C55.167 60.1619 55.1649 60.1126 55.1649 60.0634C55.1567 59.6671 55.1958 59.2769 55.2781 58.8991C55.2843 58.8663 55.2925 58.8314 55.3008 58.7985C55.4222 58.275 55.626 57.776 55.8977 57.3202C55.9162 57.2914 55.9327 57.2606 55.9533 57.2319C56.1982 56.8377 56.4946 56.4763 56.8363 56.1601L56.8425 56.1539C57.0978 55.9157 57.3777 55.7022 57.6824 55.5195C57.6947 55.5112 57.7071 55.5051 57.7194 55.4989C58.1311 55.2505 58.584 55.0575 59.0718 54.9302C59.1006 54.922 59.1294 54.9158 59.1583 54.9076C59.1727 54.9035 59.1871 54.9014 59.2035 54.8973C59.5555 54.8152 59.9075 54.77 60.2554 54.7597C60.3007 54.7577 60.346 54.7577 60.3892 54.7577C60.8729 54.7556 61.3443 54.8213 61.7972 54.9466C62.3015 55.0842 62.779 55.2977 63.2154 55.5728C63.5221 55.7679 63.8083 55.9938 64.0697 56.2484C64.4114 56.581 64.7099 56.9629 64.9528 57.3859C65.1895 57.7965 65.3727 58.2442 65.4921 58.7267C65.4962 58.7452 65.5024 58.7657 65.5065 58.7862C65.6217 59.2687 65.665 59.7533 65.6444 60.2256H65.6464Z" fill="#19191D" fill-opacity="0.4" stroke="#2C2D32" stroke-miterlimit="10"/>
<path d="M55.165 60.0629C55.165 60.1121 55.1671 60.1614 55.1712 60.2107L4.16387 50.2183C4.16387 50.2183 4.14535 50.2307 4.13094 50.2389C3.60197 49.4033 1.64664 45.9171 3.23561 42.0265C4.47672 38.988 7.09481 37.6227 8.03954 37.208H8.04571L55.2782 58.8988C55.1959 59.2765 55.1568 59.6666 55.165 60.0629Z" fill="#19191D" fill-opacity="0.4" stroke="#2C2D32" stroke-miterlimit="10"/>
<path d="M8.04433 37.2059H8.04163" stroke="#2C2D32" stroke-miterlimit="10"/>
<path d="M55.9533 57.2317C55.9327 57.2604 55.9163 57.2912 55.8977 57.3199C55.626 57.7757 55.4223 58.2746 55.3008 58.7982C55.2926 58.831 55.2844 58.8659 55.2782 58.8988L8.04573 37.21C8.04573 37.21 8.04367 37.208 8.04367 37.2059C7.15039 34.3152 7.8152 31.2458 9.84051 29.1661C11.7547 27.2013 14.2019 26.8153 15.159 26.727C15.1775 26.7249 15.1961 26.7229 15.2125 26.7229L55.9533 57.2317Z" fill="#19191D" fill-opacity="0.4" stroke="#2C2D32" stroke-miterlimit="10"/>
<path d="M15.3913 26.7085C15.3419 26.7126 15.2824 26.7167 15.2125 26.7229" stroke="#2C2D32" stroke-miterlimit="10"/>
<path d="M56.8363 56.16C56.4946 56.4761 56.1982 56.8375 55.9533 57.2317L15.2125 26.7229C15.1961 26.7229 15.1775 26.7249 15.159 26.727C14.1813 23.9102 15.159 20.769 17.5507 19.0403C19.8538 17.3773 23.005 17.3547 25.374 18.991L56.8363 56.16Z" fill="#19191D" fill-opacity="0.4" stroke="#2C2D32" stroke-miterlimit="10"/>
<path d="M25.4459 19.0402C25.4213 19.0238 25.3987 19.0074 25.374 18.991" stroke="#2C2D32" stroke-miterlimit="10"/>
<path d="M15.2082 26.8684C15.1898 26.8213 15.1733 26.7741 15.1589 26.727" stroke="#2C2D32" stroke-miterlimit="10"/>
<path d="M57.7193 55.4989C57.707 55.505 57.6946 55.5112 57.6823 55.5194C57.3776 55.7021 57.0977 55.9156 56.8425 56.1538L56.8363 56.16L25.3741 18.991L25.337 18.9479C23.9745 15.86 24.9645 12.3 27.5496 10.5077C29.719 9.00481 32.6829 8.97196 35.0416 10.4358L35.0499 10.4522L57.7193 55.4989Z" fill="#19191D" fill-opacity="0.4" stroke="#2C2D32" stroke-miterlimit="10"/>
<path d="M35.0416 10.4358C35.0416 10.4358 35.0478 10.4379 35.0498 10.4399C35.0868 10.4624 35.1217 10.485 35.1587 10.5075" stroke="#2C2D32" stroke-miterlimit="10"/>
<path d="M56.976 56.3259L56.8363 56.16" stroke="#2C2D32" stroke-miterlimit="10"/>
<path d="M59.158 54.9076C59.1292 54.9158 59.1003 54.9219 59.0715 54.9302C58.5837 55.0574 58.1309 55.2504 57.7193 55.4989L35.0498 10.4522V10.4399C35.1712 7.44652 37.1039 4.82474 39.9093 3.91523C42.3216 3.1289 45.0611 3.71608 47.0823 5.39139L59.158 54.9076Z" fill="#19191D" fill-opacity="0.4" stroke="#2C2D32" stroke-miterlimit="10"/>
<path d="M60.3888 4.12875V54.7577C60.3456 54.7577 60.3003 54.7577 60.255 54.7598C59.9072 54.77 59.5552 54.8152 59.2033 54.8973C59.1868 54.9014 59.1724 54.9035 59.158 54.9076L47.0823 5.39344C48.3255 3.15559 50.5586 1.58908 53.1438 1.29549C55.8113 0.993692 58.522 2.08182 60.3785 4.11848C60.3826 4.12259 60.3847 4.12464 60.3888 4.12875Z" fill="#19191D" fill-opacity="0.4" stroke="#2C2D32" stroke-miterlimit="10"/>
<path d="M55.5292 61.8983L4.4643 63.1671C2.14878 61.8511 0.693604 59.3771 0.66273 56.6917C0.617449 52.7436 3.66982 50.5468 4.13086 50.2389C4.14527 50.2307 4.15556 50.2245 4.1638 50.2183L55.1711 60.2107C55.1732 60.2825 55.1773 60.3564 55.1834 60.4283C55.1896 60.494 55.1958 60.5618 55.204 60.6275C55.2164 60.7198 55.2287 60.8122 55.2473 60.9046C55.2637 60.9991 55.2822 61.0935 55.3049 61.1879C55.3481 61.3707 55.4016 61.5513 55.4634 61.7238C55.484 61.7833 55.5066 61.8408 55.5292 61.8983Z" fill="#19191D" fill-opacity="0.4" stroke="#2C2D32" stroke-miterlimit="10"/>
<path d="M55.4343 58.9705L55.2782 58.8988" stroke="#2C2D32" stroke-miterlimit="10"/>
<path d="M8.03937 37.2079L7.9613 37.171" stroke="#2C2D32" stroke-miterlimit="10"/>
<path d="M57.8158 55.6915L57.7192 55.4989" stroke="#2C2D32" stroke-miterlimit="10"/>
<path d="M59.2052 55.1022L59.158 54.9076" stroke="#2C2D32" stroke-miterlimit="10"/>
<path d="M60.3888 54.9319V54.7577" stroke="#2C2D32" stroke-miterlimit="10"/>
<path d="M74.041 5.28668C73.9855 5.32774 73.9299 5.37291 73.8764 5.41808L61.7986 54.9466C61.3458 54.8213 60.8745 54.7556 60.3908 54.7577V4.12874C60.3908 4.12874 60.3846 4.12259 60.3805 4.11848C62.2288 2.166 64.8901 1.11688 67.6132 1.41663C70.1798 1.69995 72.5179 3.14943 74.0431 5.28668H74.041Z" fill="#19191D" fill-opacity="0.4" stroke="#2C2D32" stroke-miterlimit="10"/>
<path d="M15.2122 26.7227L15.1775 26.6962" stroke="#2C2D32" stroke-miterlimit="10"/>
<path d="M116.573 50.2491L65.6456 60.225C65.6662 59.7528 65.623 59.2683 65.5077 58.7858C65.5036 58.7653 65.4974 58.7448 65.4933 58.7263L112.919 37.2162C112.919 37.2162 112.923 37.2039 112.925 37.1977C114.146 37.8342 116.27 39.261 117.363 41.9403C118.896 45.6933 117.258 49.085 116.573 50.2491Z" fill="#19191D" fill-opacity="0.4" stroke="#2C2D32" stroke-miterlimit="10"/>
<path d="M112.925 37.1977C112.925 37.1977 112.921 37.21 112.919 37.2162L65.4932 58.7263C65.3739 58.2438 65.1907 57.7963 64.954 57.3856L105.775 26.8173L105.851 26.7598C106.841 26.8563 109.237 27.2628 111.118 29.1927C113.135 31.2643 113.802 34.3172 112.925 37.1977Z" fill="#19191D" fill-opacity="0.4" stroke="#2C2D32" stroke-miterlimit="10"/>
<path d="M105.567 26.7352C105.616 26.7393 105.676 26.7434 105.746 26.7495C105.762 26.7495 105.779 26.7516 105.797 26.7536H105.799C105.816 26.7536 105.832 26.7577 105.851 26.7598" stroke="#2C2D32" stroke-miterlimit="10"/>
<path d="M112.913 37.2359C112.913 37.2359 112.915 37.2359 112.915 37.232C112.917 37.2261 112.919 37.2221 112.919 37.2162" stroke="#2C2D32" stroke-miterlimit="10"/>
<path d="M105.798 26.7537C105.792 26.7742 105.783 26.7968 105.775 26.8173L64.954 57.3856C64.7112 56.9627 64.4127 56.5808 64.071 56.2482L95.5848 19.0197C97.9517 17.3814 101.103 17.404 103.406 19.067C105.798 20.7956 106.777 23.9348 105.798 26.7537Z" fill="#19191D" fill-opacity="0.4" stroke="#2C2D32" stroke-miterlimit="10"/>
<path d="M95.5846 19.0197C95.5599 19.0341 95.5373 19.0505 95.5127 19.0669" stroke="#2C2D32" stroke-miterlimit="10"/>
<path d="M105.775 26.8173C105.767 26.844 105.759 26.8686 105.748 26.8952" stroke="#2C2D32" stroke-miterlimit="10"/>
<path d="M95.6217 18.9746L95.5847 19.0177L64.071 56.2482C63.8096 55.9936 63.5235 55.7678 63.2168 55.5728L85.9089 10.4789L85.9171 10.4625C88.2759 8.99865 91.2397 9.0315 93.4091 10.5344C95.9943 12.3267 96.9843 15.8867 95.6217 18.9746Z" fill="#19191D" fill-opacity="0.4" stroke="#2C2D32" stroke-miterlimit="10"/>
<path d="M64.0709 56.2482L63.9825 56.3527" stroke="#2C2D32" stroke-miterlimit="10"/>
<path d="M85.9169 10.4625C85.9169 10.4625 85.9107 10.4645 85.9087 10.4666C85.8717 10.4891 85.8368 10.5117 85.7998 10.5342" stroke="#2C2D32" stroke-miterlimit="10"/>
<path d="M85.9088 10.4666V10.4789L63.2167 55.5728C62.7804 55.2977 62.3029 55.0841 61.7986 54.9466L73.8763 5.42013C73.9298 5.37291 73.9854 5.32774 74.041 5.28668C76.0437 3.71197 78.7029 3.17611 81.0493 3.94191C83.8547 4.85143 85.7874 7.47321 85.9088 10.4666Z" fill="#19191D" fill-opacity="0.4" stroke="#2C2D32" stroke-miterlimit="10"/>
<path d="M120.09 56.7184C120.059 59.4038 118.604 61.8778 116.288 63.1938L65.275 61.9271C65.2997 61.8655 65.3224 61.8039 65.345 61.7402C65.5179 61.2598 65.6208 60.7486 65.6455 60.225L116.573 50.2491L116.589 50.245C116.589 50.245 116.608 50.2573 116.622 50.2656C117.083 50.5735 120.135 52.7703 120.09 56.7184Z" fill="#19191D" fill-opacity="0.4" stroke="#2C2D32" stroke-miterlimit="10"/>
<path d="M63.2167 55.5728L63.1427 55.7183" stroke="#2C2D32" stroke-miterlimit="10"/>
<path d="M61.7986 54.9466L61.7534 55.129" stroke="#2C2D32" stroke-miterlimit="10"/>
</g>
<defs>
<clipPath id="clip0_14_75">
<rect width="122.15" height="87.0321" fill="white"/>
</clipPath>
</defs>
</svg>
