<?xml version="1.0" encoding="UTF-8"?>
<svg id="Layer_1" data-name="Layer 1" xmlns="http://www.w3.org/2000/svg" viewBox="0 0 581.24 568.33">
  <defs>
    <style>
      .cls-1, .cls-2, .cls-3, .cls-4, .cls-5, .cls-6, .cls-7, .cls-8, .cls-9, .cls-10, .cls-11, .cls-12, .cls-13, .cls-14, .cls-15, .cls-16 {
        stroke: #2c2d32;
        stroke-miterlimit: 10;
      }

      .cls-1, .cls-2, .cls-3, .cls-5, .cls-6, .cls-8, .cls-13, .cls-14, .cls-16 {
        fill: #383942;
      }

      .cls-1, .cls-9 {
        stroke-width: 1.15px;
      }

      .cls-2, .cls-10 {
        stroke-width: 1.16px;
      }

      .cls-3, .cls-12 {
        stroke-width: 1.14px;
      }

      .cls-4, .cls-7, .cls-9, .cls-10, .cls-11, .cls-12, .cls-15 {
        fill: none;
      }

      .cls-4, .cls-16 {
        stroke-width: 1.28px;
      }

      .cls-5, .cls-7 {
        stroke-width: 1.01px;
      }

      .cls-8, .cls-15 {
        stroke-width: 1.34px;
      }

      .cls-13 {
        stroke-width: 1.11px;
      }

      .cls-14 {
        stroke-width: 1.06px;
      }
    </style>
  </defs>
  <g>
    <g>
      <path class="cls-6" d="M265.24,287.14c.01.18.01.37.03.55L17.51,239.03s-.09.06-.16.1c-2.57-4.07-12.07-21.05-4.35-40,6.03-14.8,18.75-21.45,23.34-23.47h.03s229.3,105.57,229.3,105.57c-.34,1.69-.5,3.43-.46,5.19,0,.24.01.48.03.72Z"/>
      <path class="cls-11" d="M265.3,286.98c0,.24.01.48.03.72h-.06c-.02-.19-.02-.38-.03-.56-.02-.24-.03-.48-.03-.72-.04-1.76.12-3.5.46-5.19l.18.08c-.4,1.84-.59,3.74-.55,5.67Z"/>
      <path class="cls-11" d="M36.36,175.66h-.01"/>
      <path class="cls-6" d="M268.83,272.96s-.04.07-.06.1c-1.32,2.22-2.31,4.65-2.9,7.2-.04.16-.08.33-.11.49-.03.16-.07.32-.09.48L36.37,175.67s-.01-.01-.01-.02c-4.34-14.08-1.11-29.03,8.73-39.16,9.3-9.57,21.19-11.45,25.84-11.88.09,0,.18-.02.26-.02l197.64,148.37Z"/>
      <path class="cls-11" d="M269.13,273.19c-.1.14-.18.29-.27.43-1.32,2.22-2.31,4.65-2.9,7.2-.04.16-.08.33-.11.49l-.18-.08c.02-.16.06-.32.09-.48.03-.16.07-.33.11-.49.59-2.55,1.58-4.98,2.9-7.2.02-.03.04-.06.06-.1l.3.23Z"/>
      <path class="cls-11" d="M72.06,124.53c-.24.02-.53.04-.87.07"/>
      <path class="cls-6" d="M273.12,267.61c-1.57,1.49-2.94,3.18-4.08,5.02-.08.11-.14.22-.21.33L71.19,124.59c-.08,0-.17.01-.26.02-4.75-13.72,0-29.02,11.62-37.44,11.19-8.1,26.5-8.21,38.01-.24l152.56,180.68Z"/>
      <path class="cls-11" d="M273.42,267.97c-1.66,1.54-3.1,3.3-4.29,5.22l-.3-.23c.07-.11.13-.22.21-.33,1.14-1.84,2.51-3.53,4.08-5.02l.3.36Z"/>
      <path class="cls-11" d="M120.91,87.18c-.12-.08-.23-.16-.35-.24"/>
      <path class="cls-11" d="M71.17,125.31c-.09-.23-.17-.46-.24-.69"/>
      <path class="cls-6" d="M277.47,264.27s-.02.01-.03.02c-1.48.89-2.84,1.93-4.08,3.09l-.03.03c-.07.07-.14.13-.21.2L120.56,86.93l-.18-.21c-6.62-15.04-1.81-32.38,10.75-41.11,10.54-7.32,24.94-7.48,36.4-.35l.04.08,109.9,218.93Z"/>
      <path class="cls-11" d="M277.71,264.75c-.06.03-.12.06-.18.1-1.48.89-2.84,1.93-4.08,3.09l-.03.03-.3-.36c.07-.07.14-.13.21-.2l.03-.03c1.24-1.16,2.6-2.2,4.08-3.09,0-.01.02-.01.03-.02l.24.48Z"/>
      <path class="cls-11" d="M167.53,45.27s.03.01.04.02c.18.11.35.22.53.33"/>
      <path class="cls-6" d="M284.57,261.32c-.13.04-.25.06-.38.1-2.37.62-4.57,1.56-6.57,2.77-.05.03-.1.05-.15.08L167.57,45.34v-.06c.59-14.58,9.98-27.35,23.61-31.78,11.72-3.83,25.03-.97,34.85,7.19h0s58.54,240.63,58.54,240.63Z"/>
      <path class="cls-11" d="M284.7,261.87c-.14.04-.28.07-.42.11-2.37.62-4.57,1.56-6.57,2.77l-.24-.48s.1-.05.15-.08c2-1.21,4.2-2.15,6.57-2.77.13-.04.25-.06.38-.1l.13.55Z"/>
      <path class="cls-6" d="M290.68,14.54v246.04h-.09c-.21,0-.43,0-.65.01-1.69.05-3.4.27-5.11.67-.08.02-.15.03-.22.05-.01,0-.03.01-.04.01L226.03,20.7h0c6.04-10.9,16.89-18.53,29.45-19.96,12.96-1.47,26.13,3.83,35.15,13.75l.05.05Z"/>
      <path class="cls-11" d="M290.68,260.58v.56c-.21,0-.43,0-.65.01-1.69.05-3.4.27-5.11.67-.08.02-.15.03-.22.05l-.13-.55s.03-.01.04-.01c.07-.02.14-.03.22-.05,1.71-.4,3.42-.62,5.11-.67.22-.01.44-.01.65-.01h.09Z"/>
      <path class="cls-6" d="M267.07,295.92l-248.1,6.18s-.08-.05-.12-.07c-11.18-6.43-18.2-18.44-18.35-31.47-.22-19.23,14.61-29.93,16.85-31.43.07-.04.12-.07.16-.1l247.76,48.66c0,.17.02.34.03.51.03.32.06.65.1.97.02.19.05.37.09.56,0,.05,0,.09.02.14.03.23.07.46.11.69,0,.02,0,.05,0,.07,0,.08.02.15.03.23.02.07.02.14.04.22.08.46.17.92.28,1.38.21.89.47,1.77.77,2.61.1.29.21.57.32.85Z"/>
      <path class="cls-11" d="M265.49,289.73c-.04-.19-.07-.37-.09-.56-.04-.32-.07-.65-.1-.97-.01-.17-.03-.34-.03-.51h.06c.01.36.03.72.06,1.07.03.32.06.65.1.97Z"/>
      <line class="cls-11" x1="36.34" y1="175.67" x2="35.96" y2="175.49"/>
      <path class="cls-6" d="M357.01,20.18c-.27.2-.54.42-.8.64h0s-58.56,240.74-58.56,240.74c-.07-.02-.14-.04-.21-.06h-.01c-2.17-.6-4.43-.92-6.75-.92V14.54l-.05-.05c8.98-9.51,21.91-14.62,35.14-13.16,12.47,1.38,23.83,8.44,31.24,18.85Z"/>
      <path class="cls-11" d="M297.65,261.56l-.12.5h-.01c-2.2-.61-4.49-.93-6.84-.92v-.56c2.32,0,4.58.32,6.75.92h.01c.07.02.14.04.21.06Z"/>
      <line class="cls-11" x1="71.19" y1="124.6" x2="71.02" y2="124.47"/>
    </g>
    <g>
      <path class="cls-6" d="M563.65,239.18l-247.43,48.59c.08-1.86-.04-3.75-.39-5.65-.01-.05-.02-.11-.03-.16-.01-.04-.01-.07-.02-.11,0-.01,0-.02-.01-.03,0-.04-.01-.08-.02-.12h0c-.05-.42-.14-.83-.24-1.24h0s230.39-104.76,230.39-104.76c.01-.03.02-.06.03-.09,5.93,3.1,16.25,10.05,21.56,23.1,7.45,18.28-.51,34.8-3.84,40.47Z"/>
      <path class="cls-11" d="M315.75,281.69c-.06-.31-.13-.62-.2-.93-.02-.1-.05-.2-.07-.29h.03c.1.4.19.81.24,1.22Z"/>
      <path class="cls-6" d="M545.93,175.61s-.02.06-.03.09l-230.39,104.75c0-.08-.03-.17-.05-.25-.02-.1-.05-.2-.07-.29-.54-2.18-1.34-4.21-2.37-6.09l198.17-148.77.37-.28c4.81.47,16.45,2.45,25.59,11.85,9.8,10.09,13.04,24.96,8.78,38.99Z"/>
      <path class="cls-11" d="M315.51,280.45h0s-.03.02-.03.02c-.58-2.35-1.47-4.53-2.62-6.53l.16-.12c1.03,1.88,1.83,3.91,2.37,6.09.02.09.05.19.07.29.02.08.04.17.05.25Z"/>
      <path class="cls-11" d="M510.18,124.66c.24.02.53.04.87.07.08,0,.16.01.25.02h.01c.08,0,.16.02.25.03"/>
      <path class="cls-11" d="M545.87,175.81s.01,0,.01-.02c0-.03.02-.05.02-.08"/>
      <path class="cls-6" d="M511.3,124.74c-.03.1-.07.21-.11.31l-198.17,148.77c-.08-.15-.17-.3-.25-.44-1.11-1.93-2.45-3.69-3.99-5.23l152.9-181.08h0c11.5-7.98,26.81-7.87,38,.23,11.62,8.42,16.38,23.71,11.62,37.44Z"/>
      <path class="cls-11" d="M313.02,273.82l-.16.12c-1.18-2.06-2.63-3.92-4.29-5.54l.21-.25c1.54,1.54,2.88,3.3,3.99,5.23.08.14.17.29.25.44Z"/>
      <path class="cls-11" d="M461.68,87.08c-.12.07-.23.15-.35.23"/>
      <path class="cls-11" d="M511.19,125.06c-.04.13-.08.25-.13.38"/>
      <path class="cls-6" d="M461.86,86.85l-.18.21h0s-152.9,181.09-152.9,181.09c-.09-.11-.2-.21-.3-.31-1.19-1.16-2.48-2.2-3.87-3.1l110.06-219.27.04-.08c11.46-7.13,25.86-6.97,36.4.35,12.56,8.73,17.37,26.07,10.75,41.11Z"/>
      <path class="cls-11" d="M308.78,268.15l-.21.25c-1.27-1.24-2.66-2.34-4.15-3.29l.19-.37c1.39.9,2.68,1.94,3.87,3.1.1.1.21.2.3.31Z"/>
      <path class="cls-11" d="M414.71,45.4s-.03.01-.04.02c-.18.11-.35.22-.53.33"/>
      <path class="cls-6" d="M414.67,45.41v.06l-110.06,219.27c-.09-.07-.19-.13-.28-.19-2.06-1.3-4.31-2.32-6.68-2.99l58.56-240.73h0c.26-.23.53-.45.8-.65,9.73-7.67,22.65-10.28,34.05-6.55,13.63,4.43,23.02,17.2,23.61,31.78Z"/>
      <path class="cls-11" d="M304.61,264.74l-.19.37c-2.12-1.34-4.44-2.38-6.89-3.05l.12-.5c2.37.67,4.62,1.69,6.68,2.99.09.06.19.12.28.19Z"/>
      <path class="cls-6" d="M580.74,270.69c-.15,12.94-7.07,24.87-18.11,31.32-.12.08-.24.15-.36.22h-.4s-206.52-5.15-206.52-5.15l-8.21-.18h-.44s-32.66-.71-32.66-.71c0-.01.01-.01.01-.02.1-.22.19-.44.28-.67.12-.3.23-.6.34-.91.84-2.34,1.34-4.83,1.46-7.38.07-1.67-.02-3.38-.3-5.09.35,1.9.47,3.79.39,5.65l247.43-48.59.08-.02s.09.06.16.1c2.24,1.5,17.07,12.2,16.85,31.43Z"/>
    </g>
  </g>
  <g>
    <path class="cls-1" d="M270.72,301.86l-235.06,96.43h-.01l-4.49,1.84c-6.18-2.96-11.07-8.65-13.03-15.84-2.97-10.89,1.42-22.95,10.77-29.04h.01l240.3-55.5c.46.73.96,1.44,1.51,2.11Z"/>
    <path class="cls-13" d="M269.21,299.75l-240.3,55.5h-.01c-5.32-2.23-17.79-8.77-21.25-22.35-2.85-11.2,1.51-23,11.2-30.87.04.02.08.05.12.07l248.1-6.18c-.11-.28-.22-.56-.32-.85-.3-.84-.56-1.72-.77-2.61-.11-.46-.2-.92-.28-1.38-.02-.08-.02-.15-.04-.22,0-.04,0-.08-.01-.12.07.39.15.77.24,1.16.21.89.47,1.77.77,2.61.1.29.21.57.32.85.61,1.55,1.36,3.02,2.23,4.39Z"/>
  </g>
  <g>
    <path class="cls-5" d="M290.68,311.83c-.19.01-.39.01-.58.01l.58,165.5v76.73c-1,1.3-11.07,13.98-28.16,13.52-14.02-.39-22.79-9.34-25.5-12.55-.08-.09-.15-.18-.22-.26h0s.3-1.44.3-1.44l50.06-242.06c1.16.16,2.33.24,3.52.24v.31Z"/>
    <path class="cls-7" d="M290.68,311.83v165.51l-.58-165.5c.19,0,.39,0,.58-.01Z"/>
  </g>
  <path class="cls-14" d="M236.8,554.77h0c.07.09.14.18.22.27-6,3.44-17.76,8.18-31.3,3.05-12.41-4.71-19.3-15.06-22.59-21.65l.09-.23h.01s.01-.01.01-.01l.59-1.36,98.55-224.71c.37.13.74.24,1.11.35,1.2.36,2.42.63,3.67.8l-50.06,242.06-.3,1.43Z"/>
  <path class="cls-2" d="M282.38,310.13l-98.55,224.71-.59,1.36h-.01s-.01.01-.01.01c-10.54,7.01-24,7.4-34.45.74-8.16-5.19-13.53-14.07-14.85-23.96-.02-.12-.04-.24-.05-.36l.48-.68h.01l144.28-203.47c.21.12.42.23.63.34,1.01.51,2.05.95,3.11,1.31Z"/>
  <g>
    <path class="cls-3" d="M278.64,308.48l-144.28,203.47h-.01l-.48.68c0,.12.03.24.05.36-12.2,3.71-25.25.75-34.46-8.24-7.49-7.31-10.39-16.59-11.39-24.13,0-.06-.02-.12-.03-.17l.39-.36,186.95-173.7c1.03.79,2.12,1.49,3.26,2.09Z"/>
    <polyline class="cls-12" points="87.77 480.7 87.78 480.7 88.04 480.45"/>
  </g>
  <path class="cls-16" d="M275.38,306.39l-186.95,173.7c-6.38-.29-18.27-2.35-26.85-12.74-6.88-8.33-9.46-19.37-7.33-29.92l218.29-133.52c.09.1.19.21.3.31.67.66,1.37,1.28,2.11,1.85.14.11.29.22.43.32Z"/>
  <path class="cls-8" d="M272.54,303.91L54.25,437.43l-.48.29c-1.99-.16-3.93-.53-5.79-1.07-8.48-2.45-15.41-8.57-18.22-16.6-2.24-6.42-1.68-13.55,1.28-19.87l.12-.05,4.49-1.84h.01l235.06-96.43c.56.72,1.16,1.4,1.82,2.05Z"/>
  <g>
    <path class="cls-1" d="M561.91,383.66c-1.89,7.03-6.58,12.62-12.54,15.66l-3.94-1.6h-.01l-235.08-95.48c.52-.63,1-1.28,1.45-1.95l239.23,54.37h.01c9.38,6.06,13.81,18.1,10.88,29Z"/>
    <polyline class="cls-9" points="309.03 302.11 309.34 302.24 310.08 302.54"/>
    <path class="cls-13" d="M572.21,332.23c-3.42,13.6-15.86,20.18-21.18,22.43h-.01l-239.23-54.37c.05-.06.1-.13.14-.2.82-1.23,1.52-2.54,2.11-3.9l32.66.7h.44s8.21.19,8.21.19l206.52,5.14c9.04,7.82,13.06,19.18,10.34,30.01Z"/>
  </g>
  <g>
    <path class="cls-5" d="M344.83,554.9h0c-.07.09-.14.18-.22.27-2.7,3.22-11.43,12.2-25.45,12.64-17.09.52-27.21-12.12-28.21-13.42l-.27-77.05v-165.51c.99-.02,1.97-.11,2.94-.24l50.91,241.88.3,1.43Z"/>
    <path class="cls-7" d="M290.68,311.83v165.51l-.58-165.5c.19,0,.39,0,.58-.01Z"/>
  </g>
  <path class="cls-14" d="M398.44,536.38c-3.27,6.61-10.12,16.98-22.52,21.73-13.52,5.18-25.3.48-31.31-2.94.08-.09.15-.18.22-.26h0s-.3-1.44-.3-1.44l-50.91-241.88c1.25-.17,2.47-.45,3.67-.81.37-.11.74-.23,1.11-.36l99.33,224.37.6,1.36s.01,0,.01.01h.01l.09.22Z"/>
  <g>
    <path class="cls-2" d="M447.61,512.4c-.01.12-.02.24-.04.36-1.29,9.9-6.63,18.8-14.77,24.02-10.43,6.69-23.89,6.35-34.45-.62h-.01s-.01-.01-.01-.01l-.6-1.36-99.33-224.37c1.05-.36,2.07-.79,3.06-1.3.01-.01.03-.01.04-.02.22-.1.44-.2.65-.31l144.97,202.93h0l.48.68Z"/>
    <path class="cls-10" d="M302.15,308.79c-.21.11-.43.21-.65.31.21-.11.42-.22.63-.34l.02.03Z"/>
  </g>
  <g>
    <path class="cls-3" d="M493.33,480.06s-.02.11-.03.17c-.97,7.55-3.84,16.84-11.3,24.17-9.18,9.03-22.22,12.03-34.43,8.36.02-.12.03-.24.04-.36l-.48-.68h0l-144.97-202.93c1.18-.59,2.3-1.27,3.35-2.03l187.44,172.94.39.36Z"/>
    <line class="cls-12" x1="305.5" y1="306.76" x2="305.39" y2="306.66"/>
    <polyline class="cls-12" points="493.33 480.07 493.59 480.31 493.6 480.31"/>
  </g>
  <path class="cls-16" d="M519.75,466.87c-8.55,10.42-20.43,12.52-26.81,12.83l-187.44-172.94c1.05-.74,2.03-1.57,2.94-2.46l218.53,132.63c2.17,10.54-.37,21.59-7.22,29.94Z"/>
  <line class="cls-4" x1="305.5" y1="306.76" x2="305.39" y2="306.66"/>
  <line class="cls-4" x1="308.44" y1="304.3" x2="308.22" y2="304.17"/>
  <path class="cls-8" d="M316.13,287.21c-.12,2.55-.62,5.04-1.46,7.38-.11.31-.22.61-.34.91-.09.23-.18.45-.28.67,0,0-.01,0-.01.02-.59,1.36-1.29,2.67-2.11,3.9-.04.07-.09.14-.14.2-.45.67-.93,1.32-1.45,1.95-.08.1-.17.2-.26.3-.51.61-1.06,1.2-1.64,1.76-.91.89-1.89,1.72-2.94,2.46-1.05.76-2.17,1.44-3.35,2.03l-.02-.03c-.21.12-.42.23-.63.34-.01,0-.03,0-.04.02-.99.51-2.01.94-3.06,1.3-.37.13-.74.25-1.11.36-1.2.36-2.42.64-3.67.81-.97.13-1.95.22-2.94.24v-.31c-1.19,0-2.36-.08-3.52-.24-1.25-.17-2.47-.44-3.67-.8-.37-.11-.74-.22-1.11-.35-1.06-.36-2.1-.8-3.11-1.31-.21-.11-.42-.22-.63-.34-1.14-.6-2.23-1.3-3.26-2.09-.14-.1-.29-.21-.43-.32-.74-.57-1.44-1.19-2.11-1.85-.11-.1-.21-.21-.3-.31-.66-.65-1.26-1.33-1.82-2.05-.55-.67-1.05-1.38-1.51-2.11-.87-1.37-1.62-2.84-2.23-4.39-.11-.28-.22-.56-.32-.85-.3-.84-.56-1.72-.77-2.61-.09-.39-.17-.77-.24-1.16-.01-.04-.01-.07-.02-.11,0-.02,0-.05,0-.07-.04-.23-.08-.46-.11-.69-.02-.05-.02-.09-.02-.14-.04-.32-.07-.65-.1-.97-.03-.35-.05-.71-.06-1.06-.02-.24-.03-.48-.03-.72-.04-1.93.15-3.83.55-5.67.03-.16.07-.33.11-.49.59-2.55,1.58-4.98,2.9-7.2.09-.14.17-.29.27-.43,1.19-1.92,2.63-3.68,4.29-5.22l.03-.03c1.24-1.16,2.6-2.2,4.08-3.09.06-.04.12-.07.18-.1,2-1.21,4.2-2.15,6.57-2.77.14-.04.28-.07.42-.11.07-.02.14-.03.22-.05,1.71-.4,3.42-.62,5.11-.67.22-.01.44-.01.65-.01,2.35-.01,4.64.31,6.84.92h.01c2.45.67,4.77,1.71,6.89,3.05,1.49.95,2.88,2.05,4.15,3.29,1.66,1.62,3.11,3.48,4.29,5.54,1.15,2,2.04,4.18,2.62,6.53.02.09.05.19.07.29.07.31.14.62.2.93h0s.02.09.02.13c.01.01.01.02.01.03.01.04.01.07.02.11.01.05.02.11.03.16.28,1.71.37,3.42.3,5.09Z"/>
  <path class="cls-8" d="M551.4,419.46c-2.78,8.04-9.69,14.18-18.16,16.66-1.86.55-3.8.93-5.79,1.09l-.48-.28-218.53-132.63c.58-.56,1.13-1.15,1.64-1.76l234.34,95.18h.01l4.5,1.83c.15-.07.3-.15.44-.23l.56.23.12.04c2.98,6.31,3.57,13.44,1.35,19.87Z"/>
  <line class="cls-15" x1="308.44" y1="304.3" x2="308.22" y2="304.17"/>
  <line class="cls-15" x1="310.34" y1="302.24" x2="310.03" y2="302.11"/>
</svg>