<svg width="21" height="36" viewBox="0 0 21 36" fill="none" xmlns="http://www.w3.org/2000/svg">
<path d="M10.125 31.5C9.495 31.5 9 31.005 9 30.375V10.125C9 9.495 9.495 9 10.125 9C10.755 9 11.25 9.495 11.25 10.125V30.375C11.25 31.005 10.755 31.5 10.125 31.5Z" fill="#FF8300"/>
<path d="M18 16.875C17.8525 16.8768 17.7062 16.8477 17.5706 16.7896C17.435 16.7315 17.313 16.6456 17.2125 16.5375L10.125 9.45004L3.03754 16.5375C2.58754 16.9875 1.89004 16.9875 1.44004 16.5375C0.990039 16.0875 0.990039 15.39 1.44004 14.94L9.31504 7.06504C9.76504 6.61504 10.4625 6.61504 10.9125 7.06504L18.7875 14.94C19.2375 15.39 19.2375 16.0875 18.7875 16.5375C18.5625 16.7625 18.27 16.875 18 16.875Z" fill="#FF8300"/>
</svg>
