<svg width="24" height="24" viewBox="0 0 24 24" fill="none" xmlns="http://www.w3.org/2000/svg">
<g clip-path="url(#clip0_14_44)">
<path fill-rule="evenodd" clip-rule="evenodd" d="M9.23143 8.98616L11.6383 6.80902C12.1918 6.30929 12.8474 5.93592 13.5596 5.7148C14.2718 5.49368 15.0236 5.43009 15.7629 5.52845L18.948 5.95016L23.3674 3.56216C23.4327 3.52682 23.5061 3.50905 23.5803 3.51059C23.6546 3.51213 23.7271 3.53293 23.7909 3.57096C23.8547 3.60898 23.9075 3.66292 23.9441 3.7275C23.9808 3.79207 24 3.86506 24 3.93931V12.0616C24 12.3341 23.9349 12.6027 23.8103 12.8451C23.6857 13.0875 23.5051 13.2967 23.2834 13.4553L20.3074 15.5827L17.0846 12.881C17.7132 12.655 18.2803 12.2852 18.7406 11.801C18.8384 11.6997 18.9153 11.5801 18.9669 11.4491C19.0185 11.3181 19.0438 11.1782 19.0413 11.0374C19.0389 10.8966 19.0087 10.7576 18.9525 10.6285C18.8964 10.4994 18.8153 10.3826 18.714 10.2847C18.6127 10.1869 18.4931 10.11 18.3621 10.0584C18.2311 10.0068 18.0912 9.98152 17.9504 9.98399C17.8096 9.98646 17.6706 10.0166 17.5415 10.0728C17.4123 10.129 17.2955 10.21 17.1977 10.3113C16.8806 10.6422 16.512 10.8547 16.08 10.9387C15.7046 11.0125 15.2263 11.0005 14.6246 10.8153L13.86 10.1724L11.7257 11.9022C11.3364 12.2105 10.8427 12.356 10.3484 12.308C9.85404 12.2601 9.39753 12.0224 9.0747 11.645C8.75187 11.2676 8.58784 10.7798 8.61707 10.284C8.64629 9.78821 8.8665 9.32303 9.23143 8.98616ZM7.79486 7.39531L9.52286 5.83359C8.77996 5.6309 8.00159 5.59403 7.24286 5.72559L4.09714 6.27074L0.644572 4.41245C0.57791 4.37651 0.503056 4.35851 0.427344 4.36021C0.351632 4.36191 0.27766 4.38325 0.212675 4.42213C0.14769 4.46102 0.0939231 4.51612 0.0566411 4.58204C0.0193591 4.64796 -0.000158364 4.72243 9.6776e-07 4.79816V12.0599C9.6776e-07 12.6393 0.286287 13.181 0.764572 13.5067L10.116 19.8822C10.7071 20.285 11.4074 20.4972 12.1228 20.4901C12.8381 20.4831 13.5341 20.2571 14.1171 19.8427L18.4131 16.793L13.836 12.953L13.0731 13.5667C12.2501 14.2282 11.2018 14.5433 10.1505 14.4452C9.09912 14.3471 8.12726 13.8435 7.4408 13.0411C6.75435 12.2388 6.40724 11.2007 6.47301 10.1468C6.53878 9.09295 7.01397 8.10608 7.79486 7.39531Z" fill="white"/>
</g>
<defs>
<clipPath id="clip0_14_44">
<rect width="24" height="24" fill="white"/>
</clipPath>
</defs>
</svg>
