<svg width="36" height="36" viewBox="0 0 36 36" fill="none" xmlns="http://www.w3.org/2000/svg">
<g clip-path="url(#clip0_5_27)">
<path fill-rule="evenodd" clip-rule="evenodd" d="M27 4.5C28.1935 4.5 29.3381 4.97411 30.182 5.81802C31.0259 6.66193 31.5 7.80653 31.5 9V27C31.5 28.1935 31.0259 29.3381 30.182 30.182C29.3381 31.0259 28.1935 31.5 27 31.5H9C7.80653 31.5 6.66193 31.0259 5.81802 30.182C4.97411 29.3381 4.5 28.1935 4.5 27V9C4.5 7.80653 4.97411 6.66193 5.81802 5.81802C6.66193 4.97411 7.80653 4.5 9 4.5H27ZM12 15C11.6022 15 11.2206 15.158 10.9393 15.4393C10.658 15.7206 10.5 16.1022 10.5 16.5V24C10.5 24.3978 10.658 24.7794 10.9393 25.0607C11.2206 25.342 11.6022 25.5 12 25.5C12.3978 25.5 12.7794 25.342 13.0607 25.0607C13.342 24.7794 13.5 24.3978 13.5 24V16.5C13.5 16.1022 13.342 15.7206 13.0607 15.4393C12.7794 15.158 12.3978 15 12 15ZM16.5 13.5C16.1022 13.5 15.7206 13.658 15.4393 13.9393C15.158 14.2206 15 14.6022 15 15V24C15 24.3978 15.158 24.7794 15.4393 25.0607C15.7206 25.342 16.1022 25.5 16.5 25.5C16.8978 25.5 17.2794 25.342 17.5607 25.0607C17.842 24.7794 18 24.3978 18 24V18.51C18.4575 17.994 19.23 17.388 20.0895 17.0205C20.589 16.8075 21.3405 16.7205 21.8625 16.8855C22.0357 16.9294 22.1899 17.0284 22.302 17.1675C22.38 17.2725 22.5 17.5065 22.5 18V24C22.5 24.3978 22.658 24.7794 22.9393 25.0607C23.2206 25.342 23.6022 25.5 24 25.5C24.3978 25.5 24.7794 25.342 25.0607 25.0607C25.342 24.7794 25.5 24.3978 25.5 24V18C25.5 16.995 25.245 16.101 24.714 15.384C24.2254 14.7338 23.5415 14.2571 22.7625 14.0235C21.4095 13.599 19.911 13.8345 18.9105 14.2635C18.5899 14.4007 18.2779 14.557 17.976 14.7315C17.9131 14.3859 17.7309 14.0733 17.4612 13.8482C17.1915 13.6232 16.8513 13.4999 16.5 13.5ZM12 10.5C11.6022 10.5 11.2206 10.658 10.9393 10.9393C10.658 11.2206 10.5 11.6022 10.5 12C10.5 12.3978 10.658 12.7794 10.9393 13.0607C11.2206 13.342 11.6022 13.5 12 13.5C12.3978 13.5 12.7794 13.342 13.0607 13.0607C13.342 12.7794 13.5 12.3978 13.5 12C13.5 11.6022 13.342 11.2206 13.0607 10.9393C12.7794 10.658 12.3978 10.5 12 10.5Z" fill="white"/>
</g>
<defs>
<clipPath id="clip0_5_27">
<rect width="36" height="36" fill="white"/>
</clipPath>
</defs>
</svg>
