<svg width="16" height="16" viewBox="0 0 16 16" fill="none" xmlns="http://www.w3.org/2000/svg">
<path d="M11.5 7.99994C11.8978 7.99994 12.2794 8.15797 12.5607 8.43928C12.842 8.72058 13 9.10211 13 9.49994V9.99994C13 11.9709 11.14 13.9999 8 13.9999C4.86 13.9999 3 11.9709 3 9.99994V9.49994C3 9.10211 3.15804 8.72058 3.43934 8.43928C3.72064 8.15797 4.10218 7.99994 4.5 7.99994H11.5ZM11.5 8.99994H4.5C4.36739 8.99994 4.24021 9.05262 4.14645 9.14639C4.05268 9.24015 4 9.36733 4 9.49994V9.99994C4 11.4379 5.432 12.9999 8 12.9999C10.568 12.9999 12 11.4379 12 9.99994V9.49994C12 9.36733 11.9473 9.24015 11.8536 9.14639C11.7598 9.05262 11.6326 8.99994 11.5 8.99994ZM8 1.49994C8.72935 1.49994 9.42882 1.78967 9.94454 2.3054C10.4603 2.82112 10.75 3.52059 10.75 4.24994C10.75 4.97928 10.4603 5.67876 9.94454 6.19448C9.42882 6.71021 8.72935 6.99994 8 6.99994C7.27065 6.99994 6.57118 6.71021 6.05546 6.19448C5.53973 5.67876 5.25 4.97928 5.25 4.24994C5.25 3.52059 5.53973 2.82112 6.05546 2.3054C6.57118 1.78967 7.27065 1.49994 8 1.49994ZM8 2.49994C7.53587 2.49994 7.09075 2.68431 6.76256 3.0125C6.43437 3.34069 6.25 3.78581 6.25 4.24994C6.25 4.71407 6.43437 5.15919 6.76256 5.48738C7.09075 5.81556 7.53587 5.99994 8 5.99994C8.46413 5.99994 8.90925 5.81556 9.23744 5.48738C9.56563 5.15919 9.75 4.71407 9.75 4.24994C9.75 3.78581 9.56563 3.34069 9.23744 3.0125C8.90925 2.68431 8.46413 2.49994 8 2.49994Z" fill="white"/>
</svg>
