<svg width="36" height="36" viewBox="0 0 36 36" fill="none" xmlns="http://www.w3.org/2000/svg">
<path d="M22.8713 24.165L25.3913 21.645C25.7307 21.3098 26.1601 21.0803 26.6274 20.9845C27.0947 20.8886 27.5798 20.9305 28.0238 21.105L31.095 22.3312C31.5437 22.5133 31.9284 22.8242 32.2007 23.2246C32.4729 23.625 32.6206 24.097 32.625 24.5812V30.2062C32.6224 30.5356 32.5532 30.8611 32.4215 31.163C32.2898 31.4649 32.0983 31.737 31.8587 31.963C31.6191 32.189 31.3362 32.3641 31.027 32.4779C30.7179 32.5917 30.389 32.6417 30.06 32.625C8.53878 31.2862 4.19628 13.0612 3.37503 6.08623C3.33691 5.74371 3.37174 5.397 3.47723 5.06891C3.58273 4.74082 3.7565 4.43878 3.9871 4.18266C4.21771 3.92655 4.49994 3.72217 4.81521 3.58296C5.13048 3.44375 5.47165 3.37287 5.81628 3.37498H11.25C11.7349 3.37642 12.2083 3.52289 12.6092 3.79554C13.0102 4.0682 13.3204 4.45458 13.5 4.90499L14.7263 7.97624C14.9066 8.41844 14.9526 8.90396 14.8585 9.37215C14.7645 9.84034 14.5346 10.2704 14.1975 10.6087L11.6775 13.1287C11.6775 13.1287 13.1288 22.95 22.8713 24.165Z" fill="white"/>
</svg>
