<svg width="51" height="51" viewBox="0 0 51 51" xmlns="http://www.w3.org/2000/svg">
  <path d="M21.828 7.87313C22.0499 8.2281 22.1996 8.62328 22.2687 9.03612C22.3379 9.44897 22.325 9.87138 22.2309 10.2793C22.1368 10.6871 21.9632 11.0725 21.7202 11.4133C21.4771 11.7541 21.1693 12.0437 20.8144 12.2655C16.9329 14.6796 13.8503 18.1857 11.9531 22.3444C13.8716 22.184 15.7939 22.6063 17.4684 23.5563C19.1429 24.5063 20.4917 25.9395 21.3383 27.6686C22.1849 29.3977 22.4899 31.3421 22.2133 33.2473C21.9368 35.1525 21.0916 36.9299 19.7883 38.347C18.485 39.764 16.7844 40.7546 14.9089 41.1892C13.0334 41.6239 11.0703 41.4823 9.27661 40.783C7.48289 40.0837 5.94202 38.8593 4.85559 37.2699C3.76916 35.6805 3.18778 33.8002 3.1875 31.875V31.7889C3.18999 31.5422 3.20062 31.2955 3.21937 31.0494C3.24806 30.5713 3.30544 29.9019 3.417 29.0796C3.64013 27.4444 4.07681 25.1908 4.95975 22.6599C6.71925 17.5918 10.2829 11.3284 17.4356 6.85951C17.7906 6.63766 18.1858 6.48789 18.5986 6.41876C19.0115 6.34964 19.4339 6.3625 19.8417 6.45663C20.2496 6.55075 20.6349 6.72429 20.9758 6.96733C21.3166 7.21038 21.6061 7.51817 21.828 7.87313ZM44.1405 7.87313C44.3624 8.2281 44.5121 8.62328 44.5812 9.03612C44.6504 9.44897 44.6375 9.87138 44.5434 10.2793C44.4493 10.6871 44.2757 11.0725 44.0327 11.4133C43.7896 11.7541 43.4818 12.0437 43.1269 12.2655C39.2453 14.6795 36.1627 18.1856 34.2656 22.3444C36.1841 22.184 38.1064 22.6063 39.7809 23.5563C41.4554 24.5063 42.8042 25.9395 43.6508 27.6686C44.4974 29.3977 44.8024 31.3421 44.5258 33.2473C44.2493 35.1525 43.404 36.9299 42.1008 38.347C40.7975 39.764 39.0969 40.7546 37.2214 41.1892C35.3459 41.6239 33.3828 41.4823 31.5891 40.783C29.7954 40.0837 28.2545 38.8593 27.1681 37.2699C26.0817 35.6805 25.5003 33.8002 25.5 31.875V31.7889C25.5025 31.5422 25.5131 31.2955 25.5319 31.0494C25.5606 30.5713 25.6179 29.9019 25.7295 29.0796C25.9526 27.4444 26.3893 25.1908 27.2722 22.6599C29.0317 17.5918 32.5954 11.3284 39.7481 6.85951C40.1031 6.63766 40.4983 6.48789 40.9111 6.41876C41.324 6.34964 41.7464 6.3625 42.1542 6.45663C42.5621 6.55075 42.9474 6.72429 43.2882 6.96733C43.6291 7.21038 43.9186 7.51817 44.1405 7.87313Z" fill="#ff8300"/>
</svg>
