<svg width="351" height="199" viewBox="0 0 351 199" fill="none" xmlns="http://www.w3.org/2000/svg">
<g clip-path="url(#clip0_15_191)">
<path d="M222.635 103.3L224.218 105.705L226.323 105.538L228.06 104.785L228.292 105.253L229.709 105.63L231.608 103.843L233.173 103.282L236.221 103.501L238.804 104.78L240.444 107.067L241.571 107.111L244.804 109.783L245.33 109.809L246.488 109.183L251.873 113.791L252.557 115.215L252.61 116.577L254.846 120.217L254.947 121.054L254.399 121.86L254.495 122.342L257.745 123.682L259.249 123.805L258.613 126.372L257.136 127.554L258.355 131.725L258.249 133.012L254.873 133.35L253.903 134.563L253.307 136.42L251.978 138.291L251.364 139.859L249.961 140.442L248.908 141.432L249.193 146.662L246.387 148.629L245.282 148.397L244.347 148.808L244.334 150.25L243.26 151.875L240.694 151.459L239.808 151.603L238.462 151.24L237.186 150.434L234.638 149.803L232.704 148.808L227.051 146.938L224.534 145.107L224.13 141.87L224.442 141.051L223.806 140.183L223.043 136.806L222.363 135.72L219.723 135.373L215.359 133.538L212.338 134.348L211.114 135.102L209.474 134.296L208.382 135.803L207.272 135.667L206.72 135.29L205.365 135.487L204.589 134.953L204.413 133.888L203.216 133.376L202.839 132.824L200.953 133.223L197.331 132.487L197.199 131.843L198.309 130.424L197.953 129.71L198.151 129.087L199.4 127.694L201.019 129.201L201.953 129.07L203.33 128.225L203.488 127.379L202.668 123.113L203.646 121.601L205.431 119.998L205.808 118.263L206.615 117.576L207.172 115.28L208.154 114.838L208.864 115.105L209.689 114.842L210.136 114.996L210.676 113.931L212.101 112.818L212.311 109.787L212.824 108.473L214.302 107.518L214.995 106.383L215.272 104.754L216.144 103.843L218.214 103.124L219.872 103.619L221.902 102.778L222.635 103.3Z" fill="#363636"/>
<path d="M65.0683 64.5543L66.0375 64.8697L65.1429 66.7139L65.349 67.809L66.1209 68.0368L67.0199 68.8691L69.6293 68.085L70.9186 68.4135L71.7869 69.9423L75.69 70.4329L76.5013 71.5368L77.8477 72.3165L79.6633 71.1513L80.9746 71.5719L82.4481 71.1119L83.3252 70.2358L84.518 70.3015L86.6187 71.7821L87.9475 71.9354L89.171 71.2784L89.6973 69.6269L91.1182 67.6864L96.565 64.585L99.2752 65.0055L101.547 64.9617L102.047 65.356L101.678 66.1269L101.6 70.2665L102.49 70.9674L105.441 70.0387L108.673 71.0068L106.446 72.3122L106.274 75.1901L105.152 76.4473L101.196 78.585L99.1174 81.3359L97.4289 81.0775L96.2931 82.5581L96.5562 84.4592L95.5169 85.1732L93.1399 86.0931L92.0699 89.6326L86.9388 88.4192L85.8819 88.3535L84.9522 88.8222L84.4128 90.8021L85.3074 92.8215L85.4609 94.6745L84.3865 96.5975L83.0708 97.7452L83.7593 99.6288L83.6892 100.571L81.3868 103.326L80.2466 103.282L77.1592 101.144L75.0629 100.409L73.6639 101.718L73.7429 102.183L73.1903 103.335L73.2736 104.027L74.8042 105.398L75.4532 106.388L77.2118 106.213L78.3827 106.743L78.4397 107.185L79.2554 107.838L80.1545 107.952L80.9 108.534L81.1719 109.599L84.7154 111.417L85.325 112.805L86.816 114.715L90.3113 115.753L90.6797 117.374L91.5743 117.532L92.2365 118.298L92.2058 119.924L92.6838 120.515L92.561 122.074L90.5481 121.671L89.5789 122.07L88.0001 122.149L86.8336 122.933L82.6103 122.771L80.5623 126.113L78.8695 126.047L76.4838 124.124L75.2559 123.888L70.6642 119.683L69.296 119.604L67.7567 119.004L61.2486 115.193L61.3451 113.598L60.3583 112.805L59.8803 111.535L58.9725 110.83L56.9113 110.725L56.5693 111.106L56.8324 112.078L54.2537 112.556L54.644 111.509L54.2449 111.601L53.7231 111.163L54.587 110.83L54.2888 109.327L50.8374 105.481L50.6927 103.317L49.7673 101.758L44.9258 100.768L43.347 99.7777L44.4477 98.2577L44.6977 96.8384L46.0353 96.0193L48.193 94.0086L49.7893 92.0155L50.1752 90.6182L53.3678 87.0568L53.1924 85.6945L51.4733 82.7377L50.8856 80.9811L50.3945 77.9893L49.434 78.2433L48.3464 80.0919L46.9036 79.1238L46.8861 77.7746L44.0794 77.0737L41.6893 75.8866L40.1719 73.3722L43.4654 72.2859L44.9258 72.264L49.8419 75.177L53.4205 75.4792L55.7404 74.9667L56.464 75.8647L57.7051 75.3172L58.8102 75.4223L59.7444 75.1025L61.2837 78.0944L63.9369 80.876L64.1912 81.9229L65.0727 82.3259L66.2086 81.958L65.7437 80.4467L64.757 79.6889L64.2483 78.1294L61.8406 75.361L61.4415 73.9154L59.9592 72.3122L59.9461 69.3466L61.5336 67.1914L65.1429 65.0055L65.0683 64.5543Z" fill="#363636"/>
<path d="M170.101 55.605L170.311 55.6883L170.149 56.6651L170.987 57.1732L172.031 56.6432L173.162 57.3134L174.372 57.1251L176.118 58.9868L177.758 59.346L178.661 59.8979L178.723 60.3053L177.491 61.5712L177.021 66.0875L175.302 68.2252L175.57 69.2502L177.442 71.3003L177.504 71.861L176.868 73.2014L176.57 76.1319L175.14 76.5787L171.588 80.1883L170.759 80.324L169.162 79.2815L167.86 79.3998L167.628 81.3097L167.049 82.2996L165.154 83.789L162.698 85.0374L162.729 86.426L163.251 87.3416L164.22 88.0074L164.992 89.8165L164.729 90.421L163.742 90.1363L162.247 90.9774L162.141 91.6038L162.913 93.207L162.918 94.1926L161.071 95.6338L159.098 97.8416L158.335 99.9924L157.62 100.198L157.291 101.074L159.199 101.885L160.19 103.037L160.988 105.218L160.834 105.937L162.65 107.106L162.567 107.575L161.707 108.964L160.808 108.368L159.918 108.552L159.435 109.87L159.773 110.361L159.501 112.231L158.238 113.445L158.067 114.317L158.427 114.693L158.177 116.967L156.857 118.627L155.282 119.459L153.234 118.741L152.848 118.679L152.046 115.972L151.506 115.42L150.072 114.943L149.287 114.26L147.555 114.746L145.832 113.892L144.358 111.745L143.67 111.863L141.85 110.681L139.995 110.343L139.363 109.66L140.394 108.175L140.56 107.124L140.31 106.681L138.306 106.773L137.648 106.2L136.521 106.791L135.425 106.673L132.399 107.448L131.053 107.382L131.026 106.528L128.965 104.189L125.702 102.358L124.062 100.216L123.273 99.6682L122.672 98.3322L121.694 97.2765L121.663 96.6282L122.777 96.4091L122.496 95.6338L121.773 95.1739L121.518 94.5737L122.027 94.0525L123.185 93.6976L123.904 92.5456L126.014 92.9661L126.47 92.0418L125.987 90.8854L125.329 90.421L126.237 89.5844L129.035 89.7903L131.022 89.1157L131.908 88.4104L132.68 87.6132L133.697 84.871L133.302 83.754L133.482 83.57L133.877 83.1626L135.596 84.3322L137.236 84.5337L138.004 84.9542L139.078 84.871L142.293 83.8503L144.051 82.7114L146.419 82.0149L148.138 81.0994L148.209 78.9705L148.928 77.0562L153.879 70.9235L153.875 67.8704L154.357 66.1795L154.844 65.4786L156.081 65.264L156.787 63.6388L156.532 62.9204L155.006 61.3303L155.62 60.5374L156.331 60.2527L158.129 58.6582L160.988 59.0262L161.733 58.7195L163.018 56.8053L164.917 55.7145L166.702 55.3072L168.04 55.6707L169.062 55.1976L170.101 55.605Z" fill="#363636"/>
<path d="M181.451 74.9054L181.977 75.1376L182.617 76.4035L183.705 76.6707L185.086 77.5775L187.45 77.8929L188.612 79.045L188.989 79.9605L188.906 80.8804L188.34 81.9799L188.279 83.513L189.564 83.1451L190.985 84.0869L192.371 84.468L194.239 84.1964L196.361 83.3816L199.216 84.4066L199.427 85.5018L200.519 87.4774L199.8 89.1901L199.984 89.5844L202.098 90.3641L205.615 90.6532L207.207 91.7615L208.154 90.9073L210.658 89.523L212.395 90.1407L213.259 90.0005L214.982 87.8716L216.377 86.7852L218.973 86.4129L219.824 87.0481L221.635 89.3303L221.166 90.1494L221.35 92.1338L220.894 92.458L219.973 95.9842L219.346 97.1801L218.214 103.124L216.144 103.843L215.272 104.754L214.995 106.383L214.302 107.518L212.825 108.473L212.311 109.787L212.101 112.818L210.676 113.931L210.136 114.996L209.689 114.842L208.864 115.105L208.154 114.838L207.172 115.28L206.615 117.576L205.808 118.263L205.431 119.998L203.646 121.601L202.668 123.113L203.488 127.379L203.33 128.225L201.953 129.07L201.019 129.201L199.401 127.694L197.528 125.246L195.774 125.399L194.419 126.556L192.998 127.248L192.73 127.76L189.178 128.921L190.116 131.584L189.972 131.926L186.384 131.234L185.433 132.171L184.183 130.643L183.801 128.842L182.415 127.112L178.236 126.994L174.522 126.411L172.035 126.713L166.672 125.741L162.027 125.793L160.729 124.716L158.409 124.041L156.787 123.901L155.326 124.558L152.932 123.266L151.818 123.029L147.13 123.428L146.191 123.06L146.121 122.618L147.134 121.671L151.708 120.782L152.397 120.353L153.234 118.741L155.282 119.459L156.857 118.627L158.177 116.967L158.427 114.693L158.067 114.317L158.238 113.445L159.501 112.231L159.773 110.361L159.435 109.87L159.918 108.552L160.808 108.368L161.707 108.964L162.567 107.575L162.65 107.106L160.834 105.937L160.988 105.218L160.19 103.037L159.199 101.885L157.291 101.074L157.62 100.198L158.335 99.9924L159.098 97.8416L161.071 95.6338L162.918 94.1926L162.913 93.207L162.141 91.6038L162.247 90.9774L163.742 90.1363L164.729 90.421L164.992 89.8165L164.22 88.0074L163.251 87.3416L162.729 86.426L162.698 85.0374L165.154 83.789L167.049 82.2996L167.628 81.3097L167.86 79.3998L169.162 79.2815L170.759 80.324L171.588 80.1883L175.14 76.5787L176.57 76.1319L177.241 76.3072L178.78 75.5537L181.451 74.9054Z" fill="#363636"/>
<path d="M266.218 120.34L270.196 120.554L271.674 122.092L273.822 121.102L274.796 121.036L274.993 121.246L273.84 122.955L274.485 123.743L274.963 123.748L276.818 122.539L278.717 123.358L279.256 122.271L278.848 121.579L280.401 123.511L280.993 125.482L280.51 126.494L280.348 128.338L281.475 131.422L281.313 133.437L279.879 134.327L277.756 135.071L276.862 137.165L274.963 139.443L274.572 140.393L273.072 141.256L271.156 143.578L270.516 144.967L268.433 146.71L266.784 149.413L266.836 151.914L267.415 153.469L266.301 155.69L266.788 156.163L268.525 156.338L273.287 159.764L272.279 162.887L272.546 164.171L272.38 165.117L272.915 166.23L271.976 170.141L271.397 170.706L269.406 171.298L268.529 172.476L267.327 173.387L265.565 173.519L263.35 172.476L262.797 172.713L263.253 176.949L262.784 179.367L263.398 181.158L264.424 181.763L265.174 183.401L263.845 186.126L263.639 185.929L262.126 186.564L262.157 185.49L259.859 184.663L259.131 183.953L257.491 183.585L256.666 184.093L254.995 183.927L254.171 184.391L253.645 186.025L252.263 186.353L251.127 187.58L250.794 187.488L249.93 188.228L249.505 188.215L249.873 187.181L249.663 186.371L248.737 186.148L248.72 186.647L248.202 186.616L247.509 185.565L246.071 185.25L244.707 184.356L244.654 183.673L244.137 182.884L244.273 180.821L244.624 180.138L244.387 179.656L244.646 177.426L244.229 176.379L242.146 175.03L240.646 174.627L240.383 173.707L239.83 173.628L239.186 174.439L238.278 174.859L238.129 174.386L237.76 174.312L237.375 175.214L237.015 175.118L236.84 175.547L236.414 175.376L235.445 176.554L234.515 176.559L234.318 177.325L233.616 177.062L233.48 177.632L232.695 178.031L230.568 177.606L229.178 179.056L228.516 178.937L227.433 179.971L228.52 176.011L230.766 172.743L231.524 170.829L231.559 169.199L230.95 167.452L231.603 165.489L234.559 162.576L234.41 161.621L235.384 158.428L235.322 157.499L234.647 155.922L233.835 154.967L233.042 154.586L232.524 152.856L232.73 151.927L234.638 149.803L237.186 150.434L238.462 151.24L239.808 151.603L240.694 151.459L243.26 151.875L244.334 150.25L244.347 148.808L245.282 148.397L246.387 148.629L249.193 146.662L248.908 141.432L249.961 140.442L251.364 139.859L251.978 138.291L253.307 136.42L253.903 134.563L254.873 133.35L258.249 133.012L258.355 131.725L257.136 127.554L258.613 126.372L259.249 123.805L260.784 123.283L261.872 122.368L261.271 121.238L261.021 119.928L259.815 118.776L259.534 117.422L259.833 114.522L260.841 113.94L263.595 111.132L263.999 111.434L264.008 112.24L265.521 114.536L264.67 115.661L265.187 118.872L265.7 119.98L266.218 120.34Z" fill="#363636"/>
<path d="M68.5899 0.113174L69.2433 0.651973L70.8528 0.949845L72.2167 1.90917L73.927 2.39978L82.1016 3.91981L84.3382 4.85285L86.3424 4.56374L89.6797 4.94046L90.6709 5.32156L90.9121 5.73332L90.1753 6.7715L90.9121 10.0744L92.6224 11.6426L93.0566 12.764L93.0697 13.7058L92.1005 16.207L92.5785 16.8992L96.1001 18.3359L97.5122 18.4805L98.2271 19.1376L100.67 20.0093L101.564 19.9742L102.639 20.8679L103.529 20.7321L104.797 21.2314L105.507 21.1088L106.345 22.309L109.072 23.7765L109.976 24.8059L110.156 25.7609L112.546 28.2227L114.243 29.401L115.352 30.9999L115.51 31.9505L116.365 33.2646L119.229 34.4955L120.356 35.8009L120.852 36.0725L123.663 36.1864L125.829 37.5049L126.895 37.5093L128.092 38.0919L130.434 39.7433L133.272 40.1069L133.982 41.1407L135.337 41.1144L137.411 42.0518L138.082 43.0725L138.118 45.0744L141.126 46.0994L141.429 46.5287L141.258 48.3203L144.117 51.0493L144.547 52.508L145.643 53.8134L146.209 56.5206L148.081 57.6639L149.515 59.8848L150.783 60.9404L153.91 62.3992L154.69 62.0794L155.006 61.3303L156.532 62.9204L156.787 63.6388L156.081 65.264L154.844 65.4786L154.357 66.1795L153.875 67.8704L153.879 70.9236L148.928 77.0562L148.209 78.9705L148.138 81.0994L146.419 82.0149L144.051 82.7114L142.293 83.8503L139.078 84.871L138.004 84.9542L137.236 84.5337L135.596 84.3322L133.877 83.1626L133.482 83.57L130.162 81.8441L128.474 81.4849L125.066 79.6933L122.703 79.391L120.536 79.851L119.475 79.3954L118.471 79.6363L114.374 77.7702L114.524 75.8165L113.199 74.4236L111.748 72.1764L109.919 71.7602L108.673 71.0068L105.441 70.0387L102.49 70.9674L101.6 70.2665L101.678 66.1269L102.047 65.356L101.547 64.9617L99.2752 65.0055L96.565 64.585L91.1182 67.6864L89.6973 69.6269L89.171 71.2784L87.9475 71.9354L86.6187 71.7821L84.518 70.3015L83.3251 70.2358L82.448 71.1119L80.9745 71.5719L79.6633 71.1513L77.8477 72.3165L76.5013 71.5368L75.69 70.4329L71.7869 69.9423L70.9186 68.4135L69.6292 68.085L67.0199 68.8691L66.1208 68.0368L65.349 67.809L65.1429 66.7139L66.0375 64.8697L65.0683 64.5543L64.0684 64.3353L62.5905 62.9993L62.0204 61.8428L62.3142 58.4786L61.5994 57.8697L61.2836 57.0637L62.3975 55.6839L66.0814 52.4774L67.7259 52.4336L68.9758 53.8003L69.1644 55.0137L69.8704 55.3115L72.7956 54.0018L74.2954 52.749L75.6505 50.8654L76.0628 49.1833L75.1155 45.4599L74.4401 44.6407L74.2691 40.4617L73.3481 39.647L71.9185 39.5243L71.4668 36.7953L71.5764 35.7089L73.1552 34.6269L73.5586 33.5537L73.4446 32.4455L74.0367 29.8259L74.655 29.0856L75.1725 29.0287L75.3962 27.0268L75.1374 25.5813L71.401 25.0162L70.6554 24.0569L69.3968 23.6801L66.3138 24.6876L64.7701 24.5694L62.9501 25.682L62.3274 25.6776L61.2091 26.2515L60.9109 23.6057L61.0424 21.7615L60.2706 20.8985L58.5032 20.0575L57.2358 21.0694L56.1921 21.0956L55.1439 20.1714L53.7318 20.0093L52.0083 18.5725L52.46 16.0888L52.3635 14.3278L53.5388 13.8941L55.5518 13.9555L57.7752 10.7972L57.8279 9.00116L58.6962 6.36849L57.7621 3.99866L57.6349 2.60128L58.1129 1.28714L59.6347 0.704539L61.766 0.524939L62.3054 0.80529L63.3317 2.35598L65.8095 3.07876L66.1998 0.332198L68.5899 0.113174Z" fill="#363636"/>
<path d="M305.179 127.76L309.569 128.242L311.143 127.016L314.309 127.664L317.55 126.582L318.072 126.858L317.625 127.44L317.805 127.69L319.462 128.001L321.743 127.239L323.624 126.004L324.488 125.798L324.962 126.174L325.045 128.189L325.905 128.579L327.54 127.515L329.303 127.024L328.593 132.014L327.58 133.586L326.589 134.182L326.339 135.176L325.791 135.851L325.036 135.032L324.418 134.865L323.729 135.803L323.357 138.322L322.936 139.198L320.888 140.415L319.76 147.836L319.936 150.806L321.361 152.414L322.006 154.043L323.949 155.173L326.992 155.401L328.86 155.87L331.983 157.363L332.435 157.95L330.637 159.873L330.216 160.833L328.812 162.125L325.457 163.895L323.229 166.668L322.857 168.293L321.493 170.071L322.519 172.388L322.295 173.44L324.541 174.399L325.102 174.833L325.457 175.678L326.593 176.037L329.067 177.553L329.286 178.46L328.865 181.071L327.422 185.175L327.996 187.672L327.299 188.316L328.005 192.622L328.931 194.685L328.444 194.689L328.422 195.614L327.255 196.122L327.312 196.731L325.646 196.827L325.435 197.296L324.615 197.226L324.457 196.683L323.107 196.144L322.861 195.495L320.453 194.619L319.116 194.488L317.647 195.382L315.923 195.491L315.121 196.03L314.502 197.077L314.612 198.273L313.875 198.855L312.682 197.73L312.235 197.984L311.687 197.602L310.665 197.638L310.45 195.881L309.104 195.723L308.564 196.174L308.336 195.758L307.253 195.71L307.389 196.157L305.951 196.104L303.144 193.883L302.271 187.453L301.122 187.418L301.135 188.097L299.842 189.976L298.579 190.252L298.197 190.664L296.798 190.778L296.623 188.898L297.206 187.037L299.065 184.128L300.271 183.029L302.74 179.533L306.446 175.906L307.174 174.885L307.542 172.975L306.74 171.985L305.516 171.766L302.175 172.625L299.899 174.123L298.793 173.085L298.368 172.261L298.824 170.352L297.824 168.345L297.763 164.639L296.066 163.413L295.842 162.48L296.802 159.541L296.715 158.187L296.131 157.604L295.807 156.027L296.636 155.489L297.561 155.528L299.232 153.701L297.894 153.281L297.943 151.752L296.513 150.175L296.074 147.665L297.579 145.479L298.245 139.618L299.421 137.244L299.587 134.475L300.214 132.999L298.776 131.462L298.951 130.555L300.227 128.847L298.666 124.681L298.951 121.693L300.482 121.684L302.293 123.099L303.582 124.676L305.385 125.522L305.986 126.38L305.003 127.388L305.179 127.76Z" fill="#363636"/>
<path d="M131.052 107.382L132.399 107.448L135.425 106.673L136.521 106.791L137.648 106.2L138.306 106.773L140.31 106.681L140.56 107.124L140.394 108.175L139.363 109.66L139.995 110.343L141.85 110.681L143.67 111.863L144.358 111.745L145.832 113.892L147.555 114.746L149.287 114.26L150.072 114.943L151.506 115.42L152.046 115.972L152.848 118.679L153.234 118.741L152.397 120.353L151.708 120.782L147.134 121.671L146.121 122.618L146.191 123.06L147.13 123.428L151.818 123.029L152.932 123.266L155.326 124.558L156.787 123.901L158.409 124.041L160.729 124.716L162.027 125.793L166.672 125.741L172.035 126.713L174.522 126.411L178.236 126.994L182.415 127.112L183.801 128.842L184.183 130.643L185.433 132.171L186.384 131.234L189.972 131.926L189.717 132.693L188.345 134.116L186.77 134.699L186.126 134.213L181.894 136.175L181.319 136.823L180.1 137.183L179.876 137.713L178.35 138.317L177.359 140.407L176.543 141.208L174.64 141.594L167.549 142.01L167.132 142.299L167.158 142.785L169.022 143.307L168.163 144.463L167.553 146.154L167.027 145.887L166.141 146.316L164.374 146.557L163.36 146.022L162.953 146.452L162.764 147.179L164.891 149.395L164.04 150.898L162.176 149.444L153.133 144.905L144.02 144.459L143.67 144.581L143.727 145.019L144.222 145.611L143.538 146.846L144.161 147.499L144.183 148.291L143.713 148.76L143.551 149.54L142.828 149.895L142.797 150.394L142.108 151.117L140.135 151.634L138.705 150.793L138.328 150.074L138.433 149.154L135.999 147.385L135.548 146.491L134.627 145.663L128.974 145.895L127.684 145.668L124.54 144.717L124.071 143.683L123.488 143.355L121.659 143.565L119.83 143.315L118.856 143.596L115.559 143.333L115.396 142.698L115.892 142.238L115.532 141.02L116.129 139.351L115.387 137.949L115.659 137.016L115.181 136.556L115.177 136.009L114.629 135.89L114.449 135.536L114.602 134.265L114.133 133.227L114.344 132.333L113.8 132.758L113.752 131.979L114.519 131.343L117.944 131.847L119.084 130.875L120.282 130.656L120.891 129.802L120.216 129.39L118.949 129.276L117.357 128.189L118.528 125.128L120.225 124.076L122.141 124.225L124.952 123.318L128.285 123.161L128.294 122.136L127.5 121.014L125.549 119.814L126.014 116.625L128.079 114.658L128.943 114.312L130 113.094L128.377 112.026L128.487 110.019L127.965 109.467L129.088 108.447L130.689 107.912L131.052 107.382Z" fill="#363636"/>
<path d="M37.602 12.4486L39.0974 12.1376L39.5097 11.7521L40.071 11.9536L41.5577 11.4148L43.3689 11.3535L44.5311 12.545L45.3906 14.0256L44.838 15.3397L44.8775 17.0306L45.4652 17.8278L46.1449 17.9811L44.6144 18.7477L43.9829 19.5844L42.7462 20.0312L41.9743 20.7365L40.8692 23.9911L41.4612 25.4498L42.7549 27.0005L42.8251 28.6301L43.7899 29.7339L44.2328 31.7139L43.2461 33.58L39.4483 34.5306L36.8477 34.6357L31.2518 37.1895L31.7736 39.3447L31.5851 41.2283L31.015 42.5162L30.1861 42.744L30.3878 44.0493L31.9622 45.1269L32.1464 46.6382L34.0629 46.5988L35.1022 47.2646L35.6197 47.9699L35.839 49.1614L34.8128 51.0669L33.6287 52.0306L31.7824 52.2715L30.1949 53.2702L30.5676 55.7364L29.2081 58.3516L28.1819 59.3109L27.9013 60.3535L22.6694 62.7802L22.0598 64.6945L20.8187 65.3647L21.38 66.5825L19.9898 70.5687L19.8626 71.5368L20.1696 72.5618L19.5556 78.2214L21.2265 82.361L21.4326 83.789L21.073 85.5324L19.2925 86.7195L19.8188 90.916L20.3494 91.4592L19.9065 91.998L18.4724 90.7189L17.7137 90.5087L17.8015 89.856L17.4462 88.9404L16.2665 88.1038L13.8764 88.4542L13.2888 88.2089L12.973 87.4073L11.7012 86.6713L11.289 85.2127L9.42515 84.5731L8.67523 83.8372L9.03922 82.9217L8.67084 82.4354L6.45178 82.1157L3.1188 79.0756L0.912898 79.0055L0.40418 78.7296L0.110352 77.9454L0.237531 74.3535L1.78561 71.2871L2.58377 71.0988L2.76796 70.2577L3.43017 70.0694L2.98285 69.6795L2.9697 68.6851L3.5442 67.6338L3.22406 66.8278L3.91258 65.2508L5.36418 63.906L6.81139 64.5368L7.70603 64.5587L8.24106 63.8272L9.14009 63.3059L8.69716 62.3072L8.72347 61.1989L8.13581 60.4586L8.29369 59.6394L8.61822 59.6701L8.74978 60.06L9.5611 60.2133L9.91632 60.7871L10.368 60.6557L10.1663 58.8597L10.4514 58.5618L10.6092 56.5074L11.1004 55.6926L10.982 54.5669L10.1268 54.3566L10.0347 53.6908L9.63565 53.5243L9.55671 52.7928L9.20149 52.4817L9.44708 52.0481L9.29358 51.0493L8.05687 50.3616L7.94285 48.7583L7.97355 48.5087L9.41638 47.9392L9.73652 48.4167L10.3812 48.2809L9.91194 47.3478L10.368 46.5374L10.9425 46.7959L11.0302 46.1914L12.5564 45.0306L12.7406 44.3034L12.3371 44.0011L12.4643 43.3572L13.9422 42.376L14.4509 42.3672L15.1482 41.0312L15.1219 40.1639L15.5736 38.9154L14.3238 37.5356L13.6922 35.3234L13.2712 34.7627L13.4247 33.5844L13.9905 33.6063L14.6351 33.0456L14.9728 31.5694L16.1832 30.8028L16.8673 31.1751L17.569 31.0087L18.6961 31.254L19.1917 30.0581L21.4633 27.9905L22.0422 26.3873L21.9633 24.9899L23.1605 23.4874L24.3929 22.9793L26.6558 23.137L28.3573 21.2183L29.3572 21.0913L30.4273 18.4542L31.2869 17.911L32.2297 16.5181L33.5366 16.1851L33.962 15.4054L34.9663 14.7396L35.0935 14.0781L34.6681 12.6851L36.1679 10.5037L36.817 10.5387L36.9266 11.9886L37.602 12.4486Z" fill="#363636"/>
<path d="M346.372 125.671L347.481 125.82L348.065 125.561L349.906 125.859L350.889 126.586L350.871 127.213L349.823 128.128L350.775 129.631L350.003 131.506L349.012 132.43L348.722 135.409L347.626 136.464L347.008 138.383L345.815 139.364V140.577L345.113 141.182L344.946 141.73L345.24 142.045L344.262 143.876L344.403 144.91L345.275 146.303V147.139L344.42 147.853L344.135 149.211L344.188 149.952L344.872 150.631L345.03 151.371L343.749 154.139L343.666 155.721L342.973 157.074L342.99 159.795L341.868 162.265L343.328 163.557L343.464 164.968L344.223 165.8L345.227 166.138L345.889 165.927L346.258 167.303L347.244 168.223L348.065 168.323L347.573 170.159L348.472 171.109L348.477 172.954L349.867 174.312L349.538 175.398L350.231 177.378L350.314 181.163L349.45 182.945L349.157 185.118L348.328 185.753L347.964 186.708L347.99 188.071L347.236 188.294L347.209 188.785L346.867 188.969L347.113 189.753L346.573 191.198L346.968 193.266L346.451 193.831L346.74 194.19L346.034 195.325L343.723 197.48L343.626 198.522L342.723 198.544L342.254 198.176L341.956 197.703L341.991 196.726L340.877 196.494L339.237 195.509L338.732 194.812L339.122 194.199L337.995 194.059L338.456 193.599L337.592 192.271L337.412 192.758L336.25 193.384L336.452 193.905L335.956 194.212L335.833 194.689L334.93 194.462L334.991 194.01L334.347 193.516L333.189 193.148L333.312 193.384L332.663 193.932L332.794 194.742L332.215 195.96L331.676 196.012L331.5 195.539L331.084 195.495L330.878 196.026L330.404 195.815L330.005 195.084L328.931 194.685L328.005 192.622L327.299 188.316L327.996 187.672L327.422 185.175L328.865 181.071L329.286 178.46L329.067 177.553L326.593 176.037L325.457 175.678L325.102 174.833L324.541 174.399L322.295 173.44L322.519 172.388L321.493 170.071L322.857 168.293L323.229 166.668L325.457 163.895L328.812 162.125L330.216 160.833L330.637 159.873L332.435 157.95L331.983 157.363L328.86 155.87L326.992 155.401L323.949 155.173L322.006 154.043L321.361 152.414L319.936 150.806L319.76 147.836L320.888 140.415L322.936 139.198L323.357 138.322L323.729 135.803L324.418 134.865L325.036 135.032L325.791 135.851L326.339 135.176L326.589 134.182L327.58 133.586L328.593 132.014L329.303 127.024L330.334 127.392L330.759 128.378L331.443 127.493L331.856 127.458L333.75 128.474L334.614 127.3L335.982 127.572L337.158 128.759L337.478 128.505L338.456 128.549L339.048 128.286L340.013 127.138L340.692 125.189L342.868 123.393L344.692 123.923L346.372 125.671Z" fill="#363636"/>
<path d="M199.401 127.695L198.151 129.087L197.953 129.71L198.309 130.424L197.199 131.843L197.331 132.487L200.953 133.223L202.839 132.824L203.216 133.376L204.413 133.888L204.589 134.953L205.365 135.487L206.72 135.29L207.273 135.667L208.382 135.803L209.474 134.296L211.114 135.102L212.338 134.348L215.359 133.538L219.723 135.373L222.363 135.72L223.043 136.806L223.806 140.183L224.442 141.051L224.13 141.87L224.534 145.107L227.051 146.938L232.704 148.808L234.638 149.803L232.73 151.927L232.524 152.856L233.042 154.586L233.835 154.967L234.647 155.922L235.322 157.499L235.384 158.428L234.41 161.621L234.559 162.576L231.603 165.489L230.95 167.452L231.559 169.2L231.524 170.829L230.766 172.743L228.52 176.011L227.433 179.971L226.187 179.459L224.323 179.34L223.24 178.937L221.938 179.056L220.648 176.458L221.271 175.49L221.35 173.847L217.675 173.72L216.679 174.031L216.912 174.307L216.675 174.561L216.337 174.355L215.728 174.78L214.386 174.605L214.092 174.474L214.333 173.58L215.451 173.094L213.382 172.621L212.956 172.34L213.206 172.06L212.987 171.596L211.684 171.381L212.105 170.387L211.259 169.331L208.641 168.827L206.79 167.916L206.781 167.136L205.54 166.541L204.988 166.611L204.172 167.701L203.321 166.672L202.703 167.531L197.655 165.288L197.844 164.022L199.041 162.603L198.883 162.129L199.142 162.02L199.497 159.847L199.146 159.764L199.01 159.295L199.365 158.809L199.598 156.79L197.488 152.431L196.589 151.209L190.801 150.206L190.147 150.455L188.082 149.654L184.468 149.448L182.88 148.677L182.468 149.001L181.745 148.414L181.617 147.043L181.003 146.587L180.784 145.856L179.679 145.86L179.504 146.329L179.205 146.342L178.881 144.997L177.833 144.818L176.473 144.073L176.201 143.587L176.429 142.527L175.346 142.904L174.833 142.413L174.368 142.501L174.066 143.674L173.57 144.091L172.991 144.108L172.092 146.163L171.662 146.066L170.895 146.544L169.829 146.084L169.088 146.434L168.522 146.053L167.553 146.154L168.163 144.463L169.022 143.307L167.158 142.785L167.132 142.299L167.549 142.01L174.64 141.594L176.543 141.208L177.359 140.407L178.35 138.317L179.876 137.713L180.1 137.183L181.319 136.823L181.894 136.175L186.126 134.213L186.77 134.699L188.345 134.116L189.717 132.693L189.972 131.926L190.116 131.584L189.178 128.921L192.73 127.76L192.998 127.248L194.419 126.556L195.774 125.399L197.528 125.246L199.401 127.695Z" fill="#363636"/>
<path d="M108.673 71.0068L109.919 71.7602L111.748 72.1764L113.199 74.4235L114.524 75.8165L114.375 77.7702L118.471 79.6363L119.475 79.3954L120.536 79.851L122.703 79.391L125.066 79.6933L128.474 81.4849L130.162 81.8441L133.482 83.57L133.302 83.754L133.697 84.871L132.68 87.6132L131.908 88.4104L131.022 89.1157L129.035 89.7903L126.237 89.5844L125.329 90.421L125.987 90.8854L126.47 92.0418L126.014 92.9661L123.904 92.5456L123.185 93.6976L122.027 94.0525L121.518 94.5737L121.773 95.1739L122.496 95.6338L122.777 96.4091L121.663 96.6282L121.694 97.2765L122.672 98.3322L123.273 99.6682L124.062 100.216L125.702 102.358L128.965 104.189L131.026 106.528L131.053 107.382L130.689 107.912L129.088 108.447L127.965 109.467L128.487 110.019L128.377 112.026L130 113.094L128.943 114.312L128.079 114.658L126.014 116.625L125.549 119.814L127.5 121.014L128.294 122.136L128.285 123.161L124.952 123.318L122.141 124.225L120.225 124.076L118.528 125.128L117.357 128.189L118.949 129.276L120.216 129.39L120.891 129.802L120.282 130.656L119.085 130.875L117.944 131.847L114.519 131.343L113.752 131.979L113.8 132.758L112.686 132.925L112.077 132.706L111.897 133.065L110.914 133.131L109.379 133.902L107.002 134.414L105.858 134.23L104.051 134.887L103.349 134.848L100.297 133.017L99.591 131.803L96.2975 129.933L92.5128 126.634L90.4779 125.675L90.1227 126.039L89.0132 125.662L87.9607 124.707L86.8336 122.933L88.0001 122.149L89.5789 122.07L90.5481 121.671L92.5611 122.074L92.6838 120.515L92.2058 119.924L92.2365 118.298L91.5743 117.532L90.6797 117.374L90.3113 115.753L86.816 114.715L85.325 112.805L84.7154 111.417L81.1719 109.599L80.9 108.534L80.1545 107.952L79.2554 107.838L78.4397 107.185L78.3827 106.743L77.2118 106.213L75.4532 106.388L74.8042 105.398L73.2736 104.027L73.1903 103.335L73.7429 102.183L73.6639 101.718L75.0629 100.409L77.1592 101.144L80.2466 103.282L81.3868 103.326L83.6892 100.571L83.7594 99.6288L83.0708 97.7452L84.3865 96.5975L85.4609 94.6745L85.3074 92.8215L84.4128 90.8021L84.9522 88.8222L85.8819 88.3535L86.9388 88.4192L92.0699 89.6326L93.1399 86.0931L95.5169 85.1732L96.5562 84.4592L96.2931 82.5581L97.429 81.0775L99.1174 81.3359L101.196 78.585L105.152 76.4473L106.275 75.1901L106.446 72.3122L108.673 71.0068Z" fill="#363636"/>
<path d="M288.264 114.851L288.505 116.84L289.001 117.414L289.737 117.317L291.132 118.658L292.948 118.036L293.421 118.154L293.768 119.113L295.978 120.252L296.728 121.378L297.816 121.763L298.951 121.693L298.666 124.681L300.228 128.847L298.951 130.555L298.776 131.462L300.214 132.999L299.587 134.475L299.421 137.244L298.245 139.618L297.579 145.479L296.074 147.665L296.513 150.175L297.943 151.752L297.894 153.281L299.232 153.701L297.561 155.528L296.636 155.489L295.807 156.027L296.131 157.604L296.715 158.187L296.802 159.541L295.842 162.48L296.066 163.413L297.763 164.639L297.824 168.345L298.824 170.352L298.368 172.261L298.793 173.085L299.899 174.123L302.175 172.625L305.516 171.766L306.74 171.985L307.543 172.975L307.174 174.885L306.446 175.906L302.74 179.533L300.271 183.029L299.065 184.128L297.206 187.037L296.623 188.898L296.798 190.778L296.32 190.839L296.219 192.14L294.689 192.223L294.706 193.428L293.202 193.726L292.382 194.466L289.176 193.608L287.738 195.202L286.347 194.519L286.106 194.01L283.286 193.086L282.519 192.158L280.747 191.684L279.247 189.599L277.638 189.56L275.884 188.368L273.209 187.484L273.13 187.046L270.832 186.502L270.937 185.994L269.441 185.837L268.819 186.165L267.095 186.148L265.986 187.265L264.709 187.046L264.53 186.134L263.845 186.126L265.174 183.401L264.424 181.763L263.398 181.158L262.784 179.367L263.253 176.949L262.797 172.713L263.35 172.476L265.565 173.519L267.328 173.387L268.529 172.476L269.406 171.298L271.397 170.706L271.976 170.141L272.915 166.23L272.38 165.117L272.546 164.171L272.279 162.887L273.287 159.764L268.525 156.338L266.788 156.163L266.301 155.69L267.415 153.469L266.836 151.914L266.784 149.413L268.433 146.71L270.516 144.967L271.156 143.578L273.073 141.256L274.572 140.393L274.963 139.443L276.862 137.165L277.756 135.071L279.879 134.327L281.313 133.437L281.475 131.422L280.348 128.338L280.51 126.494L280.993 125.482L280.401 123.511L278.848 121.579L277.993 120.638L278.23 118.907L278.576 118.184L280.146 117.247L281.537 115.455L282.436 115.241L283.791 115.71L285.685 114.246L287.457 114.273L288.264 114.851Z" fill="#363636"/>
<path d="M48.6754 19.4968L49.5218 19.9961L50.1357 19.8998L50.8944 19.6764L52.0084 18.5725L53.7318 20.0093L55.144 20.1714L56.1921 21.0956L57.2359 21.0694L58.5033 20.0575L60.2706 20.8985L61.0425 21.7615L60.9109 23.6057L61.2091 26.2515L62.3274 25.6776L62.9502 25.682L64.7701 24.5694L66.3138 24.6876L69.3969 23.6801L70.6555 24.0568L71.401 25.0162L75.1375 25.5812L75.3962 27.0268L75.1726 29.0287L74.6551 29.0856L74.0367 29.8259L73.4447 32.4455L73.5587 33.5537L73.1552 34.6269L71.5764 35.7089L71.4668 36.7953L71.9185 39.5243L73.3482 39.647L74.2691 40.4617L74.4402 44.6407L75.1155 45.4598L76.0628 49.1832L75.6506 50.8653L74.2955 52.749L72.7956 54.0018L69.8705 55.3115L69.1644 55.0137L68.9758 53.8003L67.726 52.4336L66.0814 52.4774L62.3976 55.6839L61.2837 57.0637L61.5994 57.8697L62.3143 58.4786L62.0204 61.8428L62.5906 62.9993L64.0685 64.3353L65.0684 64.5543L65.1429 65.0055L61.5337 67.1914L59.9461 69.3466L59.9593 72.3121L61.4416 73.9154L61.8406 75.361L64.2483 78.1294L64.757 79.6889L65.7437 80.4467L66.2086 81.958L65.0728 82.3259L64.1913 81.9229L63.9369 80.876L61.2837 78.0944L59.7444 75.1025L58.8103 75.4223L57.7051 75.3172L56.464 75.8647L55.7404 74.9667L53.4205 75.4792L49.8419 75.177L44.9258 72.264L43.4654 72.2859L40.1719 73.3722L41.6893 75.8866L44.0794 77.0737L46.8861 77.7746L46.9036 79.1238L48.3465 80.0919L49.4341 78.2433L50.3945 77.9892L50.8857 80.9811L51.4733 82.7377L53.1924 85.6945L53.3679 87.0568L50.1752 90.6182L49.7893 92.0155L48.193 94.0086L46.0353 96.0193L44.6977 96.8384L44.4478 98.2577L43.347 99.7777L42.3559 99.09L42.0708 99.6726L41.4349 99.1732L42.1848 98.2314L41.7682 97.8897L41.1849 98.0606L41.0665 97.3466L40.5622 97.2546L39.2729 97.9949L39.0097 97.6751L39.536 97.2064L38.6808 97.4561L37.8563 97.1976L37.9835 96.4573L37.4046 97.0312L37.0757 96.9917L37.0143 96.6413L36.6898 96.926L36.2644 96.7114L36.1285 95.8791L36.5758 95.1081L35.8259 94.5869L34.6374 94.5737L34.6944 95.1914L33.6594 94.9198L32.892 94.0349L31.2956 93.61L31.3395 92.8303L30.6597 92.3003L30.6159 91.6257L29.5809 91.2489L29.0678 91.5512L27.6557 91.1351L27.318 90.605L27.4803 89.8428L26.7523 89.7289L26.726 89.0018L26.2699 88.6163L26.1953 87.9855L24.5902 88.1388L23.5552 87.5387L22.972 87.6832L23.0509 87.2189L22.5553 86.9429L22.8404 86.0581L21.073 85.5324L21.4327 83.789L21.2265 82.361L19.5557 78.2214L20.1696 72.5618L19.8626 71.5368L19.9898 70.5687L21.38 66.5825L20.8187 65.3647L22.0598 64.6945L22.6694 62.7802L27.9013 60.3535L28.1819 59.3109L29.2081 58.3516L30.5676 55.7364L30.1949 53.2702L31.7824 52.2715L33.6287 52.0306L34.8128 51.0668L35.839 49.1613L35.6197 47.9699L35.1023 47.2646L34.0629 46.5988L32.1464 46.6382L31.9622 45.1269L30.3878 44.0493L30.1861 42.7439L31.015 42.5162L31.5851 41.2283L31.7737 39.3447L31.2518 37.1895L36.8477 34.6357L39.4483 34.5306L43.2461 33.58L44.2329 31.7139L43.7899 29.7339L42.8251 28.6301L42.7549 27.0005L41.4612 25.4498L40.8692 23.9911L41.9743 20.7364L42.7462 20.0312L43.9829 19.5844L44.6144 18.7477L46.1449 17.9811L48.6754 19.4968Z" fill="#363636"/>
</g>
<defs>
<clipPath id="clip0_15_191">
<rect width="351" height="199" fill="white"/>
</clipPath>
</defs>
</svg>
