<svg width="1193" height="667" viewBox="0 0 1193 667" fill="none" xmlns="http://www.w3.org/2000/svg">
<g clip-path="url(#clip0_15_207)">
<path d="M673.929 432.926L677.766 428.709L682.897 433.42L683.07 433.579L683.303 433.547L686.478 433.107L686.58 433.092L686.669 433.039L691.349 430.205L691.54 430.09L691.581 429.871L692.118 427.037L692.136 426.943L692.117 426.848L689.369 412.748L692.545 407.908L698.561 402.579L698.683 402.471L698.718 402.312L699.963 396.664L702.576 394.468L702.701 394.363L702.74 394.204L704.574 386.749L707.503 385.448L709.727 386.273L709.888 386.332L710.051 386.281L712.698 385.449L714.064 385.911L714.472 386.049L714.668 385.666L716.451 382.197L721.206 378.536L721.384 378.399L721.4 378.175L722.11 368.092L723.766 363.91L728.653 360.796L728.749 360.735L728.809 360.638L731.164 356.835L731.215 356.752L731.232 356.656L732.145 351.347L734.92 348.49L741.691 346.173L747.173 347.787L747.341 347.836L747.503 347.77L754.152 345.054L756.341 346.591L761.67 354.574L761.833 354.817L762.125 354.794L769.279 354.236L769.362 354.23L769.437 354.198L774.908 351.857L775.486 353.008L775.588 353.21L775.806 353.267L780.621 354.53L780.887 354.6L781.088 354.413L787.466 348.493L792.592 346.683L802.751 347.403L811.331 351.593L816.833 359.156L816.975 359.352L817.218 359.362L820.881 359.502L831.737 368.353L831.865 368.456L832.029 368.465L833.817 368.553L833.955 368.559L834.077 368.494L837.713 366.554L855.678 381.713L857.911 386.296L858.086 390.757L858.091 390.889L858.161 391.002L865.704 403.109L866.011 405.615L864.255 408.16L864.135 408.335L864.177 408.544L864.505 410.159L864.558 410.421L864.806 410.522L875.851 415.015L875.923 415.044L876 415.05L880.524 415.414L878.548 423.28L873.658 427.139L873.392 427.349L873.489 427.673L877.606 441.561L877.29 445.369L866.228 446.458L866.02 446.479L865.888 446.641L862.594 450.708L862.536 450.78L862.507 450.868L860.504 457.019L856.033 463.225L855.997 463.276L855.974 463.333L853.966 468.392L849.393 470.264L849.309 470.298L849.242 470.36L845.665 473.678L845.493 473.838L845.506 474.072L846.459 491.323L837.326 497.635L833.779 496.9L833.624 496.868L833.479 496.931L830.304 498.311L830.006 498.441L830.003 498.765L829.96 503.446L826.569 508.503L818.166 507.159L818.086 507.146L818.007 507.159L815.101 507.626L810.7 506.454L806.426 503.792L806.358 503.75L806.281 503.731L797.676 501.631L791.154 498.324L791.12 498.306L791.083 498.294L771.944 492.049L763.628 486.084L762.3 475.575L763.313 472.947L763.412 472.69L763.247 472.469L761.149 469.646L758.579 458.429L758.559 458.345L758.513 458.272L756.203 454.631L756.077 454.433L755.845 454.403L746.938 453.252L732.168 447.125L732.012 447.061L731.849 447.104L721.578 449.82L721.509 449.839L721.447 449.876L717.521 452.26L712.191 449.677L711.816 449.496L711.57 449.831L708.031 454.647L704.669 454.241L702.891 453.045L702.732 452.938L702.541 452.965L698.127 453.598L695.826 452.036L695.265 448.679L695.22 448.408L694.966 448.301L691.031 446.64L689.832 444.909L689.643 444.637L689.319 444.705L683.009 446.02L671.122 443.638L670.789 442.033L674.415 437.459L674.613 437.208L674.469 436.923L673.354 434.713L673.929 432.926Z" fill="#19191D" fill-opacity="0.15" stroke="#323338"/>
<mask id="path-2-inside-1_15_207" fill="white">
<path d="M221.158 216.371L224.452 217.428L221.412 223.609L222.112 227.28L224.736 228.043L227.791 230.833L236.66 228.205L241.042 229.306L243.994 234.43L257.26 236.074L260.017 239.774L264.593 242.388L270.764 238.482L275.221 239.892L280.23 238.35L283.211 235.414L287.265 235.634L294.405 240.596L298.921 241.11L303.08 238.908L304.869 233.373L309.698 226.868L328.211 216.473L337.423 217.883L345.144 217.736L346.843 219.057L345.591 221.642L345.323 235.516L348.349 237.865L358.38 234.753L369.366 237.998L361.793 242.373L361.212 252.019L357.396 256.233L343.951 263.398L336.886 272.618L331.147 271.752L327.287 276.715L328.181 283.087L324.648 285.48L316.57 288.563L312.933 300.427L295.493 296.36L291.901 296.14L288.741 297.711L286.907 304.347L289.948 311.115L290.47 317.326L286.818 323.772L282.346 327.618L284.686 333.932L284.448 337.088L276.622 346.324L272.747 346.177L262.253 339.012L255.128 336.545L250.373 340.935L250.642 342.492L248.764 346.353L249.047 348.673L254.249 353.268L256.455 356.587L262.432 355.999L266.412 357.776L266.606 359.259L269.378 361.446L272.434 361.828L274.968 363.781L275.892 367.349L287.936 373.442L290.008 378.096L295.076 384.498L306.955 387.977L308.208 393.41L311.248 393.938L313.499 396.508L313.395 401.955L315.019 403.937L314.602 409.164L307.76 407.813L304.466 409.149L299.1 409.413L295.135 412.042L280.781 411.498L273.82 422.701L268.066 422.481L259.958 416.035L255.784 415.242L240.178 401.147L235.527 400.883L230.295 398.872L208.175 386.098L208.503 380.754L205.149 378.096L203.525 373.838L200.439 371.474L193.434 371.122L192.271 372.399L193.165 375.659L184.401 377.259L185.727 373.75L184.371 374.058L182.597 372.59L185.534 371.474L184.52 366.438L172.789 353.547L172.297 346.294L169.152 341.067L152.696 337.749L147.33 334.431L151.072 329.336L151.921 324.579L156.467 321.834L163.801 315.094L169.227 308.414L170.538 303.73L181.39 291.794L180.794 287.227L174.951 277.317L172.953 271.429L171.284 261.401L168.019 262.253L164.323 268.449L159.419 265.204L159.359 260.682L149.82 258.333L141.696 254.354L136.539 245.926L147.733 242.285L152.696 242.211L169.406 251.975L181.569 252.988L189.454 251.27L191.913 254.28L196.132 252.445L199.888 252.797L203.063 251.726L208.295 261.754L217.313 271.077L218.177 274.586L221.173 275.937L225.034 274.703L223.454 269.638L220.1 267.098L218.371 261.871L210.188 252.592L208.831 247.747L203.793 242.373L203.748 232.433L209.144 225.209L221.412 217.883L221.158 216.371Z"/>
</mask>
<path d="M221.158 216.371L224.452 217.428L221.412 223.609L222.112 227.28L224.736 228.043L227.791 230.833L236.66 228.205L241.042 229.306L243.994 234.43L257.26 236.074L260.017 239.774L264.593 242.388L270.764 238.482L275.221 239.892L280.23 238.35L283.211 235.414L287.265 235.634L294.405 240.596L298.921 241.11L303.08 238.908L304.869 233.373L309.698 226.868L328.211 216.473L337.423 217.883L345.144 217.736L346.843 219.057L345.591 221.642L345.323 235.516L348.349 237.865L358.38 234.753L369.366 237.998L361.793 242.373L361.212 252.019L357.396 256.233L343.951 263.398L336.886 272.618L331.147 271.752L327.287 276.715L328.181 283.087L324.648 285.48L316.57 288.563L312.933 300.427L295.493 296.36L291.901 296.14L288.741 297.711L286.907 304.347L289.948 311.115L290.47 317.326L286.818 323.772L282.346 327.618L284.686 333.932L284.448 337.088L276.622 346.324L272.747 346.177L262.253 339.012L255.128 336.545L250.373 340.935L250.642 342.492L248.764 346.353L249.047 348.673L254.249 353.268L256.455 356.587L262.432 355.999L266.412 357.776L266.606 359.259L269.378 361.446L272.434 361.828L274.968 363.781L275.892 367.349L287.936 373.442L290.008 378.096L295.076 384.498L306.955 387.977L308.208 393.41L311.248 393.938L313.499 396.508L313.395 401.955L315.019 403.937L314.602 409.164L307.76 407.813L304.466 409.149L299.1 409.413L295.135 412.042L280.781 411.498L273.82 422.701L268.066 422.481L259.958 416.035L255.784 415.242L240.178 401.147L235.527 400.883L230.295 398.872L208.175 386.098L208.503 380.754L205.149 378.096L203.525 373.838L200.439 371.474L193.434 371.122L192.271 372.399L193.165 375.659L184.401 377.259L185.727 373.75L184.371 374.058L182.597 372.59L185.534 371.474L184.52 366.438L172.789 353.547L172.297 346.294L169.152 341.067L152.696 337.749L147.33 334.431L151.072 329.336L151.921 324.579L156.467 321.834L163.801 315.094L169.227 308.414L170.538 303.73L181.39 291.794L180.794 287.227L174.951 277.317L172.953 271.429L171.284 261.401L168.019 262.253L164.323 268.449L159.419 265.204L159.359 260.682L149.82 258.333L141.696 254.354L136.539 245.926L147.733 242.285L152.696 242.211L169.406 251.975L181.569 252.988L189.454 251.27L191.913 254.28L196.132 252.445L199.888 252.797L203.063 251.726L208.295 261.754L217.313 271.077L218.177 274.586L221.173 275.937L225.034 274.703L223.454 269.638L220.1 267.098L218.371 261.871L210.188 252.592L208.831 247.747L203.793 242.373L203.748 232.433L209.144 225.209L221.412 217.883L221.158 216.371Z" fill="#19191D" fill-opacity="0.15" stroke="#323338" stroke-width="2" mask="url(#path-2-inside-1_15_207)"/>
<mask id="path-3-inside-2_15_207" fill="white">
<path d="M578.15 186.375L578.865 186.654L578.314 189.928L581.161 191.631L584.708 189.854L588.554 192.101L592.668 191.469L598.6 197.709L604.175 198.913L607.246 200.763L607.454 202.129L603.266 206.372L601.671 221.509L595.828 228.674L596.737 232.11L603.102 238.981L603.31 240.861L601.149 245.353L600.136 255.176L595.276 256.673L583.203 268.772L580.385 269.227L574.96 265.732L570.533 266.129L569.743 272.53L567.775 275.849L561.336 280.84L552.989 285.025L553.093 289.679L554.867 292.748L558.161 294.98L560.784 301.043L559.89 303.069L556.536 302.115L551.454 304.934L551.096 307.034L553.719 312.407L553.734 315.711L547.459 320.541L540.751 327.941L538.158 335.15L535.728 335.84L534.61 338.777L541.094 341.493L544.463 345.354L547.176 352.666L546.654 355.074L552.825 358.994L552.542 360.565L549.62 365.22L546.564 363.223L543.539 363.84L541.899 368.259L543.047 369.903L542.123 376.173L537.83 380.24L537.248 383.161L538.471 384.424L537.621 392.044L533.134 397.609L527.783 400.398L520.822 397.991L519.511 397.785L516.783 388.711L514.949 386.861L510.075 385.261L507.407 382.971L501.519 384.6L495.661 381.737L490.653 374.543L488.313 374.939L482.127 370.975L475.822 369.845L473.676 367.554L477.178 362.577L477.745 359.053L476.895 357.57L470.083 357.878L467.847 355.955L464.017 357.937L460.29 357.541L450.005 360.14L445.429 359.919L445.34 357.056L438.334 349.216L427.244 343.079L421.67 335.899L418.987 334.064L416.945 329.586L413.621 326.047L413.516 323.874L417.302 323.14L416.348 320.541L413.889 319L413.024 316.988L414.753 315.241L418.688 314.052L421.133 310.19L428.303 311.6L429.853 308.502L428.213 304.626L425.977 303.069L429.063 300.265L438.573 300.955L445.325 298.694L448.336 296.33L450.959 293.658L454.417 284.467L453.076 280.723L453.687 280.106L455.029 278.741L460.872 282.661L466.446 283.336L469.055 284.746L472.707 284.467L483.633 281.046L489.61 277.229L497.659 274.894L503.502 271.826L503.74 264.69L506.185 258.274L523.013 237.719L522.999 227.485L524.638 221.818L526.293 219.469L530.496 218.749L532.896 213.302L532.031 210.894L526.844 205.564L528.931 202.907L531.346 201.953L537.457 196.608L547.176 197.841L549.71 196.814L554.077 190.398L560.531 186.742L566.598 185.376L571.144 186.595L574.617 185.009L578.15 186.375Z"/>
</mask>
<path d="M578.15 186.375L578.865 186.654L578.314 189.928L581.161 191.631L584.708 189.854L588.554 192.101L592.668 191.469L598.6 197.709L604.175 198.913L607.246 200.763L607.454 202.129L603.266 206.372L601.671 221.509L595.828 228.674L596.737 232.11L603.102 238.981L603.31 240.861L601.149 245.353L600.136 255.176L595.276 256.673L583.203 268.772L580.385 269.227L574.96 265.732L570.533 266.129L569.743 272.53L567.775 275.849L561.336 280.84L552.989 285.025L553.093 289.679L554.867 292.748L558.161 294.98L560.784 301.043L559.89 303.069L556.536 302.115L551.454 304.934L551.096 307.034L553.719 312.407L553.734 315.711L547.459 320.541L540.751 327.941L538.158 335.15L535.728 335.84L534.61 338.777L541.094 341.493L544.463 345.354L547.176 352.666L546.654 355.074L552.825 358.994L552.542 360.565L549.62 365.22L546.564 363.223L543.539 363.84L541.899 368.259L543.047 369.903L542.123 376.173L537.83 380.24L537.248 383.161L538.471 384.424L537.621 392.044L533.134 397.609L527.783 400.398L520.822 397.991L519.511 397.785L516.783 388.711L514.949 386.861L510.075 385.261L507.407 382.971L501.519 384.6L495.661 381.737L490.653 374.543L488.313 374.939L482.127 370.975L475.822 369.845L473.676 367.554L477.178 362.577L477.745 359.053L476.895 357.57L470.083 357.878L467.847 355.955L464.017 357.937L460.29 357.541L450.005 360.14L445.429 359.919L445.34 357.056L438.334 349.216L427.244 343.079L421.67 335.899L418.987 334.064L416.945 329.586L413.621 326.047L413.516 323.874L417.302 323.14L416.348 320.541L413.889 319L413.024 316.988L414.753 315.241L418.688 314.052L421.133 310.19L428.303 311.6L429.853 308.502L428.213 304.626L425.977 303.069L429.063 300.265L438.573 300.955L445.325 298.694L448.336 296.33L450.959 293.658L454.417 284.467L453.076 280.723L453.687 280.106L455.029 278.741L460.872 282.661L466.446 283.336L469.055 284.746L472.707 284.467L483.633 281.046L489.61 277.229L497.659 274.894L503.502 271.826L503.74 264.69L506.185 258.274L523.013 237.719L522.999 227.485L524.638 221.818L526.293 219.469L530.496 218.749L532.896 213.302L532.031 210.894L526.844 205.564L528.931 202.907L531.346 201.953L537.457 196.608L547.176 197.841L549.71 196.814L554.077 190.398L560.531 186.742L566.598 185.376L571.144 186.595L574.617 185.009L578.15 186.375Z" fill="#19191D" fill-opacity="0.15" stroke="#323338" stroke-width="2" mask="url(#path-3-inside-2_15_207)"/>
<mask id="path-4-inside-3_15_207" fill="white">
<path d="M616.726 251.065L618.514 251.843L620.691 256.086L624.387 256.982L629.082 260.021L637.117 261.078L641.067 264.94L642.348 268.008L642.065 271.091L640.142 274.777L639.934 279.916L644.301 278.682L649.131 281.839L653.841 283.116L660.191 282.206L667.405 279.475L677.109 282.911L677.824 286.581L681.536 293.203L679.091 298.944L679.717 300.265L686.902 302.879L698.856 303.848L704.267 307.562L707.486 304.699L715.998 300.06L721.9 302.13L724.837 301.66L730.695 294.524L735.435 290.883L744.259 289.635L747.15 291.764L753.306 299.414L751.712 302.159L752.338 308.81L750.787 309.897L747.657 321.716L745.526 325.724L741.68 345.648L734.645 348.056L731.678 351.11L730.739 356.572L728.384 360.375L723.361 363.575L721.617 367.98L720.901 378.14L716.057 381.869L714.224 385.437L712.703 384.923L709.901 385.804L707.486 384.909L704.147 386.392L702.254 394.085L699.512 396.39L698.23 402.204L692.163 407.578L688.839 412.643L691.627 426.944L691.09 429.778L686.41 432.611L683.235 433.052L677.735 428.001L671.37 419.794L665.408 420.308L660.802 424.184L655.972 426.504L655.063 428.221L642.989 432.112L646.179 441.039L645.687 442.184L633.494 439.864L630.26 443.006L626.012 437.882L624.715 431.848L620.005 426.048L605.8 425.652L593.175 423.699L584.723 424.712L566.493 421.453L550.708 421.629L546.296 418.017L538.411 415.756L532.896 415.286L527.932 417.489L519.794 413.157L516.008 412.365L500.074 413.701L496.884 412.467L496.645 410.984L500.089 407.813L515.635 404.832L517.975 403.394L520.822 397.991L527.783 400.398L533.134 397.609L537.621 392.044L538.471 384.424L537.248 383.161L537.83 380.24L542.123 376.173L543.047 369.903L541.899 368.259L543.539 363.84L546.564 363.223L549.62 365.22L552.542 360.565L552.825 358.994L546.654 355.074L547.176 352.666L544.463 345.354L541.094 341.493L534.61 338.777L535.728 335.84L538.158 335.15L540.751 327.941L547.459 320.541L553.734 315.711L553.719 312.407L551.096 307.034L551.454 304.934L556.536 302.115L559.89 303.07L560.785 301.043L558.161 294.98L554.867 292.748L553.093 289.679L552.989 285.025L561.336 280.841L567.775 275.849L569.743 272.53L570.533 266.129L574.96 265.732L580.385 269.227L583.203 268.772L595.276 256.673L600.136 255.176L602.416 255.763L607.648 253.238L616.726 251.065Z"/>
</mask>
<path d="M616.726 251.065L618.514 251.843L620.691 256.086L624.387 256.982L629.082 260.021L637.117 261.078L641.067 264.94L642.348 268.008L642.065 271.091L640.142 274.777L639.934 279.916L644.301 278.682L649.131 281.839L653.841 283.116L660.191 282.206L667.405 279.475L677.109 282.911L677.824 286.581L681.536 293.203L679.091 298.944L679.717 300.265L686.902 302.879L698.856 303.848L704.267 307.562L707.486 304.699L715.998 300.06L721.9 302.13L724.837 301.66L730.695 294.524L735.435 290.883L744.259 289.635L747.15 291.764L753.306 299.414L751.712 302.159L752.338 308.81L750.787 309.897L747.657 321.716L745.526 325.724L741.68 345.648L734.645 348.056L731.678 351.11L730.739 356.572L728.384 360.375L723.361 363.575L721.617 367.98L720.901 378.14L716.057 381.869L714.224 385.437L712.703 384.923L709.901 385.804L707.486 384.909L704.147 386.392L702.254 394.085L699.512 396.39L698.23 402.204L692.163 407.578L688.839 412.643L691.627 426.944L691.09 429.778L686.41 432.611L683.235 433.052L677.735 428.001L671.37 419.794L665.408 420.308L660.802 424.184L655.972 426.504L655.063 428.221L642.989 432.112L646.179 441.039L645.687 442.184L633.494 439.864L630.26 443.006L626.012 437.882L624.715 431.848L620.005 426.048L605.8 425.652L593.175 423.699L584.723 424.712L566.493 421.453L550.708 421.629L546.296 418.017L538.411 415.756L532.896 415.286L527.932 417.489L519.794 413.157L516.008 412.365L500.074 413.701L496.884 412.467L496.645 410.984L500.089 407.813L515.635 404.832L517.975 403.394L520.822 397.991L527.783 400.398L533.134 397.609L537.621 392.044L538.471 384.424L537.248 383.161L537.83 380.24L542.123 376.173L543.047 369.903L541.899 368.259L543.539 363.84L546.564 363.223L549.62 365.22L552.542 360.565L552.825 358.994L546.654 355.074L547.176 352.666L544.463 345.354L541.094 341.493L534.61 338.777L535.728 335.84L538.158 335.15L540.751 327.941L547.459 320.541L553.734 315.711L553.719 312.407L551.096 307.034L551.454 304.934L556.536 302.115L559.89 303.07L560.785 301.043L558.161 294.98L554.867 292.748L553.093 289.679L552.989 285.025L561.336 280.841L567.775 275.849L569.743 272.53L570.533 266.129L574.96 265.732L580.385 269.227L583.203 268.772L595.276 256.673L600.136 255.176L602.416 255.763L607.648 253.238L616.726 251.065Z" fill="#19191D" fill-opacity="0.15" stroke="#323338" stroke-width="2" mask="url(#path-4-inside-3_15_207)"/>
<mask id="path-5-inside-4_15_207" fill="white">
<path d="M904.838 403.35L918.357 404.069L923.38 409.223L930.684 405.904L933.993 405.684L934.664 406.389L930.744 412.115L932.935 414.758L934.56 414.772L940.865 410.72L947.319 413.466L949.152 409.824L947.766 407.505L953.043 413.98L955.055 420.587L953.415 423.978L952.864 430.159L956.695 440.496L956.143 447.25L951.269 450.23L944.055 452.726L941.014 459.744L934.56 467.379L933.233 470.565L928.135 473.458L921.622 481.239L919.445 485.893L912.365 491.737L906.761 500.796L906.939 509.18L908.907 514.392L905.121 521.836L906.775 523.421L912.678 524.009L928.866 535.49L925.437 545.959L926.347 550.261L925.78 553.432L927.599 557.161L924.409 570.273L922.441 572.167L915.674 574.149L912.693 578.098L908.609 581.152L902.617 581.593L895.089 578.098L893.211 578.891L894.762 593.089L893.167 601.194L895.253 607.199L898.741 609.225L901.29 614.716L896.774 623.848L896.073 623.188L890.931 625.316L891.035 621.719L883.225 618.944L880.75 616.566L875.175 615.333L872.373 617.036L866.694 616.478L863.892 618.034L862.103 623.511L857.408 624.612L853.547 628.723L852.414 628.414L849.478 630.896L848.032 630.852L849.284 627.387L848.569 624.671L845.424 623.922L845.364 625.595L843.605 625.493L841.25 621.969L836.361 620.912L831.725 617.917L831.546 615.626L829.788 612.983L830.25 606.068L831.442 603.778L830.637 602.163L831.517 594.689L830.101 591.18L823.02 586.658L817.923 585.307L817.028 582.224L815.15 581.96L812.959 584.676L809.874 586.085L809.367 584.5L808.115 584.25L806.803 587.275L805.581 586.952L804.985 588.391L803.539 587.818L800.244 591.768L797.084 591.782L796.414 594.352L794.029 593.471L793.567 595.379L790.899 596.715L783.669 595.291L778.944 600.151L776.693 599.755L773.012 603.22L776.708 589.947L784.34 578.994L786.919 572.578L787.038 567.116L784.966 561.258L787.187 554.68L797.234 544.916L796.727 541.716L800.036 531.012L799.827 527.9L797.532 522.614L794.774 519.413L792.076 518.136L790.317 512.336L791.018 509.224L797.502 502.103L806.162 504.217L810.5 506.919L815.076 508.137L818.087 507.653L826.806 509.047L830.458 503.6L830.503 498.77L833.678 497.39L837.434 498.168L846.974 491.575L846.005 474.045L849.582 470.727L854.352 468.774L856.439 463.518L860.955 457.248L862.983 451.023L866.277 446.956L877.754 445.825L878.112 441.509L873.968 427.531L878.991 423.567L881.153 414.963L886.37 413.216L890.066 410.148L888.024 406.359L887.174 401.969L883.075 398.108L882.121 393.571L883.135 383.852L886.563 381.899L895.924 372.487L897.295 373.501L897.325 376.202L902.468 383.896L899.576 387.669L901.335 398.431L903.079 402.146L904.838 403.35Z"/>
</mask>
<path d="M904.838 403.35L918.357 404.069L923.38 409.223L930.684 405.904L933.993 405.684L934.664 406.389L930.744 412.115L932.935 414.758L934.56 414.772L940.865 410.72L947.319 413.466L949.152 409.824L947.766 407.505L953.043 413.98L955.055 420.587L953.415 423.978L952.864 430.159L956.695 440.496L956.143 447.25L951.269 450.23L944.055 452.726L941.014 459.744L934.56 467.379L933.233 470.565L928.135 473.458L921.622 481.239L919.445 485.893L912.365 491.737L906.761 500.796L906.939 509.18L908.907 514.392L905.121 521.836L906.775 523.421L912.678 524.009L928.866 535.49L925.437 545.959L926.347 550.261L925.78 553.432L927.599 557.161L924.409 570.273L922.441 572.167L915.674 574.149L912.693 578.098L908.609 581.152L902.617 581.593L895.089 578.098L893.211 578.891L894.762 593.089L893.167 601.194L895.253 607.199L898.741 609.225L901.29 614.716L896.774 623.848L896.073 623.188L890.931 625.316L891.035 621.719L883.225 618.944L880.75 616.566L875.175 615.333L872.373 617.036L866.694 616.478L863.892 618.034L862.103 623.511L857.408 624.612L853.547 628.723L852.414 628.414L849.478 630.896L848.032 630.852L849.284 627.387L848.569 624.671L845.424 623.922L845.364 625.595L843.605 625.493L841.25 621.969L836.361 620.912L831.725 617.917L831.546 615.626L829.788 612.983L830.25 606.068L831.442 603.778L830.637 602.163L831.517 594.689L830.101 591.18L823.02 586.658L817.923 585.307L817.028 582.224L815.15 581.96L812.959 584.676L809.874 586.085L809.367 584.5L808.115 584.25L806.803 587.275L805.581 586.952L804.985 588.391L803.539 587.818L800.244 591.768L797.084 591.782L796.414 594.352L794.029 593.471L793.567 595.379L790.899 596.715L783.669 595.291L778.944 600.151L776.693 599.755L773.012 603.22L776.708 589.947L784.34 578.994L786.919 572.578L787.038 567.116L784.966 561.258L787.187 554.68L797.234 544.916L796.727 541.716L800.036 531.012L799.827 527.9L797.532 522.614L794.774 519.413L792.076 518.136L790.317 512.336L791.018 509.224L797.502 502.103L806.162 504.217L810.5 506.919L815.076 508.137L818.087 507.653L826.806 509.047L830.458 503.6L830.503 498.77L833.678 497.39L837.434 498.168L846.974 491.575L846.005 474.045L849.582 470.727L854.352 468.774L856.439 463.518L860.955 457.248L862.983 451.023L866.277 446.956L877.754 445.825L878.112 441.509L873.968 427.531L878.991 423.567L881.153 414.963L886.37 413.216L890.066 410.148L888.024 406.359L887.174 401.969L883.075 398.108L882.121 393.571L883.135 383.852L886.563 381.899L895.924 372.487L897.295 373.501L897.325 376.202L902.468 383.896L899.576 387.669L901.335 398.431L903.079 402.146L904.838 403.35Z" fill="#19191D" fill-opacity="0.15" stroke="#323338" stroke-width="2" mask="url(#path-5-inside-4_15_207)"/>
<mask id="path-6-inside-5_15_207" fill="white">
<path d="M233.127 0.379395L235.348 2.18532L240.819 3.18371L245.454 6.39914L251.268 8.04355L279.052 13.1383L286.654 16.2656L293.466 15.2966L304.809 16.5593L308.178 17.8366L308.997 19.2168L306.493 22.6965L308.997 33.7669L314.811 39.0232L316.286 42.7819L316.331 45.9386L313.037 54.3221L314.662 56.6419L326.631 61.4577L331.431 61.9422L333.86 64.1446L342.163 67.0664L345.203 66.9489L348.855 69.9441L351.881 69.489L356.189 71.1627L358.604 70.7516L361.451 74.7746L370.722 79.6931L373.793 83.1435L374.404 86.3442L382.527 94.5957L388.296 98.5452L392.067 103.904L392.604 107.09L395.51 111.495L405.244 115.621L409.074 119.996L410.759 120.906L420.313 121.288L427.677 125.707L431.299 125.722L435.368 127.675L443.328 133.21L452.972 134.429L455.386 137.894L459.992 137.806L467.043 140.948L469.323 144.369L469.442 151.078L479.668 154.514L480.696 155.953L480.115 161.958L489.833 171.105L491.294 175.994L495.021 180.37L496.943 189.443L503.308 193.275L508.182 200.719L512.49 204.258L523.118 209.147L525.771 208.075L526.844 205.564L532.031 210.894L532.896 213.302L530.496 218.749L526.293 219.469L524.638 221.818L522.999 227.485L523.013 237.719L506.185 258.274L503.74 264.69L503.502 271.826L497.659 274.894L489.61 277.229L483.633 281.046L472.707 284.467L469.055 284.746L466.446 283.337L460.872 282.661L455.029 278.741L453.687 280.106L442.403 274.322L436.665 273.118L425.083 267.113L417.049 266.1L409.685 267.641L406.078 266.114L402.665 266.922L388.743 260.667L389.25 254.119L384.748 249.45L379.814 241.918L373.599 240.523L369.366 237.998L358.38 234.753L348.349 237.866L345.323 235.516L345.591 221.642L346.843 219.057L345.144 217.736L337.423 217.883L328.211 216.473L309.698 226.868L304.869 233.373L303.08 238.908L298.921 241.11L294.405 240.596L287.265 235.634L283.211 235.414L280.229 238.35L275.221 239.892L270.764 238.482L264.593 242.388L260.017 239.774L257.26 236.074L243.994 234.43L241.042 229.306L236.66 228.205L227.791 230.833L224.736 228.043L222.112 227.28L221.412 223.609L224.452 217.428L221.158 216.371L217.76 215.637L212.736 211.158L210.799 207.282L211.797 196.006L209.368 193.965L208.295 191.264L212.081 186.639L224.601 175.892L230.191 175.745L234.439 180.326L235.08 184.393L237.48 185.391L247.422 181.001L252.52 176.802L257.126 170.488L258.527 164.85L255.307 152.37L253.012 149.625L252.43 135.618L249.3 132.887L244.441 132.476L242.906 123.329L243.278 119.688L248.644 116.061L250.016 112.464L249.628 108.749L251.64 99.9694L253.742 97.4881L255.501 97.2972L256.261 90.5874L255.382 85.7422L242.682 83.8482L240.148 80.6328L235.87 79.3701L225.391 82.7471L220.145 82.3506L213.959 86.0799L211.842 86.0653L208.041 87.9886L207.028 79.1205L207.475 72.9393L204.851 70.0469L198.844 67.2279L194.537 70.6195L190.989 70.7076L187.427 67.6096L182.627 67.0664L176.769 62.2506L178.304 53.9257L177.976 48.0234L181.971 46.5699L188.813 46.7754L196.37 36.1895L196.549 30.1698L199.5 21.3457L196.325 13.4026L195.893 8.71894L197.518 4.31425L202.69 2.3615L209.934 1.75953L211.768 2.6992L215.256 7.89673L223.677 10.3193L225.004 1.11351L233.127 0.379395Z"/>
</mask>
<path d="M233.127 0.379395L235.348 2.18532L240.819 3.18371L245.454 6.39914L251.268 8.04355L279.052 13.1383L286.654 16.2656L293.466 15.2966L304.809 16.5593L308.178 17.8366L308.997 19.2168L306.493 22.6965L308.997 33.7669L314.811 39.0232L316.286 42.7819L316.331 45.9386L313.037 54.3221L314.662 56.6419L326.631 61.4577L331.431 61.9422L333.86 64.1446L342.163 67.0664L345.203 66.9489L348.855 69.9441L351.881 69.489L356.189 71.1627L358.604 70.7516L361.451 74.7746L370.722 79.6931L373.793 83.1435L374.404 86.3442L382.527 94.5957L388.296 98.5452L392.067 103.904L392.604 107.09L395.51 111.495L405.244 115.621L409.074 119.996L410.759 120.906L420.313 121.288L427.677 125.707L431.299 125.722L435.368 127.675L443.328 133.21L452.972 134.429L455.386 137.894L459.992 137.806L467.043 140.948L469.323 144.369L469.442 151.078L479.668 154.514L480.696 155.953L480.115 161.958L489.833 171.105L491.294 175.994L495.021 180.37L496.943 189.443L503.308 193.275L508.182 200.719L512.49 204.258L523.118 209.147L525.771 208.075L526.844 205.564L532.031 210.894L532.896 213.302L530.496 218.749L526.293 219.469L524.638 221.818L522.999 227.485L523.013 237.719L506.185 258.274L503.74 264.69L503.502 271.826L497.659 274.894L489.61 277.229L483.633 281.046L472.707 284.467L469.055 284.746L466.446 283.337L460.872 282.661L455.029 278.741L453.687 280.106L442.403 274.322L436.665 273.118L425.083 267.113L417.049 266.1L409.685 267.641L406.078 266.114L402.665 266.922L388.743 260.667L389.25 254.119L384.748 249.45L379.814 241.918L373.599 240.523L369.366 237.998L358.38 234.753L348.349 237.866L345.323 235.516L345.591 221.642L346.843 219.057L345.144 217.736L337.423 217.883L328.211 216.473L309.698 226.868L304.869 233.373L303.08 238.908L298.921 241.11L294.405 240.596L287.265 235.634L283.211 235.414L280.229 238.35L275.221 239.892L270.764 238.482L264.593 242.388L260.017 239.774L257.26 236.074L243.994 234.43L241.042 229.306L236.66 228.205L227.791 230.833L224.736 228.043L222.112 227.28L221.412 223.609L224.452 217.428L221.158 216.371L217.76 215.637L212.736 211.158L210.799 207.282L211.797 196.006L209.368 193.965L208.295 191.264L212.081 186.639L224.601 175.892L230.191 175.745L234.439 180.326L235.08 184.393L237.48 185.391L247.422 181.001L252.52 176.802L257.126 170.488L258.527 164.85L255.307 152.37L253.012 149.625L252.43 135.618L249.3 132.887L244.441 132.476L242.906 123.329L243.278 119.688L248.644 116.061L250.016 112.464L249.628 108.749L251.64 99.9694L253.742 97.4881L255.501 97.2972L256.261 90.5874L255.382 85.7422L242.682 83.8482L240.148 80.6328L235.87 79.3701L225.391 82.7471L220.145 82.3506L213.959 86.0799L211.842 86.0653L208.041 87.9886L207.028 79.1205L207.475 72.9393L204.851 70.0469L198.844 67.2279L194.537 70.6195L190.989 70.7076L187.427 67.6096L182.627 67.0664L176.769 62.2506L178.304 53.9257L177.976 48.0234L181.971 46.5699L188.813 46.7754L196.37 36.1895L196.549 30.1698L199.5 21.3457L196.325 13.4026L195.893 8.71894L197.518 4.31425L202.69 2.3615L209.934 1.75953L211.768 2.6992L215.256 7.89673L223.677 10.3193L225.004 1.11351L233.127 0.379395Z" fill="#19191D" fill-opacity="0.15" stroke="#323338" stroke-width="2" mask="url(#path-6-inside-5_15_207)"/>
<mask id="path-7-inside-6_15_207" fill="white">
<path d="M1037.26 428.221L1052.18 429.836L1057.53 425.725L1068.29 427.898L1079.31 424.272L1081.08 425.197L1079.56 427.149L1080.17 427.986L1085.81 429.029L1093.56 426.474L1099.95 422.334L1102.89 421.644L1104.5 422.906L1104.78 429.66L1107.7 430.967L1113.26 427.399L1119.26 425.755L1116.84 442.478L1113.4 447.749L1110.03 449.746L1109.18 453.078L1107.32 455.339L1104.75 452.594L1102.65 452.036L1100.31 455.178L1099.04 463.62L1097.61 466.557L1090.65 470.638L1086.82 495.51L1087.42 505.465L1092.26 510.853L1094.45 516.315L1101.06 520.103L1111.4 520.867L1117.75 522.438L1128.36 527.444L1129.9 529.412L1123.79 535.857L1122.36 539.073L1117.59 543.404L1106.18 549.335L1098.61 558.629L1097.34 564.077L1092.71 570.038L1096.2 577.804L1095.44 581.328L1103.07 584.544L1104.98 585.997L1106.18 588.831L1110.04 590.035L1118.45 595.115L1119.2 598.154L1117.77 606.905L1112.86 620.662L1114.81 629.031L1112.44 631.189L1114.84 645.622L1117.99 652.537L1116.33 652.552L1116.26 655.65L1112.3 657.353L1112.49 659.394L1106.82 659.717L1106.11 661.288L1103.32 661.053L1102.79 659.232L1098.19 657.427L1097.36 655.254L1089.18 652.317L1084.63 651.877L1079.64 654.872L1073.78 655.239L1071.05 657.045L1068.95 660.554L1069.32 664.562L1066.82 666.515L1062.76 662.742L1061.24 663.593L1059.38 662.316L1055.91 662.433L1055.18 656.546L1050.6 656.017L1048.77 657.529L1047.99 656.135L1044.31 655.973L1044.77 657.471L1039.88 657.294L1030.34 649.851L1027.38 628.297L1023.47 628.179L1023.52 630.455L1019.12 636.754L1014.83 637.679L1013.53 639.059L1008.78 639.441L1008.18 633.142L1010.16 626.902L1016.48 617.153L1020.58 613.468L1028.97 601.751L1041.57 589.594L1044.04 586.173L1045.29 579.772L1042.57 576.454L1038.41 575.72L1027.05 578.597L1019.31 583.619L1015.56 580.139L1014.11 577.379L1015.66 570.977L1012.26 564.253L1012.05 551.832L1006.29 547.72L1005.53 544.593L1008.79 534.741L1008.49 530.204L1006.51 528.252L1005.41 522.966L1008.22 521.16L1011.37 521.292L1017.05 515.17L1012.5 513.76L1012.67 508.636L1007.81 503.351L1006.32 494.938L1011.43 487.611L1013.69 467.966L1017.69 460.008L1018.26 450.729L1020.39 445.781L1015.5 440.628L1016.09 437.589L1020.43 431.862L1015.13 417.9L1016.09 407.886L1021.3 407.857L1027.45 412.599L1031.83 417.885L1037.96 420.719L1040 423.596L1036.66 426.973L1037.26 428.221Z"/>
</mask>
<path d="M1037.26 428.221L1052.18 429.836L1057.53 425.725L1068.29 427.898L1079.31 424.272L1081.08 425.197L1079.56 427.149L1080.17 427.986L1085.81 429.029L1093.56 426.474L1099.95 422.334L1102.89 421.644L1104.5 422.906L1104.78 429.66L1107.7 430.967L1113.26 427.399L1119.26 425.755L1116.84 442.478L1113.4 447.749L1110.03 449.746L1109.18 453.078L1107.32 455.339L1104.75 452.594L1102.65 452.036L1100.31 455.178L1099.04 463.62L1097.61 466.557L1090.65 470.638L1086.82 495.51L1087.42 505.465L1092.26 510.853L1094.45 516.315L1101.06 520.103L1111.4 520.867L1117.75 522.438L1128.36 527.444L1129.9 529.412L1123.79 535.857L1122.36 539.073L1117.59 543.404L1106.18 549.335L1098.61 558.629L1097.34 564.077L1092.71 570.038L1096.2 577.804L1095.44 581.328L1103.07 584.544L1104.98 585.997L1106.18 588.831L1110.04 590.035L1118.45 595.115L1119.2 598.154L1117.77 606.905L1112.86 620.662L1114.81 629.031L1112.44 631.189L1114.84 645.622L1117.99 652.537L1116.33 652.552L1116.26 655.65L1112.3 657.353L1112.49 659.394L1106.82 659.717L1106.11 661.288L1103.32 661.053L1102.79 659.232L1098.19 657.427L1097.36 655.254L1089.18 652.317L1084.63 651.877L1079.64 654.872L1073.78 655.239L1071.05 657.045L1068.95 660.554L1069.32 664.562L1066.82 666.515L1062.76 662.742L1061.24 663.593L1059.38 662.316L1055.91 662.433L1055.18 656.546L1050.6 656.017L1048.77 657.529L1047.99 656.135L1044.31 655.973L1044.77 657.471L1039.88 657.294L1030.34 649.851L1027.38 628.297L1023.47 628.179L1023.52 630.455L1019.12 636.754L1014.83 637.679L1013.53 639.059L1008.78 639.441L1008.18 633.142L1010.16 626.902L1016.48 617.153L1020.58 613.468L1028.97 601.751L1041.57 589.594L1044.04 586.173L1045.29 579.772L1042.57 576.454L1038.41 575.72L1027.05 578.597L1019.31 583.619L1015.56 580.139L1014.11 577.379L1015.66 570.977L1012.26 564.253L1012.05 551.832L1006.29 547.72L1005.53 544.593L1008.79 534.741L1008.49 530.204L1006.51 528.252L1005.41 522.966L1008.22 521.16L1011.37 521.292L1017.05 515.17L1012.5 513.76L1012.67 508.636L1007.81 503.351L1006.32 494.938L1011.43 487.611L1013.69 467.966L1017.69 460.008L1018.26 450.729L1020.39 445.781L1015.5 440.628L1016.09 437.589L1020.43 431.862L1015.13 417.9L1016.09 407.886L1021.3 407.857L1027.45 412.599L1031.83 417.885L1037.96 420.719L1040 423.596L1036.66 426.973L1037.26 428.221Z" fill="#19191D" fill-opacity="0.15" stroke="#323338" stroke-width="2" mask="url(#path-7-inside-6_15_207)"/>
<mask id="path-8-inside-7_15_207" fill="white">
<path d="M445.429 359.919L450.005 360.14L460.29 357.541L464.017 357.937L467.847 355.955L470.083 357.879L476.895 357.57L477.745 359.053L477.178 362.577L473.676 367.554L475.822 369.845L482.127 370.975L488.313 374.939L490.653 374.543L495.662 381.737L501.519 384.6L507.407 382.971L510.075 385.261L514.949 386.861L516.783 388.711L519.511 397.785L520.822 397.991L517.975 403.394L515.635 404.833L500.089 407.813L496.645 410.984L496.884 412.467L500.074 413.701L516.008 412.365L519.794 413.157L527.932 417.489L532.896 415.286L538.411 415.756L546.296 418.017L550.708 421.629L566.493 421.453L584.723 424.712L593.175 423.699L605.8 425.652L620.005 426.049L624.715 431.848L626.012 437.882L630.26 443.007L633.494 439.865L645.687 442.184L644.823 444.754L640.157 449.525L634.806 451.478L632.615 449.848L618.231 456.426L616.278 458.599L612.135 459.803L611.374 461.58L606.187 463.606L602.819 470.609L600.046 473.296L593.577 474.588L569.474 475.983L568.058 476.952L568.148 478.582L574.483 480.329L571.561 484.205L569.489 489.872L567.701 488.977L564.69 490.416L558.683 491.223L555.24 489.432L553.853 490.871L553.212 493.308L560.442 500.737L557.55 505.773L551.215 500.899L520.479 485.688L489.505 484.19L488.313 484.601L488.507 486.07L490.191 488.052L487.866 492.192L489.982 494.38L490.057 497.037L488.462 498.608L487.911 501.222L485.451 502.411L485.347 504.085L483.007 506.507L476.299 508.24L471.44 505.421L470.158 503.013L470.516 499.93L462.243 493.998L460.708 491.003L457.577 488.228L438.364 489.006L433.982 488.243L423.294 485.057L421.699 481.592L419.717 480.49L413.501 481.195L407.286 480.358L403.977 481.298L392.768 480.417L392.216 478.288L393.9 476.746L392.678 472.665L394.705 467.071L392.186 462.372L393.11 459.245L391.486 457.704L391.471 455.868L389.608 455.472L388.996 454.283L389.518 450.025L387.923 446.545L388.639 443.55L386.79 444.974L386.626 442.361L389.235 440.232L400.876 441.92L404.752 438.661L408.821 437.926L410.893 435.063L408.597 433.683L404.29 433.302L398.879 429.66L402.859 419.397L408.627 415.874L415.141 416.373L424.695 413.334L436.024 412.805L436.054 409.369L433.356 405.611L426.723 401.588L428.303 390.899L435.323 384.307L438.26 383.147L441.852 379.065L436.337 375.483L436.709 368.758L434.936 366.908L438.752 363.487L444.192 361.696L445.429 359.919Z"/>
</mask>
<path d="M445.429 359.919L450.005 360.14L460.29 357.541L464.017 357.937L467.847 355.955L470.083 357.879L476.895 357.57L477.745 359.053L477.178 362.577L473.676 367.554L475.822 369.845L482.127 370.975L488.313 374.939L490.653 374.543L495.662 381.737L501.519 384.6L507.407 382.971L510.075 385.261L514.949 386.861L516.783 388.711L519.511 397.785L520.822 397.991L517.975 403.394L515.635 404.833L500.089 407.813L496.645 410.984L496.884 412.467L500.074 413.701L516.008 412.365L519.794 413.157L527.932 417.489L532.896 415.286L538.411 415.756L546.296 418.017L550.708 421.629L566.493 421.453L584.723 424.712L593.175 423.699L605.8 425.652L620.005 426.049L624.715 431.848L626.012 437.882L630.26 443.007L633.494 439.865L645.687 442.184L644.823 444.754L640.157 449.525L634.806 451.478L632.615 449.848L618.231 456.426L616.278 458.599L612.135 459.803L611.374 461.58L606.187 463.606L602.819 470.609L600.046 473.296L593.577 474.588L569.474 475.983L568.058 476.952L568.148 478.582L574.483 480.329L571.561 484.205L569.489 489.872L567.701 488.977L564.69 490.416L558.683 491.223L555.24 489.432L553.853 490.871L553.212 493.308L560.442 500.737L557.55 505.773L551.215 500.899L520.479 485.688L489.505 484.19L488.313 484.601L488.507 486.07L490.191 488.052L487.866 492.192L489.982 494.38L490.057 497.037L488.462 498.608L487.911 501.222L485.451 502.411L485.347 504.085L483.007 506.507L476.299 508.24L471.44 505.421L470.158 503.013L470.516 499.93L462.243 493.998L460.708 491.003L457.577 488.228L438.364 489.006L433.982 488.243L423.294 485.057L421.699 481.592L419.717 480.49L413.501 481.195L407.286 480.358L403.977 481.298L392.768 480.417L392.216 478.288L393.9 476.746L392.678 472.665L394.705 467.071L392.186 462.372L393.11 459.245L391.486 457.704L391.471 455.868L389.608 455.472L388.996 454.283L389.518 450.025L387.923 446.545L388.639 443.55L386.79 444.974L386.626 442.361L389.235 440.232L400.876 441.92L404.752 438.661L408.821 437.926L410.893 435.063L408.597 433.683L404.29 433.302L398.879 429.66L402.859 419.397L408.627 415.874L415.141 416.373L424.695 413.334L436.024 412.805L436.054 409.369L433.356 405.611L426.723 401.588L428.303 390.899L435.323 384.307L438.26 383.147L441.852 379.065L436.337 375.483L436.709 368.758L434.936 366.908L438.752 363.487L444.192 361.696L445.429 359.919Z" fill="#19191D" fill-opacity="0.15" stroke="#323338" stroke-width="2" mask="url(#path-8-inside-7_15_207)"/>
<mask id="path-9-inside-8_15_207" fill="white">
<path d="M127.804 41.7246L132.887 40.6822L134.288 39.3901L136.196 40.0655L141.249 38.2596L147.405 38.0541L151.355 42.0476L154.276 47.0103L152.398 51.4149L152.532 57.0823L154.53 59.7545L156.84 60.2684L151.638 62.8378L149.492 65.6421L145.288 67.1397L142.665 69.5035L138.909 80.4125L140.921 85.3017L145.318 90.4992L145.557 95.961L148.836 99.661L150.341 106.297L146.987 112.552L134.079 115.738L125.24 116.09L106.22 124.65L107.994 131.874L107.353 138.187L105.415 142.504L102.598 143.267L103.284 147.643L108.635 151.255L109.261 156.32L115.775 156.188L119.308 158.419L121.066 160.783L121.812 164.777L118.324 171.164L114.299 174.394L108.024 175.201L102.628 178.549L103.895 186.815L99.2743 195.58L95.7864 198.796L94.8324 202.29L77.0499 210.424L74.9781 216.84L70.7597 219.087L72.6677 223.168L67.9426 236.529L67.5103 239.774L68.5537 243.21L66.4669 262.179L72.146 276.054L72.8465 280.84L71.6243 286.684L65.5726 290.663L67.3612 304.729L69.1648 306.549L67.6594 308.355L62.7852 304.068L60.2065 303.363L60.5046 301.175L59.2973 298.107L55.2876 295.303L47.164 296.477L45.1667 295.655L44.0935 292.968L39.7708 290.501L38.3697 285.612L32.0348 283.469L29.4859 281.002L30.7231 277.933L29.471 276.304L21.9287 275.232L10.6004 265.042L3.1028 264.807L1.37374 263.882L0.375061 261.254L0.807326 249.215L6.06904 238.937L8.78187 238.306L9.40791 235.487L11.6587 234.856L10.1383 233.549L10.0936 230.216L12.0462 226.692L10.9581 223.991L13.2983 218.705L18.2321 214.198L23.151 216.312L26.1917 216.385L28.0102 213.933L31.0659 212.186L29.5604 208.838L29.6498 205.124L27.6525 202.643L28.1891 199.897L29.2921 200L29.7393 201.306L32.4968 201.82L33.7042 203.744L35.2395 203.303L34.5538 197.284L35.5227 196.285L36.0593 189.399L37.7287 186.668L37.3263 182.895L34.4197 182.19L34.1066 179.958L32.7502 179.4L32.4819 176.949L31.2746 175.906L32.1093 174.453L31.5876 171.105L27.3842 168.8L26.9966 163.426L27.101 162.589L32.0049 160.681L33.0931 162.281L35.2842 161.826L33.6893 158.698L35.2395 155.982L37.1921 156.848L37.4902 154.822L42.6774 150.932L43.3035 148.494L41.9321 147.481L42.3644 145.323L47.3876 142.034L49.1167 142.005L51.4867 137.527L51.3973 134.619L52.9325 130.435L48.6844 125.81L46.538 118.396L45.107 116.516L45.6287 112.567L47.5516 112.64L49.7427 110.761L50.8905 105.813L55.0044 103.243L57.3297 104.491L59.7146 103.934L63.5454 104.756L65.2297 100.747L72.9509 93.8174L74.9184 88.4437L74.6501 83.76L78.7194 78.724L82.9079 77.0209L90.5992 77.5494L96.3826 71.1186L99.7811 70.6928L103.418 61.8541L106.34 60.0334L109.544 55.3645L113.986 54.2486L115.432 51.6352L118.846 49.4035L119.278 47.1864L117.832 42.5175L122.93 35.2057L125.136 35.3231L125.508 40.183L127.804 41.7246Z"/>
</mask>
<path d="M127.804 41.7246L132.887 40.6822L134.288 39.3901L136.196 40.0655L141.249 38.2596L147.405 38.0541L151.355 42.0476L154.276 47.0103L152.398 51.4149L152.532 57.0823L154.53 59.7545L156.84 60.2684L151.638 62.8378L149.492 65.6421L145.288 67.1397L142.665 69.5035L138.909 80.4125L140.921 85.3017L145.318 90.4992L145.557 95.961L148.836 99.661L150.341 106.297L146.987 112.552L134.079 115.738L125.24 116.09L106.22 124.65L107.994 131.874L107.353 138.187L105.415 142.504L102.598 143.267L103.284 147.643L108.635 151.255L109.261 156.32L115.775 156.188L119.308 158.419L121.066 160.783L121.812 164.777L118.324 171.164L114.299 174.394L108.024 175.201L102.628 178.549L103.895 186.815L99.2743 195.58L95.7864 198.796L94.8324 202.29L77.0499 210.424L74.9781 216.84L70.7597 219.087L72.6677 223.168L67.9426 236.529L67.5103 239.774L68.5537 243.21L66.4669 262.179L72.146 276.054L72.8465 280.84L71.6243 286.684L65.5726 290.663L67.3612 304.729L69.1648 306.549L67.6594 308.355L62.7852 304.068L60.2065 303.363L60.5046 301.175L59.2973 298.107L55.2876 295.303L47.164 296.477L45.1667 295.655L44.0935 292.968L39.7708 290.501L38.3697 285.612L32.0348 283.469L29.4859 281.002L30.7231 277.933L29.471 276.304L21.9287 275.232L10.6004 265.042L3.1028 264.807L1.37374 263.882L0.375061 261.254L0.807326 249.215L6.06904 238.937L8.78187 238.306L9.40791 235.487L11.6587 234.856L10.1383 233.549L10.0936 230.216L12.0462 226.692L10.9581 223.991L13.2983 218.705L18.2321 214.198L23.151 216.312L26.1917 216.385L28.0102 213.933L31.0659 212.186L29.5604 208.838L29.6498 205.124L27.6525 202.643L28.1891 199.897L29.2921 200L29.7393 201.306L32.4968 201.82L33.7042 203.744L35.2395 203.303L34.5538 197.284L35.5227 196.285L36.0593 189.399L37.7287 186.668L37.3263 182.895L34.4197 182.19L34.1066 179.958L32.7502 179.4L32.4819 176.949L31.2746 175.906L32.1093 174.453L31.5876 171.105L27.3842 168.8L26.9966 163.426L27.101 162.589L32.0049 160.681L33.0931 162.281L35.2842 161.826L33.6893 158.698L35.2395 155.982L37.1921 156.848L37.4902 154.822L42.6774 150.932L43.3035 148.494L41.9321 147.481L42.3644 145.323L47.3876 142.034L49.1167 142.005L51.4867 137.527L51.3973 134.619L52.9325 130.435L48.6844 125.81L46.538 118.396L45.107 116.516L45.6287 112.567L47.5516 112.64L49.7427 110.761L50.8905 105.813L55.0044 103.243L57.3297 104.491L59.7146 103.934L63.5454 104.756L65.2297 100.747L72.9509 93.8174L74.9184 88.4437L74.6501 83.76L78.7194 78.724L82.9079 77.0209L90.5992 77.5494L96.3826 71.1186L99.7811 70.6928L103.418 61.8541L106.34 60.0334L109.544 55.3645L113.986 54.2486L115.432 51.6352L118.846 49.4035L119.278 47.1864L117.832 42.5175L122.93 35.2057L125.136 35.3231L125.508 40.183L127.804 41.7246Z" fill="#19191D" fill-opacity="0.15" stroke="#323338" stroke-width="2" mask="url(#path-9-inside-8_15_207)"/>
<mask id="path-10-inside-9_15_207" fill="white">
<path d="M1177.27 421.218L1181.04 421.717L1183.02 420.851L1189.28 421.849L1192.62 424.287L1192.56 426.386L1189 429.455L1192.23 434.491L1189.61 440.775L1186.24 443.873L1185.26 453.857L1181.53 457.395L1179.43 463.826L1175.38 467.115V471.182L1172.99 473.208L1172.42 475.043L1173.42 476.1L1170.1 482.238L1170.58 485.703L1173.54 490.372V493.176L1170.64 495.569L1169.67 500.121L1169.85 502.602L1172.17 504.878L1172.71 507.359L1168.36 516.638L1168.07 521.938L1165.72 526.475L1165.78 535.593L1161.96 543.874L1166.92 548.205L1167.39 552.933L1169.97 555.722L1173.38 556.853L1175.63 556.148L1176.88 560.758L1180.24 563.842L1183.02 564.179L1181.35 570.331L1184.41 573.517L1184.42 579.699L1189.15 584.25L1188.03 587.891L1190.39 594.528L1190.67 607.213L1187.73 613.189L1186.73 620.471L1183.92 622.6L1182.68 625.801L1182.77 630.367L1180.21 631.116L1180.12 632.76L1178.95 633.377L1179.79 636.005L1177.95 640.85L1179.3 647.78L1177.54 649.674L1178.52 650.878L1176.12 654.681L1168.27 661.905L1167.94 665.399L1164.87 665.473L1163.27 664.239L1162.26 662.654L1162.38 659.379L1158.59 658.601L1153.02 655.298L1151.3 652.963L1152.63 650.908L1148.8 650.438L1150.36 648.896L1147.43 644.448L1146.82 646.077L1142.87 648.177L1143.55 649.924L1141.87 650.952L1141.45 652.552L1138.38 651.789L1138.59 650.276L1136.4 648.617L1132.46 647.384L1132.88 648.177L1130.67 650.012L1131.12 652.728L1129.15 656.81L1127.32 656.986L1126.72 655.401L1125.31 655.254L1124.61 657.03L1123 656.326L1121.64 653.874L1117.99 652.537L1114.84 645.622L1112.44 631.189L1114.81 629.031L1112.86 620.662L1117.77 606.905L1119.2 598.154L1118.45 595.115L1110.04 590.035L1106.18 588.831L1104.98 585.997L1103.07 584.544L1095.44 581.328L1096.2 577.805L1092.71 570.038L1097.34 564.077L1098.61 558.63L1106.18 549.336L1117.59 543.404L1122.36 539.073L1123.79 535.857L1129.9 529.412L1128.36 527.444L1117.75 522.438L1111.4 520.867L1101.06 520.103L1094.45 516.315L1092.26 510.853L1087.42 505.465L1086.82 495.51L1090.65 470.639L1097.61 466.557L1099.04 463.62L1100.31 455.178L1102.65 452.036L1104.75 452.594L1107.32 455.34L1109.18 453.078L1110.03 449.746L1113.4 447.749L1116.84 442.478L1119.26 425.755L1122.76 426.988L1124.2 430.292L1126.53 427.326L1127.93 427.208L1134.37 430.615L1137.31 426.68L1141.96 427.59L1145.95 431.569L1147.04 430.717L1150.36 430.864L1152.38 429.983L1155.66 426.137L1157.97 419.603L1165.36 413.583L1171.56 415.36L1177.27 421.218Z"/>
</mask>
<path d="M1177.27 421.218L1181.04 421.717L1183.02 420.851L1189.28 421.849L1192.62 424.287L1192.56 426.386L1189 429.455L1192.23 434.491L1189.61 440.775L1186.24 443.873L1185.26 453.857L1181.53 457.395L1179.43 463.826L1175.38 467.115V471.182L1172.99 473.208L1172.42 475.043L1173.42 476.1L1170.1 482.238L1170.58 485.703L1173.54 490.372V493.176L1170.64 495.569L1169.67 500.121L1169.85 502.602L1172.17 504.878L1172.71 507.359L1168.36 516.638L1168.07 521.938L1165.72 526.475L1165.78 535.593L1161.96 543.874L1166.92 548.205L1167.39 552.933L1169.97 555.722L1173.38 556.853L1175.63 556.148L1176.88 560.758L1180.24 563.842L1183.02 564.179L1181.35 570.331L1184.41 573.517L1184.42 579.699L1189.15 584.25L1188.03 587.891L1190.39 594.528L1190.67 607.213L1187.73 613.189L1186.73 620.471L1183.92 622.6L1182.68 625.801L1182.77 630.367L1180.21 631.116L1180.12 632.76L1178.95 633.377L1179.79 636.005L1177.95 640.85L1179.3 647.78L1177.54 649.674L1178.52 650.878L1176.12 654.681L1168.27 661.905L1167.94 665.399L1164.87 665.473L1163.27 664.239L1162.26 662.654L1162.38 659.379L1158.59 658.601L1153.02 655.298L1151.3 652.963L1152.63 650.908L1148.8 650.438L1150.36 648.896L1147.43 644.448L1146.82 646.077L1142.87 648.177L1143.55 649.924L1141.87 650.952L1141.45 652.552L1138.38 651.789L1138.59 650.276L1136.4 648.617L1132.46 647.384L1132.88 648.177L1130.67 650.012L1131.12 652.728L1129.15 656.81L1127.32 656.986L1126.72 655.401L1125.31 655.254L1124.61 657.03L1123 656.326L1121.64 653.874L1117.99 652.537L1114.84 645.622L1112.44 631.189L1114.81 629.031L1112.86 620.662L1117.77 606.905L1119.2 598.154L1118.45 595.115L1110.04 590.035L1106.18 588.831L1104.98 585.997L1103.07 584.544L1095.44 581.328L1096.2 577.805L1092.71 570.038L1097.34 564.077L1098.61 558.63L1106.18 549.336L1117.59 543.404L1122.36 539.073L1123.79 535.857L1129.9 529.412L1128.36 527.444L1117.75 522.438L1111.4 520.867L1101.06 520.103L1094.45 516.315L1092.26 510.853L1087.42 505.465L1086.82 495.51L1090.65 470.639L1097.61 466.557L1099.04 463.62L1100.31 455.178L1102.65 452.036L1104.75 452.594L1107.32 455.34L1109.18 453.078L1110.03 449.746L1113.4 447.749L1116.84 442.478L1119.26 425.755L1122.76 426.988L1124.2 430.292L1126.53 427.326L1127.93 427.208L1134.37 430.615L1137.31 426.68L1141.96 427.59L1145.95 431.569L1147.04 430.717L1150.36 430.864L1152.38 429.983L1155.66 426.137L1157.97 419.603L1165.36 413.583L1171.56 415.36L1177.27 421.218Z" fill="#19191D" fill-opacity="0.15" stroke="#323338" stroke-width="2" mask="url(#path-10-inside-9_15_207)"/>
<mask id="path-11-inside-10_15_207" fill="white">
<path d="M677.735 428.001L673.487 432.67L672.816 434.755L674.023 437.148L670.252 441.905L670.699 444.064L683.011 446.53L689.421 445.194L690.703 447.044L694.772 448.762L695.368 452.33L698.006 454.121L702.612 453.46L704.49 454.723L708.262 455.178L711.973 450.127L717.548 452.829L721.706 450.304L731.977 447.587L746.808 453.739L755.781 454.899L758.091 458.54L760.685 469.86L762.846 472.767L761.788 475.513L763.159 486.363L771.715 492.5L790.929 498.77L797.502 502.103L791.018 509.224L790.317 512.336L792.076 518.136L794.774 519.413L797.532 522.614L799.827 527.899L800.036 531.012L796.727 541.715L797.234 544.916L787.187 554.68L784.966 561.258L787.038 567.116L786.919 572.578L784.34 578.994L776.709 589.947L773.012 603.22L768.779 601.502L762.444 601.105L758.762 599.755L754.335 600.151L749.953 591.444L752.069 588.2L752.338 582.694L739.847 582.268L736.463 583.31L737.253 584.235L736.448 585.087L735.3 584.397L733.229 585.821L728.667 585.234L727.669 584.793L728.489 581.798L732.29 580.168L725.254 578.583L723.808 577.643L724.658 576.703L723.913 575.147L719.486 574.428L720.917 571.095L718.04 567.556L709.141 565.868L702.851 562.814L702.821 560.2L698.603 558.204L696.725 558.439L693.952 562.094L691.06 558.644L688.959 561.522L671.802 554.005L672.443 549.761L676.512 545.004L675.976 543.419L676.855 543.052L678.063 535.769L676.87 535.49L676.408 533.919L677.615 532.289L678.405 525.521L671.236 510.912L668.18 506.816L648.505 503.453L646.284 504.29L639.263 501.603L626.981 500.913L621.585 498.329L620.184 499.416L617.724 497.448L617.292 492.853L615.205 491.326L614.46 488.874L610.704 488.889L610.108 490.46L609.094 490.504L607.991 485.996L604.428 485.394L599.808 482.898L598.884 481.268L599.659 477.715L595.977 478.978L594.233 477.334L592.653 477.627L591.624 481.562L589.94 482.957L587.973 483.016L584.917 489.902L583.456 489.579L580.848 491.179L577.226 489.637L574.707 490.812L572.784 489.535L569.49 489.872L571.561 484.205L574.483 480.329L568.148 478.582L568.059 476.952L569.475 475.983L593.577 474.588L600.046 473.296L602.819 470.609L606.187 463.606L611.375 461.579L612.135 459.803L616.278 458.599L618.231 456.426L632.615 449.848L634.806 451.478L640.157 449.525L644.823 444.754L645.687 442.184L646.179 441.039L642.99 432.112L655.063 428.221L655.972 426.504L660.802 424.184L665.408 420.308L671.37 419.794L677.735 428.001Z"/>
</mask>
<path d="M677.735 428.001L673.487 432.67L672.816 434.755L674.023 437.148L670.252 441.905L670.699 444.064L683.011 446.53L689.421 445.194L690.703 447.044L694.772 448.762L695.368 452.33L698.006 454.121L702.612 453.46L704.49 454.723L708.262 455.178L711.973 450.127L717.548 452.829L721.706 450.304L731.977 447.587L746.808 453.739L755.781 454.899L758.091 458.54L760.685 469.86L762.846 472.767L761.788 475.513L763.159 486.363L771.715 492.5L790.929 498.77L797.502 502.103L791.018 509.224L790.317 512.336L792.076 518.136L794.774 519.413L797.532 522.614L799.827 527.899L800.036 531.012L796.727 541.715L797.234 544.916L787.187 554.68L784.966 561.258L787.038 567.116L786.919 572.578L784.34 578.994L776.709 589.947L773.012 603.22L768.779 601.502L762.444 601.105L758.762 599.755L754.335 600.151L749.953 591.444L752.069 588.2L752.338 582.694L739.847 582.268L736.463 583.31L737.253 584.235L736.448 585.087L735.3 584.397L733.229 585.821L728.667 585.234L727.669 584.793L728.489 581.798L732.29 580.168L725.254 578.583L723.808 577.643L724.658 576.703L723.913 575.147L719.486 574.428L720.917 571.095L718.04 567.556L709.141 565.868L702.851 562.814L702.821 560.2L698.603 558.204L696.725 558.439L693.952 562.094L691.06 558.644L688.959 561.522L671.802 554.005L672.443 549.761L676.512 545.004L675.976 543.419L676.855 543.052L678.063 535.769L676.87 535.49L676.408 533.919L677.615 532.289L678.405 525.521L671.236 510.912L668.18 506.816L648.505 503.453L646.284 504.29L639.263 501.603L626.981 500.913L621.585 498.329L620.184 499.416L617.724 497.448L617.292 492.853L615.205 491.326L614.46 488.874L610.704 488.889L610.108 490.46L609.094 490.504L607.991 485.996L604.428 485.394L599.808 482.898L598.884 481.268L599.659 477.715L595.977 478.978L594.233 477.334L592.653 477.627L591.624 481.562L589.94 482.957L587.973 483.016L584.917 489.902L583.456 489.579L580.848 491.179L577.226 489.637L574.707 490.812L572.784 489.535L569.49 489.872L571.561 484.205L574.483 480.329L568.148 478.582L568.059 476.952L569.475 475.983L593.577 474.588L600.046 473.296L602.819 470.609L606.187 463.606L611.375 461.579L612.135 459.803L616.278 458.599L618.231 456.426L632.615 449.848L634.806 451.478L640.157 449.525L644.823 444.754L645.687 442.184L646.179 441.039L642.99 432.112L655.063 428.221L655.972 426.504L660.802 424.184L665.408 420.308L671.37 419.794L677.735 428.001Z" fill="#19191D" fill-opacity="0.15" stroke="#323338" stroke-width="2" mask="url(#path-11-inside-10_15_207)"/>
<mask id="path-12-inside-11_15_207" fill="white">
<path d="M369.366 237.998L373.599 240.523L379.814 241.918L384.748 249.45L389.25 254.119L388.743 260.667L402.665 266.922L406.078 266.114L409.685 267.641L417.049 266.099L425.083 267.113L436.665 273.118L442.403 274.322L453.687 280.106L453.076 280.723L454.417 284.467L450.959 293.658L448.336 296.33L445.325 298.694L438.573 300.955L429.063 300.265L425.977 303.069L428.213 304.626L429.853 308.502L428.303 311.6L421.133 310.19L418.688 314.052L414.753 315.241L413.024 316.988L413.889 319L416.348 320.541L417.302 323.14L413.516 323.874L413.621 326.047L416.945 329.586L418.987 334.064L421.67 335.899L427.244 343.079L438.334 349.216L445.34 357.056L445.429 359.919L444.192 361.696L438.752 363.487L434.936 366.908L436.709 368.758L436.337 375.483L441.852 379.065L438.26 383.147L435.323 384.307L428.303 390.899L426.723 401.588L433.356 405.611L436.054 409.369L436.024 412.805L424.695 413.334L415.141 416.373L408.627 415.874L402.859 419.397L398.879 429.66L404.29 433.301L408.597 433.683L410.893 435.063L408.821 437.926L404.752 438.66L400.876 441.92L389.235 440.231L386.626 442.36L386.79 444.974L383.004 445.532L380.932 444.798L380.321 446.002L376.982 446.222L371.765 448.806L363.686 450.524L359.796 449.907L353.655 452.109L351.27 451.977L340.896 445.84L338.496 441.773L327.302 435.504L314.438 424.448L307.522 421.233L306.314 422.451L302.543 421.189L298.966 417.988L295.135 412.041L299.1 409.413L304.466 409.149L307.76 407.813L314.602 409.164L315.019 403.937L313.395 401.955L313.499 396.508L311.248 393.938L308.207 393.41L306.955 387.977L295.076 384.497L290.008 378.096L287.936 373.442L275.892 367.349L274.968 363.781L272.434 361.828L269.378 361.446L266.606 359.259L266.412 357.776L262.432 355.999L256.455 356.586L254.249 353.268L249.047 348.673L248.764 346.353L250.642 342.491L250.373 340.935L255.128 336.545L262.253 339.012L272.747 346.177L276.622 346.324L284.448 337.088L284.686 333.932L282.346 327.618L286.818 323.772L290.47 317.326L289.948 311.115L286.907 304.347L288.741 297.71L291.901 296.139L295.493 296.36L312.933 300.427L316.57 288.563L324.648 285.48L328.181 283.087L327.287 276.715L331.147 271.752L336.886 272.618L343.951 263.398L357.396 256.233L361.212 252.019L361.793 242.373L369.366 237.998Z"/>
</mask>
<path d="M369.366 237.998L373.599 240.523L379.814 241.918L384.748 249.45L389.25 254.119L388.743 260.667L402.665 266.922L406.078 266.114L409.685 267.641L417.049 266.099L425.083 267.113L436.665 273.118L442.403 274.322L453.687 280.106L453.076 280.723L454.417 284.467L450.959 293.658L448.336 296.33L445.325 298.694L438.573 300.955L429.063 300.265L425.977 303.069L428.213 304.626L429.853 308.502L428.303 311.6L421.133 310.19L418.688 314.052L414.753 315.241L413.024 316.988L413.889 319L416.348 320.541L417.302 323.14L413.516 323.874L413.621 326.047L416.945 329.586L418.987 334.064L421.67 335.899L427.244 343.079L438.334 349.216L445.34 357.056L445.429 359.919L444.192 361.696L438.752 363.487L434.936 366.908L436.709 368.758L436.337 375.483L441.852 379.065L438.26 383.147L435.323 384.307L428.303 390.899L426.723 401.588L433.356 405.611L436.054 409.369L436.024 412.805L424.695 413.334L415.141 416.373L408.627 415.874L402.859 419.397L398.879 429.66L404.29 433.301L408.597 433.683L410.893 435.063L408.821 437.926L404.752 438.66L400.876 441.92L389.235 440.231L386.626 442.36L386.79 444.974L383.004 445.532L380.932 444.798L380.321 446.002L376.982 446.222L371.765 448.806L363.686 450.524L359.796 449.907L353.655 452.109L351.27 451.977L340.896 445.84L338.496 441.773L327.302 435.504L314.438 424.448L307.522 421.233L306.314 422.451L302.543 421.189L298.966 417.988L295.135 412.041L299.1 409.413L304.466 409.149L307.76 407.813L314.602 409.164L315.019 403.937L313.395 401.955L313.499 396.508L311.248 393.938L308.207 393.41L306.955 387.977L295.076 384.497L290.008 378.096L287.936 373.442L275.892 367.349L274.968 363.781L272.434 361.828L269.378 361.446L266.606 359.259L266.412 357.776L262.432 355.999L256.455 356.586L254.249 353.268L249.047 348.673L248.764 346.353L250.642 342.491L250.373 340.935L255.128 336.545L262.253 339.012L272.747 346.177L276.622 346.324L284.448 337.088L284.686 333.932L282.346 327.618L286.818 323.772L290.47 317.326L289.948 311.115L286.907 304.347L288.741 297.71L291.901 296.139L295.493 296.36L312.933 300.427L316.57 288.563L324.648 285.48L328.181 283.087L327.287 276.715L331.147 271.752L336.886 272.618L343.951 263.398L357.396 256.233L361.212 252.019L361.793 242.373L369.366 237.998Z" fill="#19191D" fill-opacity="0.15" stroke="#323338" stroke-width="2" mask="url(#path-12-inside-11_15_207)"/>
<mask id="path-13-inside-12_15_207" fill="white">
<path d="M979.769 384.953L980.589 391.618L982.273 393.542L984.777 393.219L989.517 397.712L995.688 395.627L997.298 396.023L998.475 399.239L1005.99 403.056L1008.54 406.829L1012.23 408.121L1016.09 407.886L1015.13 417.9L1020.43 431.863L1016.09 437.589L1015.5 440.628L1020.39 445.781L1018.26 450.729L1017.69 460.009L1013.69 467.966L1011.43 487.611L1006.32 494.938L1007.81 503.351L1012.67 508.636L1012.5 513.76L1017.05 515.17L1011.37 521.292L1008.22 521.16L1005.41 522.966L1006.51 528.252L1008.49 530.205L1008.79 534.741L1005.53 544.593L1006.29 547.721L1012.05 551.832L1012.26 564.253L1015.66 570.977L1014.11 577.379L1015.56 580.139L1019.31 583.619L1027.05 578.597L1038.41 575.72L1042.57 576.454L1045.29 579.772L1044.04 586.174L1041.57 589.594L1028.97 601.751L1020.58 613.468L1016.48 617.153L1010.16 626.902L1008.18 633.142L1008.78 639.441L1007.15 639.646L1006.81 644.007L1001.61 644.286L1001.67 648.324L996.553 649.322L993.765 651.803L982.869 648.926L977.98 654.27L973.255 651.98L972.435 650.276L962.851 647.178L960.242 644.066L954.22 642.48L949.123 635.491L943.652 635.359L937.69 631.366L928.597 628.4L928.329 626.932L920.519 625.111L920.876 623.408L915.793 622.879L913.677 623.98L907.819 623.922L904.048 627.666L899.71 626.932L899.099 623.878L896.774 623.848L901.29 614.716L898.741 609.225L895.253 607.199L893.167 601.193L894.762 593.089L893.211 578.891L895.089 578.098L902.617 581.593L908.609 581.152L912.693 578.098L915.674 574.149L922.441 572.167L924.409 570.273L927.599 557.161L925.78 553.432L926.347 550.261L925.437 545.959L928.866 535.49L912.678 524.009L906.776 523.421L905.121 521.836L908.907 514.392L906.939 509.18L906.761 500.796L912.365 491.737L919.445 485.893L921.622 481.239L928.135 473.458L933.233 470.565L934.56 467.379L941.014 459.744L944.055 452.726L951.269 450.23L956.143 447.25L956.695 440.496L952.864 430.159L953.415 423.978L955.055 420.587L953.043 413.98L947.766 407.505L944.86 404.348L945.664 398.548L946.842 396.126L952.178 392.984L956.903 386.979L959.959 386.259L964.565 387.83L971.004 382.927L977.026 383.015L979.769 384.953Z"/>
</mask>
<path d="M979.769 384.953L980.589 391.618L982.273 393.542L984.777 393.219L989.517 397.712L995.688 395.627L997.298 396.023L998.475 399.239L1005.99 403.056L1008.54 406.829L1012.23 408.121L1016.09 407.886L1015.13 417.9L1020.43 431.863L1016.09 437.589L1015.5 440.628L1020.39 445.781L1018.26 450.729L1017.69 460.009L1013.69 467.966L1011.43 487.611L1006.32 494.938L1007.81 503.351L1012.67 508.636L1012.5 513.76L1017.05 515.17L1011.37 521.292L1008.22 521.16L1005.41 522.966L1006.51 528.252L1008.49 530.205L1008.79 534.741L1005.53 544.593L1006.29 547.721L1012.05 551.832L1012.26 564.253L1015.66 570.977L1014.11 577.379L1015.56 580.139L1019.31 583.619L1027.05 578.597L1038.41 575.72L1042.57 576.454L1045.29 579.772L1044.04 586.174L1041.57 589.594L1028.97 601.751L1020.58 613.468L1016.48 617.153L1010.16 626.902L1008.18 633.142L1008.78 639.441L1007.15 639.646L1006.81 644.007L1001.61 644.286L1001.67 648.324L996.553 649.322L993.765 651.803L982.869 648.926L977.98 654.27L973.255 651.98L972.435 650.276L962.851 647.178L960.242 644.066L954.22 642.48L949.123 635.491L943.652 635.359L937.69 631.366L928.597 628.4L928.329 626.932L920.519 625.111L920.876 623.408L915.793 622.879L913.677 623.98L907.819 623.922L904.048 627.666L899.71 626.932L899.099 623.878L896.774 623.848L901.29 614.716L898.741 609.225L895.253 607.199L893.167 601.193L894.762 593.089L893.211 578.891L895.089 578.098L902.617 581.593L908.609 581.152L912.693 578.098L915.674 574.149L922.441 572.167L924.409 570.273L927.599 557.161L925.78 553.432L926.347 550.261L925.437 545.959L928.866 535.49L912.678 524.009L906.776 523.421L905.121 521.836L908.907 514.392L906.939 509.18L906.761 500.796L912.365 491.737L919.445 485.893L921.622 481.239L928.135 473.458L933.233 470.565L934.56 467.379L941.014 459.744L944.055 452.726L951.269 450.23L956.143 447.25L956.695 440.496L952.864 430.159L953.415 423.978L955.055 420.587L953.043 413.98L947.766 407.505L944.86 404.348L945.664 398.548L946.842 396.126L952.178 392.984L956.903 386.979L959.959 386.259L964.565 387.83L971.004 382.927L977.026 383.015L979.769 384.953Z" fill="#19191D" fill-opacity="0.15" stroke="#323338" stroke-width="2" mask="url(#path-13-inside-12_15_207)"/>
<mask id="path-14-inside-13_15_207" fill="white">
<path d="M165.441 65.3485L168.318 67.0223L170.404 66.6993L172.983 65.9505L176.769 62.2505L182.627 67.0663L187.427 67.6096L190.989 70.7075L194.537 70.6195L198.844 67.2278L204.851 70.0468L207.475 72.9393L207.028 79.1205L208.041 87.9886L211.842 86.0652L213.959 86.0799L220.145 82.3506L225.391 82.747L235.87 79.3701L240.148 80.6328L242.682 83.8482L255.382 85.7422L256.261 90.5874L255.501 97.2972L253.742 97.488L251.64 99.9694L249.628 108.749L250.016 112.464L248.644 116.061L243.278 119.688L242.906 123.329L244.441 132.476L249.3 132.887L252.43 135.618L253.012 149.625L255.307 152.37L258.527 164.85L257.126 170.488L252.52 176.802L247.422 181.001L237.48 185.391L235.08 184.393L234.439 180.326L230.191 175.745L224.601 175.891L212.081 186.639L208.295 191.264L209.368 193.965L211.797 196.006L210.799 207.282L212.736 211.158L217.76 215.636L221.158 216.371L221.412 217.883L209.144 225.209L203.748 232.433L203.793 242.373L208.831 247.747L210.188 252.592L218.371 261.871L220.1 267.098L223.454 269.638L225.034 274.703L221.173 275.937L218.177 274.586L217.313 271.077L208.295 261.754L203.063 251.726L199.888 252.797L196.132 252.445L191.913 254.28L189.454 251.27L181.569 252.988L169.406 251.975L152.696 242.211L147.733 242.285L136.539 245.926L141.696 254.354L149.82 258.333L159.359 260.682L159.419 265.204L164.323 268.449L168.019 262.253L171.284 261.401L172.953 271.429L174.951 277.317L180.794 287.227L181.39 291.794L170.538 303.73L169.227 308.414L163.801 315.094L156.468 321.833L151.921 324.579L151.072 329.336L147.33 334.431L143.962 332.126L142.993 334.078L140.831 332.405L143.38 329.248L141.964 328.103L139.982 328.675L139.579 326.282L137.865 325.974L133.483 328.455L132.589 327.383L134.377 325.812L131.471 326.649L128.668 325.783L129.101 323.302L127.133 325.225L126.015 325.093L125.806 323.918L124.703 324.873L123.258 324.153L122.796 321.364L124.316 318.78L121.767 317.032L117.728 316.988L117.921 319.059L114.404 318.148L111.795 315.182L106.369 313.758L106.519 311.145L104.208 309.368L104.059 307.107L100.541 305.844L98.7974 306.858L93.9977 305.463L92.85 303.686L93.4015 301.131L90.9272 300.75L90.8377 298.312L89.2875 297.02L89.0341 294.906L83.5787 295.42L80.0609 293.409L78.0785 293.893L78.3468 292.337L76.6624 291.412L77.6313 288.446L71.6243 286.684L72.8466 280.841L72.146 276.054L66.4669 262.179L68.5537 243.21L67.5103 239.774L67.9426 236.529L72.6677 223.168L70.7598 219.087L74.9781 216.84L77.05 210.424L94.8325 202.29L95.7864 198.796L99.2744 195.58L103.895 186.815L102.628 178.549L108.024 175.201L114.299 174.394L118.324 171.164L121.812 164.777L121.066 160.783L119.308 158.42L115.775 156.188L109.261 156.32L108.635 151.255L103.284 147.643L102.598 143.267L105.415 142.504L107.353 138.187L107.994 131.874L106.22 124.65L125.24 116.091L134.079 115.738L146.987 112.552L150.341 106.297L148.836 99.661L145.557 95.9611L145.318 90.4993L140.921 85.3017L138.909 80.4125L142.665 69.5036L145.288 67.1397L149.492 65.6422L151.638 62.8378L156.84 60.2684L165.441 65.3485Z"/>
</mask>
<path d="M165.441 65.3485L168.318 67.0223L170.404 66.6993L172.983 65.9505L176.769 62.2505L182.627 67.0663L187.427 67.6096L190.989 70.7075L194.537 70.6195L198.844 67.2278L204.851 70.0468L207.475 72.9393L207.028 79.1205L208.041 87.9886L211.842 86.0652L213.959 86.0799L220.145 82.3506L225.391 82.747L235.87 79.3701L240.148 80.6328L242.682 83.8482L255.382 85.7422L256.261 90.5874L255.501 97.2972L253.742 97.488L251.64 99.9694L249.628 108.749L250.016 112.464L248.644 116.061L243.278 119.688L242.906 123.329L244.441 132.476L249.3 132.887L252.43 135.618L253.012 149.625L255.307 152.37L258.527 164.85L257.126 170.488L252.52 176.802L247.422 181.001L237.48 185.391L235.08 184.393L234.439 180.326L230.191 175.745L224.601 175.891L212.081 186.639L208.295 191.264L209.368 193.965L211.797 196.006L210.799 207.282L212.736 211.158L217.76 215.636L221.158 216.371L221.412 217.883L209.144 225.209L203.748 232.433L203.793 242.373L208.831 247.747L210.188 252.592L218.371 261.871L220.1 267.098L223.454 269.638L225.034 274.703L221.173 275.937L218.177 274.586L217.313 271.077L208.295 261.754L203.063 251.726L199.888 252.797L196.132 252.445L191.913 254.28L189.454 251.27L181.569 252.988L169.406 251.975L152.696 242.211L147.733 242.285L136.539 245.926L141.696 254.354L149.82 258.333L159.359 260.682L159.419 265.204L164.323 268.449L168.019 262.253L171.284 261.401L172.953 271.429L174.951 277.317L180.794 287.227L181.39 291.794L170.538 303.73L169.227 308.414L163.801 315.094L156.468 321.833L151.921 324.579L151.072 329.336L147.33 334.431L143.962 332.126L142.993 334.078L140.831 332.405L143.38 329.248L141.964 328.103L139.982 328.675L139.579 326.282L137.865 325.974L133.483 328.455L132.589 327.383L134.377 325.812L131.471 326.649L128.668 325.783L129.101 323.302L127.133 325.225L126.015 325.093L125.806 323.918L124.703 324.873L123.258 324.153L122.796 321.364L124.316 318.78L121.767 317.032L117.728 316.988L117.921 319.059L114.404 318.148L111.795 315.182L106.369 313.758L106.519 311.145L104.208 309.368L104.059 307.107L100.541 305.844L98.7974 306.858L93.9977 305.463L92.85 303.686L93.4015 301.131L90.9272 300.75L90.8377 298.312L89.2875 297.02L89.0341 294.906L83.5787 295.42L80.0609 293.409L78.0785 293.893L78.3468 292.337L76.6624 291.412L77.6313 288.446L71.6243 286.684L72.8466 280.841L72.146 276.054L66.4669 262.179L68.5537 243.21L67.5103 239.774L67.9426 236.529L72.6677 223.168L70.7598 219.087L74.9781 216.84L77.05 210.424L94.8325 202.29L95.7864 198.796L99.2744 195.58L103.895 186.815L102.628 178.549L108.024 175.201L114.299 174.394L118.324 171.164L121.812 164.777L121.066 160.783L119.308 158.42L115.775 156.188L109.261 156.32L108.635 151.255L103.284 147.643L102.598 143.267L105.415 142.504L107.353 138.187L107.994 131.874L106.22 124.65L125.24 116.091L134.079 115.738L146.987 112.552L150.341 106.297L148.836 99.661L145.557 95.9611L145.318 90.4993L140.921 85.3017L138.909 80.4125L142.665 69.5036L145.288 67.1397L149.492 65.6422L151.638 62.8378L156.84 60.2684L165.441 65.3485Z" fill="#19191D" fill-opacity="0.15" stroke="#323338" stroke-width="2" mask="url(#path-14-inside-13_15_207)"/>
</g>
<defs>
<clipPath id="clip0_15_207">
<rect width="1193" height="667" fill="white"/>
</clipPath>
</defs>
</svg>
