<svg width="1440" height="1139" viewBox="0 0 1440 1139" fill="none" xmlns="http://www.w3.org/2000/svg">
<path d="M1400.01 1139.97V1166.32H9.60699V1139.97H62.7501C275.755 1130.76 386.044 1082.81 447.756 1038.09C465.214 1025.44 513.076 988.222 584.692 971.343C640.935 958.091 691.73 962.114 724.841 967.847C800.177 980.873 803.165 1005.99 895.583 1029.31C962.482 1046.19 1003.84 1056.64 1045.41 1034.58C1089.16 1011.34 1093.95 972.884 1127.55 971.343C1158.91 969.933 1177.42 1002.41 1216.15 1041.61C1245.35 1071.15 1290 1108.52 1356.3 1139.97H1399.99H1400.01Z" fill="#B5B5B5" fill-opacity="0.22"/>
<path d="M1412.98 1126.04V1079.97C1398.45 1072.28 1378.46 1064.57 1354.25 1063.47C1350.04 1063.26 1345.98 1063.28 1342.09 1063.47V1044.73H1314.9V1063.47H1302.01V1014.09H1287.69V1001.62H1281.25V1015.36H1267.64C1269.97 1002.9 1271.79 984.162 1267.64 962.189C1265.37 950.196 1261.83 940.065 1258.34 932.001L1255.11 921.738L1251.88 932.001C1248.36 940.065 1244.85 950.215 1242.57 962.189C1241.65 966.982 1241.03 971.606 1240.64 976.061C1240.07 982.508 1239.96 988.579 1240.21 994.181C1227.15 985.403 1213.99 985.027 1209.63 985.083V969.275H1216.08C1217.03 962.734 1217.86 951.117 1214.07 937.603C1214.07 937.584 1214.05 937.584 1214.05 937.565C1211.02 931.362 1208.69 925.573 1206.87 920.497C1204.86 916.982 1202.81 914.05 1201.02 911.757H1208.94V899.539H1201.02L1199.24 892.359L1197.45 899.539H1189.54V911.757H1197.45C1196.4 913.11 1195.27 914.67 1194.09 916.456C1194.05 916.513 1194.02 916.569 1193.98 916.625C1193.96 916.663 1193.94 916.701 1193.9 916.738C1193.45 917.49 1192.98 918.242 1192.47 919.031C1192.32 919.276 1192.17 919.52 1192 919.802C1189.6 923.918 1187.17 928.918 1185.3 934.783C1180.5 949.501 1181.41 962.283 1182.42 969.275H1188.87V985.083C1184.24 985.027 1169.74 985.459 1155.92 995.854C1143.58 1005.16 1138.86 1017.15 1137.3 1021.72H1130.14C1131.93 1012.13 1133.43 998.805 1132.13 983.166C1131.76 978.467 1131.1 973.598 1130.14 968.542C1127.87 956.55 1124.34 946.437 1120.84 938.354L1117.61 928.091L1114.38 938.354C1110.86 946.437 1107.35 956.569 1105.07 968.542C1100.92 990.516 1102.74 1009.27 1105.07 1021.74H1097.91V997.47H1074.29V1020.12H1063.56V1034.14H990.519L957.239 1048.97V1025.63C960.884 1023.9 963.402 1020.2 963.402 1015.89C963.402 1009.91 958.573 1005.1 952.654 1005.1C947.223 1005.1 942.713 1009.12 941.999 1014.37C941.191 1014.18 940.382 1014.09 939.518 1014.09C933.899 1014.09 929.258 1018.45 928.807 1023.99C927.924 1023.77 927.003 1023.64 926.044 1023.64C920.106 1023.64 915.295 1028.47 915.295 1034.42C915.295 1035.03 915.352 1035.61 915.446 1036.19C914.412 1035.87 913.322 1035.7 912.176 1035.7C906.219 1035.7 901.427 1040.55 901.427 1046.49C901.427 1052 905.505 1056.55 910.804 1057.21V1069.71L901.427 1073.9H549.532V1064.16H540.944V1052.66H531.643V1041.89H523.036V1003.07L536.284 989.425H565.994L505.841 964.275V954.2L535.908 940.554L492.969 921.87L517.304 901.738L478.65 885.93L472.204 872.396L465.759 885.93L427.085 901.738L451.439 921.87L408.481 940.554L438.548 954.2V964.275L378.414 989.425H408.124L421.354 1003.07V1041.89H412.766V1052.66H403.464V1064.16H394.857V1073.9H324.689V1017.43H338.651L299.996 998.015L295.167 988.899L290.319 998.015L251.664 1017.43H265.626V1073.9H184.408V1021.74H158.682V1076.19H130.927V1036.29H89.566V1077.79H40.6322V1043.3H26.9894V1033.05H-9.84247V1068.11H-34.7228V1151.89H1417.98V1126.02H1412.94L1412.98 1126.04ZM505.86 941.174H523.318L505.86 948.993V941.174ZM494.585 903.975H505.86L494.585 914.483V903.975ZM449.823 914.483L438.548 903.975H449.823V914.483ZM421.109 941.174H438.567V948.993L421.109 941.174ZM414.927 988.617H424.06V997.508L414.927 988.617ZM441.837 1034.16H424.06V1006.14H441.837V1034.16ZM461.098 1034.16H443.472V1006.14H461.098V1034.16ZM480.848 1034.16H462.902V1006.14H480.848V1034.16ZM500.523 1034.16H482.765V1006.14H500.523V1034.16ZM520.367 1034.16H502.628V1006.14H520.367V1034.16ZM520.367 988.617H529.482L520.367 997.508V988.617ZM926.063 1062.92L916.742 1067.09V1056.3C920.426 1054.57 922.963 1050.85 922.963 1046.49C922.963 1045.89 922.906 1045.31 922.812 1044.73C923.846 1045.04 924.954 1045.21 926.082 1045.21V1062.9L926.063 1062.92ZM941.905 1055.85L931.231 1060.63V1043.92C934.313 1042.21 936.493 1039.03 936.793 1035.35C937.676 1035.59 938.578 1035.7 939.537 1035.7C940.364 1035.7 941.134 1035.61 941.905 1035.44V1055.87V1055.85ZM952.672 1051.04L945.982 1054.03V1033.54C948.237 1031.85 949.797 1029.33 950.192 1026.42C951 1026.61 951.808 1026.7 952.672 1026.7V1051.04Z" fill="#6B6C70"/>
<path d="M1443.66 1108.3V1163.28H-7.21167V1108.3H68.5944L78.1406 901.832L80.5459 849.822C80.4332 849.164 80.0761 846.363 81.8801 843.619C83.9472 840.517 87.2358 839.935 87.7995 839.841L89.3969 818.036L91.0129 839.859C91.5579 839.935 94.8465 840.536 96.9323 843.638C98.7176 846.363 98.3605 849.164 98.2666 849.841L100.672 901.851L109.335 1088.9H481.356V1053.84H524.201V1077.56H536.115V1066.79H618.329L618.818 1036.36L635.467 1027.73L611.846 1008.32H596.267L666.06 970.046L631.164 945.253L675.738 922.095L683.799 909.144L687.558 879.483L691.316 909.144L699.359 922.095L743.933 945.253L709.037 970.046L778.829 1008.32H763.27L739.649 1027.73L756.298 1036.36H778.848V1108.3H1070.78L1070.4 1088.52L1088.29 1088.18L1072.94 1071.53L1114.77 1048.94L1118.72 1030.1L1123 1048.84L1165.24 1070.63L1150.19 1087.56H1168.1V1092.11H1177.4V1059.78H1201.02V1043.24H1245.41V1080.63H1306.26V1070.14H1294.1L1318.91 1045.23L1320.88 1039.61L1322.91 1045.36L1347.71 1070.27H1335.55V1108.32H1443.68L1443.66 1108.3Z" fill="#414247" stroke="#414247" stroke-width="1.12" stroke-miterlimit="10"/>
<path d="M109.335 1088.9H107.418" stroke="#414247" stroke-width="1.02" stroke-miterlimit="10"/>
<path d="M89.3969 818.035V818.018" stroke="#414247" stroke-width="1.12" stroke-miterlimit="10"/>
<path d="M78.1406 901.832H67.1286V891.325H78.1406" stroke="#414247" stroke-width="0.25" stroke-miterlimit="10"/>
<path d="M72.6346 891.325V901.832" stroke="#414247" stroke-width="0.25" stroke-miterlimit="10"/>
<path d="M100.672 901.851H111.684V891.325H100.672" stroke="#414247" stroke-width="0.25" stroke-miterlimit="10"/>
<path d="M106.178 891.325V901.851" stroke="#414247" stroke-width="0.25" stroke-miterlimit="10"/>
<path d="M1118.68 1030.08V1030.06" stroke="#414247" stroke-width="1.02" stroke-miterlimit="10"/>
<path d="M49.1637 1083.71V1136.55H55.6093V1083.71H49.1637ZM69.9286 1083.71V1136.55H76.3742V1083.71H69.9286ZM92.1217 1083.71V1136.55H98.5673V1083.71H92.1217ZM112.53 1083.71V1136.55H118.975V1083.71H112.53ZM132.937 1083.71V1136.55H139.383V1083.71H132.937ZM153.684 1083.71V1136.55H160.129V1083.71H153.684ZM175.895 1083.71V1136.55H182.341V1083.71H175.895ZM196.285 1083.71V1136.55H202.73V1083.71H196.285ZM215.546 1083.71V1136.55H221.992V1083.71H215.546ZM236.33 1083.71V1136.55H242.775V1083.71H236.33ZM258.523 1083.71V1136.55H264.968V1083.71H258.523ZM278.931 1083.71V1136.55H285.376V1083.71H278.931ZM296.539 1083.71V1136.55H302.984V1083.71H296.539ZM316.571 1083.71V1136.55H323.016V1083.71H316.571Z" stroke="#1F1F23" stroke-width="1.02" stroke-miterlimit="10"/>
<path d="M1433.46 1143.69V1123.2H1377.72L1342.81 1112.86H1342.79L1334.67 1110.46H1303.59C1300.85 1103.22 1294.63 1090.29 1281.4 1079.78C1270.57 1071.23 1259.71 1067.96 1253.47 1066.59V1055.21H1259.92L1249.41 1043.94V1006.12C1249.47 1004.33 1249.38 1001.74 1248.45 998.786C1247.25 994.877 1245.22 992.189 1243.87 990.647C1242.5 992.17 1240.47 994.877 1239.27 998.786C1238.36 1001.74 1238.25 1004.33 1238.33 1006.12V1043.94L1227.82 1055.21H1234.27V1066.59C1228.03 1067.94 1217.17 1071.21 1206.34 1079.78C1193.09 1090.29 1186.87 1103.22 1184.15 1110.46H1150.53V1118.54H1137.56L1130.71 1112.17L1128.88 1110.46H1109.7V1104.73H1098.46V1088.35H1083.28V1070.33H1092.28V1052.92H1075.97L1046.97 1023.84C1053.4 1017.66 1056.29 1008.96 1054.43 1000.59C1052.42 991.662 1045.71 986.474 1041.31 983.974L1020.44 931.325L1001.72 982.508C998.299 984.012 988.264 989.332 985.746 1000.61C983.754 1009.48 987.155 1018.77 994.428 1024.97L965.808 1054.33H950.229V1071.32H958.836V1088.95H944.329V1104.97H933.599V1110.46H922.004V1061.21H891.261V1042.36H867.658V1031.02H760.695V1073L731.888 1044.71L702.61 1073.97V1101.12H691.26V1095.72H683.743V1101.12H677.523V1095.72H671.115V1101.12H665.628V1095.72H658.863V1101.12H655.011V1071.91H670.063L655.011 1063.07L670.063 1052.85L617.07 1014.52L613.349 1002.94L609.441 1014.5L554.08 1052.83L569.79 1063.05L554.08 1071.89H569.79V1101.12H557.425V1110.46H478.274V1088.17H493.307L446.065 1071.98H387.002L359.059 1060.14H336.509V1053.67H348.047L325.497 1042.9H278.235V1018.64L286.541 998.956H305.352L251.739 972.189L249.221 970.93L246.703 972.189L193.109 998.956H211.919L220.225 1018.64V1042.9H172.964L150.414 1053.67H161.952V1060.14H139.402L111.458 1071.98H52.3959L5.15338 1088.17H20.1868V1121.57H-9.88004V1143.67H-44.7764V1166.3H1443.68V1143.67H1433.48L1433.46 1143.69ZM55.6093 1136.55H49.1637V1083.71H55.6093V1136.55ZM76.3742 1136.55H69.9286V1083.71H76.3742V1136.55ZM98.5673 1136.55H92.1217V1083.71H98.5673V1136.55ZM118.975 1136.55H112.53V1083.71H118.975V1136.55ZM139.383 1136.55H132.937V1083.71H139.383V1136.55ZM160.129 1136.55H153.684V1083.71H160.129V1136.55ZM182.341 1136.55H175.895V1083.71H182.341V1136.55ZM202.73 1136.55H196.285V1083.71H202.73V1136.55ZM221.992 1136.55H215.546V1083.71H221.992V1136.55ZM242.775 1136.55H236.33V1083.71H242.775V1136.55ZM264.968 1136.55H258.523V1083.71H264.968V1136.55ZM266.397 1054.74C266.265 1061.66 265.645 1067.85 264.893 1073.09H243.546L236.029 1073.07C235.259 1067.85 234.657 1061.68 234.526 1054.74C234.413 1049.27 234.582 1043.32 235.259 1036.96C235.447 1034.86 235.71 1032.7 236.048 1030.5C236.555 1027 237.194 1023.62 237.871 1020.42C239.468 1013 241.479 1006.46 243.527 1000.89C243.527 1000.87 243.546 1000.85 243.546 1000.84H257.358L257.377 1000.85C259.425 1006.42 261.436 1012.98 263.052 1020.4C263.766 1023.62 264.386 1026.96 264.875 1030.5C265.194 1032.7 265.457 1034.86 265.664 1036.96C266.321 1043.32 266.509 1049.27 266.397 1054.74ZM285.376 1136.55H278.931V1083.71H285.376V1136.55ZM302.984 1136.55H296.539V1083.71H302.984V1136.55ZM323.016 1136.55H316.571V1083.71H323.016V1136.55ZM583.621 1095.7H572.891V1071.72H583.621V1095.7ZM601.172 1095.7H590.442V1071.72H601.172V1095.7ZM618.648 1095.7H607.9V1071.72H618.648V1095.7ZM634.997 1095.7H624.248V1071.72H634.997V1095.7ZM652.455 1095.7H641.725V1071.72H652.455V1095.7ZM746.151 1143.69H724.672V1095.7H746.151V1143.69Z" fill="#1F1F23" stroke="#1F1F23" stroke-width="1.02" stroke-miterlimit="10"/>
<path d="M1244.1 983.711V990.347C1244.02 990.441 1243.93 990.535 1243.85 990.629" stroke="#1F1F23" stroke-width="1.03" stroke-miterlimit="10"/>
<path d="M1243.83 990.647C1243.76 990.553 1243.66 990.459 1243.59 990.365" stroke="#1F1F23" stroke-width="1.03" stroke-miterlimit="10"/>
<path d="M251.701 972.189L249.183 970.911L246.665 972.189L249.597 958.636L251.701 972.189Z" fill="#1F1F23" stroke="#1F1F23" stroke-width="1.03" stroke-miterlimit="10"/>
<path d="M725.172 1143.19V1096.2H745.651V1143.19H725.172Z" stroke="#1F1F23"/>
<path d="M573.39 1095.2V1072.22H583.121V1095.2H573.39Z" stroke="#1F1F23"/>
<path d="M590.942 1095.2V1072.22H600.672V1095.2H590.942Z" stroke="#1F1F23"/>
<path d="M608.381 1095.2V1072.22H618.13V1095.2H608.381Z" stroke="#1F1F23"/>
<path d="M624.748 1095.2V1072.22H634.497V1095.2H624.748Z" stroke="#1F1F23"/>
<path d="M642.225 1095.2V1072.22H651.955V1095.2H642.225Z" stroke="#1F1F23"/>
<path d="M266.397 1054.74C266.265 1061.66 265.645 1067.85 264.893 1073.09H243.546L236.029 1073.07C235.259 1067.85 234.657 1061.68 234.526 1054.74C234.413 1049.27 234.582 1043.32 235.259 1036.96C235.447 1034.86 235.71 1032.7 236.048 1030.5C236.555 1027 237.194 1023.62 237.871 1020.42C239.468 1013 241.479 1006.46 243.527 1000.89C243.527 1000.87 243.546 1000.85 243.546 1000.84H257.358L257.377 1000.85C259.425 1006.42 261.436 1012.98 263.052 1020.4C263.766 1023.62 264.386 1026.96 264.874 1030.5C265.194 1032.7 265.457 1034.86 265.664 1036.96C266.321 1043.32 266.509 1049.27 266.397 1054.74Z" stroke="#1F1F23" stroke-width="0.51" stroke-miterlimit="10"/>
<path d="M243.546 1000.82V1073.07" stroke="#1F1F23" stroke-width="0.51" stroke-miterlimit="10"/>
<path d="M257.358 1000.84V1073.07" stroke="#1F1F23" stroke-width="0.51" stroke-miterlimit="10"/>
<path d="M237.852 1020.4H263.052" stroke="#1F1F23" stroke-width="0.51" stroke-miterlimit="10"/>
<path d="M235.221 1036.94H265.683" stroke="#1F1F23" stroke-width="0.51" stroke-miterlimit="10"/>
<path d="M234.488 1054.73H266.415" stroke="#1F1F23" stroke-width="0.51" stroke-miterlimit="10"/>
<path d="M1238.31 1018.62C1238.1 1018.86 1237.91 1019.11 1237.71 1019.35" stroke="#1F1F23" stroke-width="1.02" stroke-miterlimit="10" stroke-linecap="round"/>
<path d="M1236.47 1020.8C1223.52 1036.04 1205.53 1054.37 1181.61 1071.98C1157.13 1090.01 1133.81 1101.89 1115.18 1109.71" stroke="#1F1F23" stroke-width="1.02" stroke-miterlimit="10" stroke-linecap="round"/>
<path d="M1114.3 1110.08C1114 1110.2 1113.72 1110.33 1113.44 1110.44" stroke="#1F1F23" stroke-width="1.02" stroke-miterlimit="10" stroke-linecap="round"/>
<path d="M1238.31 1027.24C1230.79 1039.76 1219.4 1055.61 1202.57 1070.91C1174.08 1096.79 1144.16 1108.26 1126.31 1113.5" stroke="#1F1F23" stroke-width="1.02" stroke-miterlimit="10" stroke-linecap="round"/>
<path d="M1249.38 1012.15C1265.2 1030.38 1286 1051.21 1312.65 1071.45C1350.87 1100.5 1387.83 1118.2 1416.28 1129.14" stroke="#1F1F23" stroke-width="1.02" stroke-miterlimit="10" stroke-linecap="round"/>
<path d="M1249.38 1020.78C1263.73 1038.26 1283.58 1059.03 1309.96 1078.99C1345.8 1106.1 1380.49 1121.66 1406.08 1130.74" stroke="#1F1F23" stroke-width="1.02" stroke-miterlimit="10" stroke-linecap="round"/>
<path d="M1373.31 1127.51C1364.29 1123.8 1353.91 1119.03 1342.77 1112.86" stroke="#1F1F23" stroke-width="1.02" stroke-miterlimit="10" stroke-linecap="round"/>
<path d="M1249.38 1031.55C1261.8 1048.09 1280.53 1069.5 1307.27 1089.76C1319.54 1099.07 1331.55 1106.64 1342.77 1112.85" stroke="#1F1F23" stroke-width="1.02" stroke-miterlimit="10" stroke-linecap="round"/>
<path d="M55.6093 1083.71H49.1637V1136.55H55.6093V1083.71Z" stroke="#1F1F23" stroke-width="1.02" stroke-miterlimit="10"/>
<path d="M76.3742 1083.71H69.9286V1136.55H76.3742V1083.71Z" stroke="#1F1F23" stroke-width="1.02" stroke-miterlimit="10"/>
<path d="M98.5673 1083.71H92.1217V1136.55H98.5673V1083.71Z" stroke="#1F1F23" stroke-width="1.02" stroke-miterlimit="10"/>
<path d="M118.975 1083.71H112.53V1136.55H118.975V1083.71Z" stroke="#1F1F23" stroke-width="1.02" stroke-miterlimit="10"/>
<path d="M139.383 1083.71H132.937V1136.55H139.383V1083.71Z" stroke="#1F1F23" stroke-width="1.02" stroke-miterlimit="10"/>
<path d="M160.129 1083.71H153.684V1136.55H160.129V1083.71Z" stroke="#1F1F23" stroke-width="1.02" stroke-miterlimit="10"/>
<path d="M182.341 1083.71H175.895V1136.55H182.341V1083.71Z" stroke="#1F1F23" stroke-width="1.02" stroke-miterlimit="10"/>
<path d="M202.73 1083.71H196.285V1136.55H202.73V1083.71Z" stroke="#1F1F23" stroke-width="1.02" stroke-miterlimit="10"/>
<path d="M221.992 1083.71H215.546V1136.55H221.992V1083.71Z" stroke="#1F1F23" stroke-width="1.02" stroke-miterlimit="10"/>
<path d="M242.775 1083.71H236.33V1136.55H242.775V1083.71Z" stroke="#1F1F23" stroke-width="1.02" stroke-miterlimit="10"/>
<path d="M264.968 1083.71H258.523V1136.55H264.968V1083.71Z" stroke="#1F1F23" stroke-width="1.02" stroke-miterlimit="10"/>
<path d="M285.376 1083.71H278.931V1136.55H285.376V1083.71Z" stroke="#1F1F23" stroke-width="1.02" stroke-miterlimit="10"/>
<path d="M302.984 1083.71H296.539V1136.55H302.984V1083.71Z" stroke="#1F1F23" stroke-width="1.02" stroke-miterlimit="10"/>
<path d="M323.016 1083.71H316.571V1136.55H323.016V1083.71Z" stroke="#1F1F23" stroke-width="1.02" stroke-miterlimit="10"/>
<path d="M393.391 1068.64L393.034 1166.32L361.69 1166.28V1068.6H365.448V1047.21H369.733V1018.69H372.42V938.073H377.794V938.054L383.15 938.073L382.849 1018.67L385.536 1018.69L385.424 1047.21L389.727 1047.23L389.652 1068.64H393.391Z" fill="#56575B" stroke="#56575B" stroke-width="1.12" stroke-miterlimit="10"/>
<path d="M377.794 922.076V932.697V938.035H377.775L377.794 932.697L377.832 922.039" stroke="#56575B" stroke-width="1.12" stroke-miterlimit="10"/>
</svg>
